LibertinusSerif-Italic.ufo
<glyph name="quotedbl" format="2">
	<unicode hex="0022"/>
	<advance width="336"/>
	<outline>
		<contour>
			<point x="167" y="426" type="line"/>
			<point x="194" y="430" type="line"/>
			<point x="256" y="612" type="line"/>
			<point x="256" y="619" type="line" smooth="yes"/>
			<point x="256" y="632"/>
			<point x="250" y="644"/>
			<point x="228" y="644" type="curve" smooth="yes"/>
			<point x="197" y="644"/>
			<point x="171" y="616"/>
			<point x="167" y="594" type="curve"/>
		</contour>
		<contour>
			<point x="294" y="427" type="line"/>
			<point x="321" y="431" type="line"/>
			<point x="383" y="612" type="line"/>
			<point x="383" y="619" type="line" smooth="yes"/>
			<point x="383" y="632"/>
			<point x="376" y="645"/>
			<point x="354" y="645" type="curve" smooth="yes"/>
			<point x="324" y="645"/>
			<point x="297" y="617"/>
			<point x="294" y="595" type="curve"/>
		</contour>
	</outline>
</glyph>
<glyph name="numbersign" format="2">
	<unicode hex="0023"/>
	<advance width="438"/>
	<outline>
		<contour>
			<point x="376" y="341" type="line"/>
			<point x="466" y="341" type="line"/>
			<point x="482" y="390" type="line"/>
			<point x="392" y="390" type="line"/>
			<point x="449" y="560" type="line"/>
			<point x="416" y="560" type="line"/>
			<point x="406" y="531"/>
			<point x="369" y="419"/>
			<point x="359" y="390" type="curve"/>
			<point x="249" y="390" type="line"/>
			<point x="306" y="560" type="line"/>
			<point x="272" y="560" type="line"/>
			<point x="263" y="531"/>
			<point x="225" y="418"/>
			<point x="216" y="390" type="curve"/>
			<point x="125" y="390" type="line"/>
			<point x="109" y="341" type="line"/>
			<point x="199" y="341" type="line"/>
			<point x="193" y="322"/>
			<point x="169" y="250"/>
			<point x="163" y="231" type="curve"/>
			<point x="72" y="231" type="line"/>
			<point x="56" y="183" type="line"/>
			<point x="146" y="183" type="line"/>
			<point x="90" y="13" type="line"/>
			<point x="123" y="13" type="line"/>
			<point x="133" y="42"/>
			<point x="170" y="153"/>
			<point x="180" y="183" type="curve"/>
			<point x="290" y="183" type="line"/>
			<point x="233" y="13" type="line"/>
			<point x="266" y="13" type="line"/>
			<point x="276" y="41"/>
			<point x="314" y="153"/>
			<point x="324" y="183" type="curve"/>
			<point x="414" y="183" type="line"/>
			<point x="429" y="231" type="line"/>
			<point x="339" y="231" type="line"/>
		</contour>
		<contour>
			<point x="307" y="231" type="line"/>
			<point x="196" y="231" type="line"/>
			<point x="202" y="250"/>
			<point x="227" y="322"/>
			<point x="233" y="341" type="curve"/>
			<point x="343" y="341" type="line"/>
		</contour>
	</outline>
</glyph>
<glyph name="ampersand" format="2">
	<unicode hex="0026"/>
	<advance width="705"/>
	<outline>
		<contour>
			<point x="604" y="385" type="curve" smooth="yes"/>
			<point x="604" y="359"/>
			<point x="553" y="288"/>
			<point x="469" y="190" type="curve"/>
			<point x="464" y="200"/>
			<point x="459" y="209"/>
			<point x="454" y="217" type="curve"/>
			<point x="402" y="310"/>
			<point x="388" y="342"/>
			<point x="381" y="360" type="curve"/>
			<point x="378" y="365"/>
			<point x="377" y="368"/>
			<point x="375" y="372" type="curve"/>
			<point x="445" y="409"/>
			<point x="534" y="468"/>
			<point x="551" y="534" type="curve"/>
			<point x="553" y="541"/>
			<point x="554" y="549"/>
			<point x="554" y="556" type="curve" smooth="yes"/>
			<point x="554" y="605"/>
			<point x="516" y="638"/>
			<point x="461" y="643" type="curve"/>
			<point x="456" y="644"/>
			<point x="450" y="644"/>
			<point x="445" y="644" type="curve" smooth="yes"/>
			<point x="392" y="644"/>
			<point x="340" y="623"/>
			<point x="307" y="587" type="curve" smooth="yes"/>
			<point x="282" y="561"/>
			<point x="267" y="528"/>
			<point x="267" y="488" type="curve"/>
			<point x="267" y="488"/>
			<point x="267" y="488"/>
			<point x="267" y="488" type="curve"/>
			<point x="267" y="458"/>
			<point x="275" y="424"/>
			<point x="294" y="377" type="curve"/>
			<point x="147" y="301"/>
			<point x="80" y="234"/>
			<point x="70" y="144" type="curve"/>
			<point x="69" y="137"/>
			<point x="69" y="129"/>
			<point x="69" y="121" type="curve" smooth="yes"/>
			<point x="69" y="80"/>
			<point x="83" y="49"/>
			<point x="107" y="29" type="curve"/>
			<point x="133" y="5"/>
			<point x="172" y="-7"/>
			<point x="218" y="-9" type="curve"/>
			<point x="224" y="-9"/>
			<point x="229" y="-9"/>
			<point x="234" y="-9" type="curve" smooth="yes"/>
			<point x="318" y="-9"/>
			<point x="381" y="35"/>
			<point x="438" y="98" type="curve"/>
			<point x="446" y="85"/>
			<point x="453" y="73"/>
			<point x="461" y="60" type="curve"/>
			<point x="482" y="22"/>
			<point x="504" y="4"/>
			<point x="524" y="-3" type="curve" smooth="yes"/>
			<point x="538" y="-8"/>
			<point x="551" y="-9"/>
			<point x="563" y="-9" type="curve" smooth="yes"/>
			<point x="598" y="-9"/>
			<point x="644" y="23"/>
			<point x="679" y="94" type="curve"/>
			<point x="675" y="97"/>
			<point x="670" y="99"/>
			<point x="666" y="102" type="curve"/>
			<point x="638" y="62"/>
			<point x="612" y="45"/>
			<point x="579" y="45" type="curve" smooth="yes"/>
			<point x="577" y="45"/>
			<point x="574" y="45"/>
			<point x="571" y="46" type="curve"/>
			<point x="555" y="52"/>
			<point x="534" y="73"/>
			<point x="514" y="111" type="curve"/>
			<point x="505" y="126"/>
			<point x="497" y="141"/>
			<point x="488" y="156" type="curve"/>
			<point x="572" y="259"/>
			<point x="613" y="327"/>
			<point x="645" y="363" type="curve" smooth="yes"/>
			<point x="664" y="385"/>
			<point x="680" y="396"/>
			<point x="699" y="396" type="curve" smooth="yes"/>
			<point x="708" y="396"/>
			<point x="718" y="396"/>
			<point x="727" y="396" type="curve" smooth="yes"/>
			<point x="731" y="396"/>
			<point x="736" y="398"/>
			<point x="737" y="404" type="curve" smooth="yes"/>
			<point x="740" y="420" type="line"/>
			<point x="739" y="422" type="line"/>
			<point x="739" y="422"/>
			<point x="699" y="421"/>
			<point x="667" y="420" type="curve"/>
			<point x="661" y="420"/>
			<point x="656" y="420"/>
			<point x="651" y="420" type="curve" smooth="yes"/>
			<point x="617" y="420"/>
			<point x="565" y="422"/>
			<point x="565" y="422" type="curve"/>
			<point x="563" y="420" type="line"/>
			<point x="560" y="403" type="line"/>
			<point x="559" y="400"/>
			<point x="559" y="396"/>
			<point x="563" y="396" type="curve" smooth="yes"/>
			<point x="573" y="396"/>
			<point x="582" y="396"/>
			<point x="592" y="396" type="curve" smooth="yes"/>
			<point x="601" y="396"/>
			<point x="604" y="392"/>
		</contour>
		<contour>
			<point x="311" y="340" type="curve"/>
			<point x="317" y="319"/>
			<point x="376" y="207"/>
			<point x="419" y="132" type="curve"/>
			<point x="358" y="64"/>
			<point x="318" y="25"/>
			<point x="247" y="25" type="curve" smooth="yes"/>
			<point x="239" y="25"/>
			<point x="232" y="26"/>
			<point x="224" y="27" type="curve"/>
			<point x="180" y="34"/>
			<point x="148" y="62"/>
			<point x="148" y="122" type="curve" smooth="yes"/>
			<point x="148" y="144"/>
			<point x="151" y="164"/>
			<point x="156" y="181" type="curve" smooth="yes"/>
			<point x="181" y="271"/>
			<point x="259" y="314"/>
		</contour>
		<contour>
			<point x="340" y="504" type="curve" smooth="yes"/>
			<point x="340" y="532"/>
			<point x="352" y="557"/>
			<point x="369" y="576" type="curve"/>
			<point x="385" y="595"/>
			<point x="407" y="607"/>
			<point x="426" y="609" type="curve"/>
			<point x="429" y="610"/>
			<point x="431" y="610"/>
			<point x="434" y="610" type="curve" smooth="yes"/>
			<point x="469" y="610"/>
			<point x="488" y="591"/>
			<point x="488" y="558" type="curve" smooth="yes"/>
			<point x="488" y="552"/>
			<point x="488" y="541"/>
			<point x="482" y="525" type="curve"/>
			<point x="471" y="499"/>
			<point x="441" y="460"/>
			<point x="360" y="412" type="curve"/>
			<point x="359" y="416"/>
			<point x="357" y="421"/>
			<point x="356" y="425" type="curve"/>
			<point x="346" y="459"/>
			<point x="340" y="484"/>
		</contour>
	</outline>
</glyph>
<glyph name="quotesingle" format="2">
	<unicode hex="0027"/>
	<advance width="190"/>
	<outline>
		<contour>
			<point x="154" y="426" type="curve"/>
			<point x="182" y="430" type="line"/>
			<point x="182" y="430"/>
			<point x="244" y="595"/>
			<point x="247" y="611" type="curve"/>
			<point x="247" y="612"/>
			<point x="247" y="616"/>
			<point x="247" y="618" type="curve" smooth="yes"/>
			<point x="247" y="631"/>
			<point x="240" y="644"/>
			<point x="218" y="644" type="curve" smooth="yes"/>
			<point x="188" y="644"/>
			<point x="161" y="616"/>
			<point x="158" y="594" type="curve"/>
			<point x="156" y="585"/>
			<point x="154" y="426"/>
		</contour>
	</outline>
</glyph>
<glyph name="parenleft" format="2">
	<unicode hex="0028"/>
	<advance width="306"/>
	<outline>
		<contour>
			<point x="94" y="252" type="curve"/>
			<point x="89" y="219"/>
			<point x="86" y="187"/>
			<point x="86" y="154" type="curve" smooth="yes"/>
			<point x="86" y="102"/>
			<point x="93" y="50"/>
			<point x="108" y="0" type="curve"/>
			<point x="130" y="-80"/>
			<point x="169" y="-145"/>
			<point x="226" y="-204" type="curve"/>
			<point x="247" y="-187" type="line"/>
			<point x="191" y="-108"/>
			<point x="175" y="-32"/>
			<point x="168" y="11" type="curve" smooth="yes"/>
			<point x="162" y="44"/>
			<point x="159" y="79"/>
			<point x="159" y="115" type="curve" smooth="yes"/>
			<point x="159" y="159"/>
			<point x="164" y="205"/>
			<point x="172" y="252" type="curve" smooth="yes"/>
			<point x="187" y="338"/>
			<point x="214" y="417"/>
			<point x="253" y="492" type="curve" smooth="yes"/>
			<point x="274" y="533"/>
			<point x="317" y="610"/>
			<point x="402" y="689" type="curve"/>
			<point x="387" y="707" type="line"/>
			<point x="286" y="632"/>
			<point x="227" y="549"/>
			<point x="197" y="503" type="curve" smooth="yes"/>
			<point x="144" y="425"/>
			<point x="110" y="343"/>
		</contour>
	</outline>
</glyph>
<glyph name="comma" format="2">
	<unicode hex="002C"/>
	<advance width="219"/>
	<outline>
		<contour>
			<point x="121" y="95" type="curve" smooth="yes"/>
			<point x="94" y="95"/>
			<point x="68" y="80"/>
			<point x="63" y="54" type="curve"/>
			<point x="62" y="51"/>
			<point x="62" y="48"/>
			<point x="62" y="45" type="curve" smooth="yes"/>
			<point x="62" y="21"/>
			<point x="77" y="9"/>
			<point x="96" y="4" type="curve"/>
			<point x="96" y="4"/>
			<point x="96" y="4"/>
			<point x="96" y="4" type="curve"/>
			<point x="112" y="0"/>
			<point x="127" y="-4"/>
			<point x="127" y="-22" type="curve" smooth="yes"/>
			<point x="127" y="-50"/>
			<point x="76" y="-97"/>
			<point x="23" y="-109" type="curve"/>
			<point x="20" y="-118"/>
			<point x="23" y="-126"/>
			<point x="31" y="-132" type="curve"/>
			<point x="70" y="-125"/>
			<point x="99" y="-110"/>
			<point x="120" y="-92" type="curve" smooth="yes"/>
			<point x="151" y="-65"/>
			<point x="166" y="-31"/>
			<point x="172" y="-1" type="curve" smooth="yes"/>
			<point x="174" y="10"/>
			<point x="175" y="21"/>
			<point x="175" y="31" type="curve" smooth="yes"/>
			<point x="175" y="71"/>
			<point x="152" y="95"/>
		</contour>
	</outline>
</glyph>
<glyph name="slash" format="2">
	<unicode hex="002F"/>
	<advance width="291"/>
	<outline>
		<contour>
			<point x="402" y="682" type="line"/>
			<point x="361" y="682" type="line"/>
			<point x="0" y="-21" type="line"/>
			<point x="42" y="-21" type="line"/>
		</contour>
	</outline>
</glyph>
<glyph name="one" format="2">
	<unicode hex="0031"/>
	<advance width="444"/>
	<outline>
		<contour>
			<point x="308" y="77" type="curve" smooth="yes"/>
			<point x="390" y="488" type="line"/>
			<point x="397" y="528"/>
			<point x="405" y="567"/>
			<point x="413" y="606" type="curve"/>
			<point x="413" y="608"/>
			<point x="411" y="610"/>
			<point x="408" y="610" type="curve"/>
			<point x="407" y="610"/>
			<point x="406" y="610"/>
			<point x="405" y="609" type="curve"/>
			<point x="397" y="604"/>
			<point x="389" y="599"/>
			<point x="380" y="594" type="curve"/>
			<point x="377" y="592"/>
			<point x="374" y="591"/>
			<point x="371" y="589" type="curve"/>
			<point x="329" y="566"/>
			<point x="273" y="540"/>
			<point x="196" y="516" type="curve"/>
			<point x="196" y="505"/>
			<point x="199" y="496"/>
			<point x="204" y="487" type="curve"/>
			<point x="231" y="496"/>
			<point x="265" y="501"/>
			<point x="287" y="503" type="curve"/>
			<point x="290" y="503"/>
			<point x="293" y="503"/>
			<point x="296" y="503" type="curve" smooth="yes"/>
			<point x="306" y="503"/>
			<point x="311" y="494"/>
			<point x="311" y="478" type="curve" smooth="yes"/>
			<point x="311" y="469"/>
			<point x="309" y="462"/>
			<point x="307" y="449" type="curve"/>
			<point x="241" y="106" type="line"/>
			<point x="235" y="77" type="line"/>
			<point x="230" y="49"/>
			<point x="209" y="33"/>
			<point x="163" y="30" type="curve" smooth="yes"/>
			<point x="151" y="29"/>
			<point x="139" y="29"/>
			<point x="127" y="28" type="curve"/>
			<point x="123" y="24"/>
			<point x="121" y="8"/>
			<point x="125" y="-1" type="curve"/>
			<point x="174" y="0"/>
			<point x="207" y="0"/>
			<point x="261" y="0" type="curve" smooth="yes"/>
			<point x="309" y="0"/>
			<point x="335" y="0"/>
			<point x="385" y="-1" type="curve"/>
			<point x="389" y="3"/>
			<point x="391" y="23"/>
			<point x="388" y="28" type="curve"/>
			<point x="377" y="29"/>
			<point x="366" y="29"/>
			<point x="355" y="30" type="curve" smooth="yes"/>
			<point x="313" y="33"/>
			<point x="303" y="50"/>
		</contour>
	</outline>
</glyph>
<glyph name="six" format="2">
	<unicode hex="0036"/>
	<advance width="444"/>
	<outline>
		<contour>
			<point x="505" y="584" type="curve"/>
			<point x="507" y="594"/>
			<point x="507" y="603"/>
			<point x="504" y="612" type="curve"/>
			<point x="408" y="609"/>
			<point x="301" y="562"/>
			<point x="223" y="483" type="curve" smooth="yes"/>
			<point x="92" y="351"/>
			<point x="88" y="194"/>
			<point x="88" y="164" type="curve" smooth="yes"/>
			<point x="88" y="25"/>
			<point x="161" y="-10"/>
			<point x="235" y="-10" type="curve" smooth="yes"/>
			<point x="360" y="-10"/>
			<point x="457" y="109"/>
			<point x="457" y="215" type="curve" smooth="yes"/>
			<point x="457" y="279"/>
			<point x="431" y="360"/>
			<point x="306" y="360" type="curve" smooth="yes"/>
			<point x="269" y="360"/>
			<point x="215" y="337"/>
			<point x="181" y="309" type="curve"/>
			<point x="203" y="376"/>
			<point x="246" y="438"/>
			<point x="291" y="482" type="curve" smooth="yes"/>
			<point x="348" y="538"/>
			<point x="433" y="575"/>
		</contour>
		<contour>
			<point x="175" y="279" type="curve"/>
			<point x="224" y="315"/>
			<point x="256" y="324"/>
			<point x="281" y="324" type="curve" smooth="yes"/>
			<point x="363" y="324"/>
			<point x="384" y="255"/>
			<point x="384" y="205" type="curve" smooth="yes"/>
			<point x="384" y="134"/>
			<point x="328" y="20"/>
			<point x="254" y="20" type="curve" smooth="yes"/>
			<point x="215" y="20"/>
			<point x="160" y="54"/>
			<point x="160" y="159" type="curve" smooth="yes"/>
			<point x="160" y="201"/>
			<point x="168" y="255"/>
		</contour>
	</outline>
</glyph>
<glyph name="seven" format="2">
	<unicode hex="0037"/>
	<advance width="444"/>
	<outline>
		<contour>
			<point x="272" y="544" type="curve" smooth="yes"/>
			<point x="455" y="544" type="line"/>
			<point x="343" y="347"/>
			<point x="229" y="148"/>
			<point x="134" y="-6" type="curve"/>
			<point x="140" y="-13" type="line"/>
			<point x="206" y="-10" type="line"/>
			<point x="293" y="160"/>
			<point x="377" y="327"/>
			<point x="536" y="600" type="curve"/>
			<point x="524" y="612" type="line"/>
			<point x="507" y="607"/>
			<point x="486" y="601"/>
			<point x="450" y="601" type="curve" smooth="yes"/>
			<point x="242" y="601" type="line" smooth="yes"/>
			<point x="215" y="601"/>
			<point x="212" y="606"/>
			<point x="210" y="611" type="curve"/>
			<point x="209" y="613"/>
			<point x="205" y="614"/>
			<point x="201" y="614" type="curve" smooth="yes"/>
			<point x="197" y="614"/>
			<point x="192" y="613"/>
			<point x="192" y="611" type="curve"/>
			<point x="181" y="565"/>
			<point x="168" y="526"/>
			<point x="150" y="476" type="curve"/>
			<point x="159" y="473"/>
			<point x="167" y="472"/>
			<point x="177" y="473" type="curve"/>
			<point x="204" y="531"/>
			<point x="220" y="544"/>
		</contour>
	</outline>
</glyph>
<glyph name="nine" format="2">
	<unicode hex="0039"/>
	<advance width="444"/>
	<outline>
		<contour>
			<point x="77" y="16" type="curve"/>
			<point x="75" y="6"/>
			<point x="75" y="-3"/>
			<point x="78" y="-12" type="curve"/>
			<point x="174" y="-9"/>
			<point x="281" y="38"/>
			<point x="359" y="117" type="curve" smooth="yes"/>
			<point x="490" y="249"/>
			<point x="494" y="406"/>
			<point x="494" y="436" type="curve" smooth="yes"/>
			<point x="494" y="575"/>
			<point x="421" y="610"/>
			<point x="347" y="610" type="curve" smooth="yes"/>
			<point x="222" y="610"/>
			<point x="125" y="491"/>
			<point x="125" y="385" type="curve" smooth="yes"/>
			<point x="125" y="321"/>
			<point x="151" y="240"/>
			<point x="276" y="240" type="curve" smooth="yes"/>
			<point x="313" y="240"/>
			<point x="367" y="263"/>
			<point x="401" y="291" type="curve"/>
			<point x="379" y="224"/>
			<point x="336" y="162"/>
			<point x="291" y="118" type="curve" smooth="yes"/>
			<point x="234" y="62"/>
			<point x="149" y="25"/>
		</contour>
		<contour>
			<point x="407" y="321" type="curve"/>
			<point x="358" y="285"/>
			<point x="326" y="276"/>
			<point x="301" y="276" type="curve" smooth="yes"/>
			<point x="219" y="276"/>
			<point x="198" y="345"/>
			<point x="198" y="395" type="curve" smooth="yes"/>
			<point x="198" y="466"/>
			<point x="256" y="580"/>
			<point x="328" y="580" type="curve" smooth="yes"/>
			<point x="367" y="580"/>
			<point x="422" y="546"/>
			<point x="422" y="441" type="curve" smooth="yes"/>
			<point x="422" y="399"/>
			<point x="414" y="345"/>
		</contour>
	</outline>
</glyph>
<glyph name="colon" format="2">
	<unicode hex="003A"/>
	<advance width="219"/>
	<outline>
		<contour>
			<point x="132" y="113" type="curve" smooth="yes"/>
			<point x="96" y="113"/>
			<point x="70" y="80"/>
			<point x="70" y="53" type="curve" smooth="yes"/>
			<point x="70" y="27"/>
			<point x="90" y="7"/>
			<point x="116" y="7" type="curve" smooth="yes"/>
			<point x="151" y="7"/>
			<point x="178" y="39"/>
			<point x="178" y="69" type="curve" smooth="yes"/>
			<point x="178" y="94"/>
			<point x="158" y="113"/>
		</contour>
		<contour>
			<point x="196" y="412" type="curve" smooth="yes"/>
			<point x="160" y="412"/>
			<point x="134" y="379"/>
			<point name=".hr01" x="134" y="352" type="curve" smooth="yes"/>
			<point x="134" y="326"/>
			<point x="154" y="306"/>
			<point x="180" y="306" type="curve" smooth="yes"/>
			<point x="215" y="306"/>
			<point x="242" y="338"/>
			<point x="242" y="368" type="curve" smooth="yes"/>
			<point x="242" y="393"/>
			<point x="222" y="412"/>
		</contour>
	</outline>
</glyph>
<glyph name="semicolon" format="2">
	<unicode hex="003B"/>
	<advance width="219"/>
	<outline>
		<contour>
			<point x="130" y="95" type="curve" smooth="yes"/>
			<point x="103" y="95"/>
			<point x="77" y="80"/>
			<point x="72" y="54" type="curve"/>
			<point x="71" y="51"/>
			<point x="71" y="48"/>
			<point x="71" y="45" type="curve" smooth="yes"/>
			<point x="71" y="21"/>
			<point x="86" y="9"/>
			<point x="105" y="4" type="curve"/>
			<point x="105" y="4"/>
			<point x="105" y="4"/>
			<point x="105" y="4" type="curve"/>
			<point x="121" y="0"/>
			<point x="136" y="-4"/>
			<point x="136" y="-22" type="curve" smooth="yes"/>
			<point x="136" y="-50"/>
			<point x="85" y="-97"/>
			<point x="32" y="-109" type="curve"/>
			<point x="29" y="-118"/>
			<point x="32" y="-126"/>
			<point x="40" y="-132" type="curve"/>
			<point x="79" y="-125"/>
			<point x="108" y="-110"/>
			<point x="129" y="-92" type="curve" smooth="yes"/>
			<point x="160" y="-65"/>
			<point x="175" y="-31"/>
			<point x="181" y="-1" type="curve" smooth="yes"/>
			<point x="183" y="10"/>
			<point x="184" y="21"/>
			<point x="184" y="31" type="curve" smooth="yes"/>
			<point x="184" y="71"/>
			<point x="161" y="95"/>
		</contour>
		<contour>
			<point x="125" y="347" type="curve" smooth="yes"/>
			<point name=".hr01" x="125" y="321"/>
			<point x="145" y="301"/>
			<point x="171" y="301" type="curve" smooth="yes"/>
			<point x="174" y="301"/>
			<point x="177" y="301"/>
			<point x="180" y="302" type="curve"/>
			<point x="208" y="306"/>
			<point x="228" y="330"/>
			<point x="232" y="355" type="curve"/>
			<point x="233" y="358"/>
			<point x="233" y="360"/>
			<point x="233" y="363" type="curve" smooth="yes"/>
			<point x="233" y="388"/>
			<point x="213" y="407"/>
			<point x="187" y="407" type="curve" smooth="yes"/>
			<point x="184" y="407"/>
			<point name=".hr02" x="181" y="407"/>
			<point x="177" y="406" type="curve"/>
			<point x="146" y="401"/>
			<point x="125" y="372"/>
		</contour>
	</outline>
</glyph>
<glyph name="less" format="2">
	<unicode hex="003C"/>
	<advance width="487"/>
	<outline>
		<contour>
			<point x="164" y="239" type="line"/>
			<point x="501" y="354" type="line"/>
			<point x="510" y="404" type="line"/>
			<point x="95" y="263" type="line"/>
			<point x="87" y="215" type="line"/>
			<point x="452" y="73" type="line"/>
			<point x="460" y="123" type="line"/>
		</contour>
	</outline>
</glyph>
<glyph name="equal" format="2">
	<unicode hex="003D"/>
	<advance width="527"/>
	<outline>
		<contour>
			<point x="518" y="318" type="line"/>
			<point x="122" y="318" type="line"/>
			<point x="113" y="269" type="line"/>
			<point x="509" y="269" type="line"/>
		</contour>
		<contour>
			<point x="496" y="193" type="line"/>
			<point x="100" y="193" type="line"/>
			<point x="91" y="144" type="line"/>
			<point x="487" y="144" type="line"/>
		</contour>
	</outline>
</glyph>
<glyph name="greater" format="2">
	<unicode hex="003E"/>
	<advance width="487"/>
	<outline>
		<contour>
			<point x="407" y="236" type="line"/>
			<point x="70" y="121" type="line"/>
			<point x="62" y="71" type="line"/>
			<point x="477" y="212" type="line"/>
			<point x="485" y="260" type="line"/>
			<point x="120" y="402" type="line"/>
			<point x="111" y="352" type="line"/>
		</contour>
	</outline>
</glyph>
<glyph name="question" format="2">
	<unicode hex="003F"/>
	<advance width="405"/>
	<outline>
		<contour>
			<point x="219" y="563" type="curve" smooth="yes"/>
			<point x="219" y="593"/>
			<point x="254" y="629"/>
			<point x="323" y="629" type="curve" smooth="yes"/>
			<point x="327" y="629"/>
			<point x="331" y="629"/>
			<point x="335" y="628" type="curve"/>
			<point x="379" y="621"/>
			<point x="408" y="579"/>
			<point x="408" y="530" type="curve" smooth="yes"/>
			<point x="408" y="445"/>
			<point x="356" y="422"/>
			<point x="307" y="375" type="curve" smooth="yes"/>
			<point x="276" y="345"/>
			<point x="246" y="304"/>
			<point x="232" y="230" type="curve"/>
			<point x="231" y="226"/>
			<point x="231" y="222"/>
			<point x="230" y="219" type="curve"/>
			<point x="226" y="196" type="line"/>
			<point x="225" y="192"/>
			<point x="225" y="188"/>
			<point x="224" y="184" type="curve"/>
			<point x="223" y="177"/>
			<point x="228" y="174"/>
			<point x="235" y="174" type="curve" smooth="yes"/>
			<point x="243" y="174"/>
			<point x="249" y="177"/>
			<point x="250" y="184" type="curve"/>
			<point x="250" y="184"/>
			<point x="250" y="184"/>
			<point x="250" y="184" type="curve"/>
			<point x="251" y="191"/>
			<point x="252" y="199"/>
			<point x="254" y="206" type="curve"/>
			<point x="257" y="228" type="line"/>
			<point x="262" y="252"/>
			<point x="271" y="276"/>
			<point x="289" y="301" type="curve"/>
			<point x="299" y="316"/>
			<point x="319" y="330"/>
			<point x="343" y="346" type="curve" smooth="yes"/>
			<point x="396" y="382"/>
			<point x="468" y="426"/>
			<point x="483" y="507" type="curve" smooth="yes"/>
			<point x="485" y="517"/>
			<point x="486" y="528"/>
			<point x="486" y="539" type="curve" smooth="yes"/>
			<point x="486" y="608"/>
			<point x="435" y="653"/>
			<point x="354" y="659" type="curve"/>
			<point x="348" y="659"/>
			<point x="343" y="659"/>
			<point x="338" y="659" type="curve" smooth="yes"/>
			<point x="286" y="659"/>
			<point x="244" y="644"/>
			<point x="214" y="624" type="curve" smooth="yes"/>
			<point x="176" y="598"/>
			<point x="154" y="563"/>
			<point x="148" y="536" type="curve"/>
			<point x="147" y="530"/>
			<point x="146" y="525"/>
			<point x="146" y="520" type="curve" smooth="yes"/>
			<point x="146" y="493"/>
			<point x="166" y="487"/>
			<point x="180" y="487" type="curve" smooth="yes"/>
			<point x="211" y="487"/>
			<point x="227" y="512"/>
			<point x="227" y="532" type="curve" smooth="yes"/>
			<point x="227" y="537"/>
			<point x="226" y="542"/>
			<point x="224" y="546" type="curve"/>
			<point x="221" y="551"/>
			<point x="219" y="557"/>
		</contour>
		<contour>
			<point x="165" y="35" type="curve" smooth="yes"/>
			<point name=".hr01" x="165" y="9"/>
			<point x="185" y="-11"/>
			<point x="211" y="-11" type="curve" smooth="yes"/>
			<point x="243" y="-11"/>
			<point x="268" y="15"/>
			<point x="272" y="43" type="curve"/>
			<point x="273" y="46"/>
			<point x="273" y="48"/>
			<point x="273" y="51" type="curve" smooth="yes"/>
			<point x="273" y="76"/>
			<point x="253" y="95"/>
			<point x="227" y="95" type="curve" smooth="yes"/>
			<point name=".hr02" x="191" y="95"/>
			<point x="165" y="62"/>
		</contour>
	</outline>
</glyph>
<glyph name="C" format="2">
	<unicode hex="0043"/>
	<advance width="616"/>
	<outline>
		<contour>
			<point x="330" y="-10" type="curve" smooth="yes"/>
			<point x="433" y="-10"/>
			<point x="528" y="37"/>
			<point x="610" y="126" type="curve"/>
			<point x="607" y="135"/>
			<point x="602" y="141"/>
			<point x="591" y="141" type="curve"/>
			<point x="508" y="63"/>
			<point x="436" y="32"/>
			<point x="347" y="32" type="curve" smooth="yes"/>
			<point x="227" y="32"/>
			<point x="177" y="134"/>
			<point x="177" y="241" type="curve" smooth="yes"/>
			<point x="177" y="398"/>
			<point x="285" y="619"/>
			<point x="453" y="619" type="curve" smooth="yes"/>
			<point x="586" y="619"/>
			<point x="626" y="538"/>
			<point x="634" y="453" type="curve"/>
			<point x="639" y="453"/>
			<point x="656" y="454"/>
			<point x="663" y="457" type="curve"/>
			<point x="664" y="508"/>
			<point x="666" y="557"/>
			<point x="672" y="611" type="curve"/>
			<point x="618" y="614"/>
			<point x="589" y="658"/>
			<point x="471" y="658" type="curve" smooth="yes"/>
			<point x="263" y="658"/>
			<point x="89" y="439"/>
			<point x="89" y="241" type="curve" smooth="yes"/>
			<point x="89" y="109"/>
			<point x="166" y="-10"/>
		</contour>
	</outline>
	<anchor name="t.uni0302" x="471" y="740"/>
</glyph>
<glyph name="E" format="2">
	<unicode hex="0045"/>
	<advance width="526"/>
	<outline>
		<contour>
			<point x="367" y="361" type="curve" smooth="yes"/>
			<point x="245" y="361" type="line"/>
			<point x="285" y="571" type="line" smooth="yes"/>
			<point x="290" y="595"/>
			<point x="304" y="605"/>
			<point x="327" y="605" type="curve" smooth="yes"/>
			<point x="427" y="605" type="line" smooth="yes"/>
			<point x="499" y="605"/>
			<point x="509" y="565"/>
			<point x="517" y="496" type="curve"/>
			<point x="526" y="496"/>
			<point x="539" y="498"/>
			<point x="545" y="501" type="curve"/>
			<point x="549" y="542"/>
			<point x="553" y="638"/>
			<point x="553" y="646" type="curve" smooth="yes"/>
			<point x="553" y="648"/>
			<point x="552" y="649"/>
			<point x="549" y="649" type="curve"/>
			<point x="532" y="646"/>
			<point x="526" y="645"/>
			<point x="503" y="645" type="curve" smooth="yes"/>
			<point x="260" y="645" type="line" smooth="yes"/>
			<point x="223" y="645"/>
			<point x="184" y="646"/>
			<point x="139" y="647" type="curve"/>
			<point x="137" y="645"/>
			<point x="124" y="625"/>
			<point name=".hr01" x="134" y="618" type="curve"/>
			<point x="185" y="616"/>
			<point x="205" y="606"/>
			<point x="205" y="585" type="curve" smooth="yes"/>
			<point x="205" y="567"/>
			<point x="204" y="551"/>
			<point x="198" y="521" type="curve" smooth="yes"/>
			<point x="121" y="122" type="line" smooth="yes"/>
			<point x="108" y="56"/>
			<point x="85" y="34"/>
			<point x="17" y="27" type="curve"/>
			<point x="11" y="17"/>
			<point x="8" y="5"/>
			<point x="13" y="-2" type="curve"/>
			<point x="58" y="-1"/>
			<point x="98" y="0"/>
			<point x="135" y="0" type="curve" smooth="yes"/>
			<point x="341" y="0" type="line" smooth="yes"/>
			<point x="387" y="0"/>
			<point x="455" y="-2"/>
			<point x="463" y="-2" type="curve"/>
			<point x="484" y="50"/>
			<point x="509" y="113"/>
			<point x="531" y="165" type="curve"/>
			<point x="526" y="168"/>
			<point x="512" y="170"/>
			<point x="502" y="170" type="curve"/>
			<point x="469" y="98"/>
			<point name=".hr02" x="420" y="39"/>
			<point x="347" y="39" type="curve" smooth="yes"/>
			<point x="217" y="39" type="line" smooth="yes"/>
			<point x="199" y="39"/>
			<point x="187" y="43"/>
			<point x="187" y="62" type="curve" smooth="yes"/>
			<point x="187" y="65"/>
			<point x="187" y="68"/>
			<point x="188" y="72" type="curve"/>
			<point x="237" y="323" type="line"/>
			<point x="359" y="323" type="line" smooth="yes"/>
			<point x="384" y="323"/>
			<point x="398" y="301"/>
			<point x="398" y="260" type="curve" smooth="yes"/>
			<point x="398" y="254" type="line"/>
			<point x="409" y="251"/>
			<point x="421" y="253"/>
			<point x="430" y="258" type="curve"/>
			<point x="436" y="318"/>
			<point x="448" y="378"/>
			<point x="464" y="436" type="curve"/>
			<point x="456" y="439"/>
			<point x="438" y="439"/>
			<point x="431" y="436" type="curve"/>
			<point x="417" y="381"/>
			<point x="409" y="361"/>
		</contour>
	</outline>
	<anchor name="t.uni0302" x="385" y="740"/>
</glyph>
<glyph name="K" format="2">
	<unicode hex="004B"/>
	<advance width="637"/>
	<outline>
		<contour>
			<point x="213" y="569" type="curve" smooth="yes"/>
			<point x="116" y="76" type="line" smooth="yes"/>
			<point x="109" y="39"/>
			<point x="83" y="32"/>
			<point x="23" y="27" type="curve"/>
			<point x="19" y="23"/>
			<point x="17" y="7"/>
			<point x="21" y="-2" type="curve"/>
			<point x="66" y="-1"/>
			<point x="102" y="0"/>
			<point x="141" y="0" type="curve" smooth="yes"/>
			<point x="154" y="0" type="line" smooth="yes"/>
			<point x="189" y="0"/>
			<point x="229" y="-1"/>
			<point x="268" y="-2" type="curve"/>
			<point x="271" y="2"/>
			<point x="274" y="22"/>
			<point x="271" y="27" type="curve"/>
			<point x="217" y="31"/>
			<point x="192" y="40"/>
			<point x="192" y="64" type="curve" smooth="yes"/>
			<point x="192" y="68"/>
			<point x="192" y="72"/>
			<point x="193" y="76" type="curve"/>
			<point x="290" y="569" type="line" smooth="yes"/>
			<point x="297" y="602"/>
			<point x="324" y="614"/>
			<point x="383" y="618" type="curve"/>
			<point x="387" y="622"/>
			<point x="389" y="638"/>
			<point x="385" y="647" type="curve"/>
			<point x="345" y="646"/>
			<point x="312" y="645"/>
			<point x="278" y="645" type="curve" smooth="yes"/>
			<point x="265" y="645" type="line" smooth="yes"/>
			<point x="227" y="645"/>
			<point x="182" y="646"/>
			<point x="138" y="647" type="curve"/>
			<point x="135" y="643"/>
			<point x="132" y="623"/>
			<point x="135" y="618" type="curve"/>
			<point x="187" y="615"/>
			<point x="215" y="605"/>
			<point x="215" y="583" type="curve" smooth="yes"/>
			<point x="215" y="579"/>
			<point x="214" y="574"/>
		</contour>
		<contour>
			<point x="220" y="308" type="line"/>
			<point x="263" y="312"/>
			<point x="294" y="303"/>
			<point x="313" y="271" type="curve" smooth="yes"/>
			<point x="431" y="73" type="line" smooth="yes"/>
			<point x="439" y="60"/>
			<point x="441" y="28"/>
			<point x="441" y="16" type="curve" smooth="yes"/>
			<point x="441" y="10"/>
			<point x="443" y="1"/>
			<point x="446" y="-2" type="curve"/>
			<point x="466" y="-1"/>
			<point x="476" y="0"/>
			<point x="505" y="0" type="curve" smooth="yes"/>
			<point x="533" y="0" type="line" smooth="yes"/>
			<point x="554" y="0"/>
			<point x="572" y="-1"/>
			<point x="604" y="-2" type="curve"/>
			<point x="609" y="3"/>
			<point x="614" y="17"/>
			<point x="609" y="25" type="curve"/>
			<point x="567" y="31"/>
			<point x="552" y="41"/>
			<point x="532" y="73" type="curve" smooth="yes"/>
			<point x="372" y="333" type="line" smooth="yes"/>
			<point x="367" y="341"/>
			<point x="365" y="347"/>
			<point x="365" y="353" type="curve" smooth="yes"/>
			<point x="365" y="362"/>
			<point x="374" y="374"/>
			<point x="394" y="392" type="curve" smooth="yes"/>
			<point x="574" y="558" type="line" smooth="yes"/>
			<point x="628" y="607"/>
			<point x="666" y="613"/>
			<point x="706" y="618" type="curve"/>
			<point x="717" y="622"/>
			<point x="722" y="639"/>
			<point x="719" y="647" type="curve"/>
			<point x="680" y="646"/>
			<point x="667" y="645"/>
			<point x="640" y="645" type="curve" smooth="yes"/>
			<point x="625" y="645" type="line" smooth="yes"/>
			<point x="586" y="645"/>
			<point x="559" y="645"/>
			<point x="514" y="647" type="curve"/>
			<point x="510" y="644"/>
			<point x="506" y="626"/>
			<point x="509" y="620" type="curve"/>
			<point x="541" y="618"/>
			<point x="556" y="611"/>
			<point x="556" y="602" type="curve" smooth="yes"/>
			<point x="556" y="593"/>
			<point x="545" y="579"/>
			<point x="527" y="562" type="curve" smooth="yes"/>
			<point x="331" y="386" type="line" smooth="yes"/>
			<point x="303" y="361"/>
			<point x="275" y="344"/>
			<point x="228" y="347" type="curve"/>
		</contour>
	</outline>
	<anchor name="t.uni0302" x="455" y="740"/>
	<guideline x="410" y="407" angle="42.6368"/>
</glyph>
<glyph name="O" format="2">
	<unicode hex="004F"/>
	<advance width="668"/>
	<outline>
		<contour>
			<point x="87" y="238" type="curve" smooth="yes"/>
			<point x="87" y="82"/>
			<point x="188" y="-10"/>
			<point x="333" y="-10" type="curve" smooth="yes"/>
			<point x="550" y="-10"/>
			<point x="706" y="195"/>
			<point x="706" y="394" type="curve" smooth="yes"/>
			<point x="706" y="559"/>
			<point x="599" y="658"/>
			<point x="458" y="658" type="curve" smooth="yes"/>
			<point x="243" y="658"/>
			<point x="87" y="431"/>
		</contour>
		<contour>
			<point x="178" y="240" type="curve" smooth="yes"/>
			<point x="178" y="386"/>
			<point x="271" y="624"/>
			<point x="435" y="624" type="curve" smooth="yes"/>
			<point x="542" y="624"/>
			<point x="615" y="552"/>
			<point x="615" y="412" type="curve" smooth="yes"/>
			<point x="615" y="261"/>
			<point x="531" y="24"/>
			<point x="359" y="24" type="curve" smooth="yes"/>
			<point x="260" y="24"/>
			<point x="178" y="103"/>
		</contour>
	</outline>
	<anchor name="t.uni0302" x="490" y="740"/>
	<anchor name="b.uni0328" x="399" y="20"/>
</glyph>
<glyph name="P" format="2">
	<unicode hex="0050"/>
	<advance width="499"/>
	<outline>
		<contour>
			<point x="392" y="654" type="curve" smooth="yes"/>
			<point x="367" y="654"/>
			<point name=".hr01" x="305" y="645"/>
			<point x="266" y="645" type="curve" smooth="yes"/>
			<point x="225" y="645"/>
			<point x="185" y="646"/>
			<point x="144" y="647" type="curve"/>
			<point x="138" y="643"/>
			<point x="131" y="618"/>
			<point x="142" y="618" type="curve"/>
			<point x="179" y="616" type="line" smooth="yes"/>
			<point x="193" y="615"/>
			<point x="214" y="608"/>
			<point x="214" y="584" type="curve" smooth="yes"/>
			<point x="214" y="578"/>
			<point x="207" y="542"/>
			<point x="203" y="522" type="curve" smooth="yes"/>
			<point x="121" y="100" type="line" smooth="yes"/>
			<point x="112" y="56"/>
			<point x="79" y="31"/>
			<point x="29" y="27" type="curve"/>
			<point x="19" y="27"/>
			<point x="13" y="3"/>
			<point x="18" y="-2" type="curve"/>
			<point x="53" y="-1"/>
			<point x="101" y="0"/>
			<point x="141" y="0" type="curve" smooth="yes"/>
			<point x="179" y="0"/>
			<point x="227" y="-1"/>
			<point x="272" y="-2" type="curve"/>
			<point x="276" y="2"/>
			<point x="284" y="27"/>
			<point x="272" y="27" type="curve"/>
			<point x="240" y="28"/>
			<point x="185" y="31"/>
			<point x="193" y="71" type="curve" smooth="yes"/>
			<point x="281" y="522" type="line" smooth="yes"/>
			<point x="297" y="602"/>
			<point name=".hr02" x="315" y="620"/>
			<point x="378" y="620" type="curve" smooth="yes"/>
			<point x="435" y="620"/>
			<point x="489" y="602"/>
			<point x="489" y="520" type="curve" smooth="yes"/>
			<point x="489" y="406"/>
			<point x="431" y="316"/>
			<point x="309" y="316" type="curve" smooth="yes"/>
			<point x="262" y="316"/>
			<point x="245" y="319"/>
			<point x="215" y="329" type="curve"/>
			<point x="214" y="318"/>
			<point x="217" y="307"/>
			<point x="223" y="297" type="curve"/>
			<point x="250" y="286"/>
			<point x="266" y="282"/>
			<point x="307" y="282" type="curve" smooth="yes"/>
			<point x="442" y="282"/>
			<point x="574" y="375"/>
			<point x="574" y="518" type="curve" smooth="yes"/>
			<point x="574" y="577"/>
			<point x="540" y="654"/>
		</contour>
	</outline>
	<anchor name="t.uni0302" x="351" y="740"/>
</glyph>
<glyph name="T" format="2">
	<unicode hex="0054"/>
	<advance width="544"/>
	<outline>
		<contour>
			<point x="383" y="30" type="curve" smooth="yes"/>
			<point x="344" y="33"/>
			<point x="333" y="46"/>
			<point x="339" y="76" type="curve" smooth="yes"/>
			<point x="363" y="198"/>
			<point x="421" y="499"/>
			<point x="434" y="564" type="curve" smooth="yes"/>
			<point x="441" y="598"/>
			<point x="454" y="606"/>
			<point x="488" y="606" type="curve" smooth="yes"/>
			<point x="499" y="606"/>
			<point x="530" y="606"/>
			<point x="542" y="606" type="curve" smooth="yes"/>
			<point x="594" y="606"/>
			<point x="609" y="580"/>
			<point x="626" y="513" type="curve"/>
			<point x="636" y="513"/>
			<point x="644" y="513"/>
			<point x="656" y="518" type="curve"/>
			<point x="645" y="575"/>
			<point x="643" y="618"/>
			<point x="645" y="658" type="curve"/>
			<point x="612" y="653"/>
			<point x="599" y="645"/>
			<point x="563" y="645" type="curve" smooth="yes"/>
			<point x="229" y="645" type="line" smooth="yes"/>
			<point x="203" y="645"/>
			<point x="182" y="654"/>
			<point x="158" y="658" type="curve"/>
			<point x="145" y="609"/>
			<point x="133" y="581"/>
			<point x="111" y="528" type="curve"/>
			<point x="119" y="523"/>
			<point x="132" y="521"/>
			<point x="141" y="521" type="curve"/>
			<point x="170" y="586"/>
			<point x="195" y="606"/>
			<point x="248" y="606" type="curve" smooth="yes"/>
			<point x="264" y="606"/>
			<point x="306" y="606"/>
			<point x="317" y="606" type="curve" smooth="yes"/>
			<point x="356" y="606"/>
			<point x="362" y="596"/>
			<point x="357" y="567" type="curve" smooth="yes"/>
			<point x="343" y="493"/>
			<point x="287" y="204"/>
			<point x="262" y="76" type="curve" smooth="yes"/>
			<point x="256" y="48"/>
			<point x="241" y="34"/>
			<point x="200" y="30" type="curve"/>
			<point x="192" y="29"/>
			<point x="176" y="28"/>
			<point x="169" y="27" type="curve"/>
			<point x="165" y="23"/>
			<point x="163" y="7"/>
			<point x="167" y="-2" type="curve"/>
			<point x="212" y="-1"/>
			<point x="248" y="0"/>
			<point x="287" y="0" type="curve" smooth="yes"/>
			<point x="325" y="0"/>
			<point x="370" y="-1"/>
			<point x="414" y="-2" type="curve"/>
			<point x="417" y="2"/>
			<point x="420" y="22"/>
			<point x="417" y="27" type="curve"/>
			<point x="408" y="28"/>
			<point x="393" y="29"/>
		</contour>
	</outline>
</glyph>
<glyph name="U" format="2">
	<unicode hex="0055"/>
	<advance width="634"/>
	<outline>
		<contour>
			<point x="124" y="167" type="curve" smooth="yes"/>
			<point x="124" y="53"/>
			<point x="192" y="-10"/>
			<point x="304" y="-10" type="curve" smooth="yes"/>
			<point x="503" y="-10"/>
			<point x="570" y="121"/>
			<point x="604" y="296" type="curve" smooth="yes"/>
			<point x="655" y="554" type="line" smooth="yes"/>
			<point x="664" y="602"/>
			<point x="683" y="615"/>
			<point x="738" y="618" type="curve"/>
			<point x="742" y="626"/>
			<point x="744" y="637"/>
			<point x="743" y="647" type="curve"/>
			<point x="712" y="646"/>
			<point x="680" y="645"/>
			<point x="650" y="645" type="curve" smooth="yes"/>
			<point x="628" y="645"/>
			<point x="590" y="646"/>
			<point x="545" y="647" type="curve"/>
			<point x="539" y="637"/>
			<point x="537" y="628"/>
			<point x="539" y="618" type="curve"/>
			<point x="591" y="616"/>
			<point x="611" y="610"/>
			<point x="611" y="584" type="curve" smooth="yes"/>
			<point x="611" y="570"/>
			<point x="608" y="543"/>
			<point x="606" y="531" type="curve" smooth="yes"/>
			<point x="557" y="278" type="line"/>
			<point x="531" y="149"/>
			<point x="486" y="32"/>
			<point x="332" y="32" type="curve" smooth="yes"/>
			<point x="250" y="32"/>
			<point x="201" y="94"/>
			<point x="201" y="172" type="curve" smooth="yes"/>
			<point x="201" y="204"/>
			<point x="207" y="238"/>
			<point x="213" y="270" type="curve" smooth="yes"/>
			<point x="272" y="572" type="line" smooth="yes"/>
			<point x="277" y="600"/>
			<point x="302" y="614"/>
			<point x="366" y="618" type="curve"/>
			<point x="371" y="627"/>
			<point x="372" y="638"/>
			<point x="372" y="647" type="curve"/>
			<point x="331" y="646"/>
			<point x="288" y="645"/>
			<point x="247" y="645" type="curve" smooth="yes"/>
			<point x="209" y="645"/>
			<point x="172" y="646"/>
			<point x="128" y="647" type="curve"/>
			<point x="122" y="637"/>
			<point x="120" y="628"/>
			<point x="123" y="618" type="curve"/>
			<point x="174" y="614"/>
			<point x="194" y="609"/>
			<point x="194" y="585" type="curve" smooth="yes"/>
			<point x="194" y="576"/>
			<point x="191" y="549"/>
			<point x="187" y="532" type="curve"/>
			<point x="131" y="237" type="line" smooth="yes"/>
			<point x="126" y="211"/>
			<point x="124" y="188"/>
		</contour>
	</outline>
	<anchor name="t.uni0302" x="465" y="740"/>
</glyph>
<glyph name="bracketright" format="2">
	<unicode hex="005D"/>
	<advance width="334"/>
	<outline>
		<contour>
			<point x="368" y="689" type="line"/>
			<point x="153" y="689" type="line"/>
			<point x="152" y="683"/>
			<point x="147" y="651"/>
			<point x="146" y="646" type="curve"/>
			<point x="194" y="646"/>
			<point x="261" y="646"/>
			<point x="292" y="646" type="curve"/>
			<point x="151" y="-156" type="line"/>
			<point x="123" y="-156"/>
			<point x="48" y="-156"/>
			<point x="4" y="-156" type="curve"/>
			<point x="3" y="-162"/>
			<point x="-2" y="-195"/>
			<point x="-3" y="-200" type="curve"/>
			<point x="211" y="-200" type="line"/>
		</contour>
	</outline>
</glyph>
<glyph name="underscore" format="2">
	<unicode hex="005F"/>
	<advance width="486"/>
	<outline>
		<contour>
			<point x="463" y="-110" type="line"/>
			<point x="-15" y="-110" type="line"/>
			<point x="-22" y="-154" type="line"/>
			<point x="455" y="-154" type="line"/>
		</contour>
	</outline>
</glyph>
<glyph name="a" format="2">
	<unicode hex="0061"/>
	<advance width="486"/>
	<outline>
		<contour>
			<point x="467" y="439" type="curve" smooth="yes"/>
			<point x="463" y="439"/>
			<point x="457" y="438"/>
			<point x="450" y="436" type="curve"/>
			<point x="442" y="433"/>
			<point x="430" y="430"/>
			<point x="416" y="430" type="curve" smooth="yes"/>
			<point x="408" y="430"/>
			<point x="393" y="431"/>
			<point x="375" y="434" type="curve" smooth="yes"/>
			<point x="359" y="437"/>
			<point x="340" y="439"/>
			<point x="326" y="439" type="curve" smooth="yes"/>
			<point x="193" y="439"/>
			<point x="78" y="248"/>
			<point x="78" y="125" type="curve" smooth="yes"/>
			<point x="78" y="61"/>
			<point x="96" y="-10"/>
			<point x="166" y="-10" type="curve" smooth="yes"/>
			<point x="228" y="-10"/>
			<point x="284" y="45"/>
			<point x="344" y="134" type="curve"/>
			<point x="346" y="132" type="line"/>
			<point x="338" y="111" type="line" smooth="yes"/>
			<point x="330" y="90"/>
			<point x="323" y="58"/>
			<point x="323" y="39" type="curve" smooth="yes"/>
			<point x="323" y="11"/>
			<point x="337" y="-10"/>
			<point x="367" y="-10" type="curve" smooth="yes"/>
			<point x="411" y="-10"/>
			<point x="468" y="33"/>
			<point x="492" y="87" type="curve"/>
			<point x="487" y="96"/>
			<point x="482" y="103"/>
			<point x="469" y="103" type="curve"/>
			<point x="442" y="66"/>
			<point x="423" y="50"/>
			<point x="413" y="50" type="curve" smooth="yes"/>
			<point x="410" y="50"/>
			<point x="401" y="52"/>
			<point x="401" y="68" type="curve" smooth="yes"/>
			<point x="401" y="73"/>
			<point x="402" y="80"/>
			<point x="411" y="120" type="curve" smooth="yes"/>
			<point x="454" y="313" type="line" smooth="yes"/>
			<point x="466" y="365"/>
			<point x="470" y="385"/>
			<point x="481" y="425" type="curve"/>
			<point x="481" y="434"/>
			<point x="476" y="439"/>
		</contour>
		<contour>
			<point x="360" y="219" type="curve"/>
			<point x="340" y="183"/>
			<point x="250" y="45"/>
			<point x="197" y="45" type="curve" smooth="yes"/>
			<point x="160" y="45"/>
			<point x="158" y="110"/>
			<point x="158" y="141" type="curve" smooth="yes"/>
			<point x="158" y="226"/>
			<point x="229" y="408"/>
			<point x="334" y="408" type="curve" smooth="yes"/>
			<point x="355" y="408"/>
			<point x="376" y="401"/>
			<point x="395" y="389" type="curve"/>
			<point x="394" y="378"/>
			<point x="385" y="283"/>
		</contour>
	</outline>
	<anchor name="t.uni0302" x="382" y="500"/>
</glyph>
<glyph name="d" format="2">
	<unicode hex="0064"/>
	<advance width="489"/>
	<outline>
		<contour>
			<point x="442" y="563" type="curve" smooth="yes"/>
			<point x="405" y="383" type="line"/>
			<point x="404" y="383" type="line"/>
			<point x="392" y="413"/>
			<point x="363" y="439"/>
			<point x="320" y="439" type="curve" smooth="yes"/>
			<point x="218" y="439"/>
			<point x="81" y="290"/>
			<point x="81" y="130" type="curve" smooth="yes"/>
			<point x="81" y="79"/>
			<point x="95" y="-10"/>
			<point x="179" y="-10" type="curve" smooth="yes"/>
			<point x="235" y="-10"/>
			<point x="282" y="30"/>
			<point x="342" y="118" type="curve"/>
			<point x="345" y="116" type="line"/>
			<point x="338" y="90" type="line" smooth="yes"/>
			<point x="332" y="66"/>
			<point x="328" y="47"/>
			<point x="328" y="34" type="curve" smooth="yes"/>
			<point x="328" y="16"/>
			<point x="335" y="-10"/>
			<point x="378" y="-10" type="curve" smooth="yes"/>
			<point x="431" y="-10"/>
			<point x="471" y="30"/>
			<point x="497" y="87" type="curve"/>
			<point x="492" y="96"/>
			<point x="487" y="103"/>
			<point x="474" y="103" type="curve"/>
			<point x="447" y="66"/>
			<point x="428" y="50"/>
			<point x="418" y="50" type="curve" smooth="yes"/>
			<point x="415" y="50"/>
			<point x="406" y="52"/>
			<point x="406" y="64" type="curve" smooth="yes"/>
			<point x="406" y="69"/>
			<point x="407" y="82"/>
			<point x="416" y="120" type="curve" smooth="yes"/>
			<point x="522" y="583" type="line" smooth="yes"/>
			<point x="537" y="648"/>
			<point x="546" y="684"/>
			<point x="547" y="688" type="curve"/>
			<point x="547" y="695"/>
			<point x="544" y="698"/>
			<point x="535" y="698" type="curve"/>
			<point x="508" y="688"/>
			<point x="436" y="675"/>
			<point x="395" y="672" type="curve"/>
			<point x="390" y="663"/>
			<point x="388" y="653"/>
			<point x="391" y="643" type="curve"/>
			<point x="430" y="643"/>
			<point x="449" y="638"/>
			<point x="449" y="611" type="curve" smooth="yes"/>
			<point x="449" y="602"/>
			<point x="447" y="585"/>
		</contour>
		<contour>
			<point x="201" y="36" type="curve" smooth="yes"/>
			<point x="168" y="36"/>
			<point x="161" y="94"/>
			<point x="161" y="150" type="curve" smooth="yes"/>
			<point x="161" y="255"/>
			<point x="236" y="402"/>
			<point x="328" y="402" type="curve" smooth="yes"/>
			<point x="366" y="402"/>
			<point x="391" y="350"/>
			<point x="391" y="319" type="curve" smooth="yes"/>
			<point x="391" y="248"/>
			<point x="265" y="36"/>
		</contour>
	</outline>
</glyph>
<glyph name="e" format="2">
	<unicode hex="0065"/>
	<advance width="401"/>
	<outline>
		<contour>
			<point x="167" y="199" type="curve"/>
			<point x="424" y="249"/>
			<point x="424" y="325"/>
			<point x="424" y="363" type="curve" smooth="yes"/>
			<point x="424" y="414"/>
			<point x="374" y="439"/>
			<point x="329" y="439" type="curve" smooth="yes"/>
			<point x="155" y="439"/>
			<point x="83" y="269"/>
			<point x="83" y="148" type="curve" smooth="yes"/>
			<point x="83" y="57"/>
			<point x="123" y="-10"/>
			<point x="210" y="-10" type="curve" smooth="yes"/>
			<point x="273" y="-10"/>
			<point x="334" y="25"/>
			<point x="393" y="101" type="curve"/>
			<point x="388" y="112"/>
			<point x="382" y="117"/>
			<point x="370" y="117" type="curve"/>
			<point x="313" y="59"/>
			<point x="290" y="50"/>
			<point x="242" y="50" type="curve" smooth="yes"/>
			<point x="197" y="50"/>
			<point x="166" y="74"/>
			<point x="166" y="165" type="curve" smooth="yes"/>
			<point x="166" y="170"/>
			<point x="166" y="191"/>
		</contour>
		<contour>
			<point x="355" y="368" type="curve" smooth="yes"/>
			<point x="355" y="280"/>
			<point x="250" y="247"/>
			<point x="174" y="237" type="curve"/>
			<point x="209" y="379"/>
			<point x="264" y="408"/>
			<point x="314" y="408" type="curve" smooth="yes"/>
			<point x="342" y="408"/>
			<point x="355" y="399"/>
		</contour>
	</outline>
	<anchor name="t.uni0302" x="329" y="500"/>
</glyph>
<glyph name="f" format="2">
	<unicode hex="0066"/>
	<advance width="314"/>
	<outline>
		<contour>
			<point x="188" y="390" type="line"/>
			<point x="168" y="276"/>
			<point x="157" y="216"/>
			<point x="147" y="141" type="curve" smooth="yes"/>
			<point x="135" y="51"/>
			<point x="118" y="-92"/>
			<point x="88" y="-159" type="curve"/>
			<point x="85" y="-165"/>
			<point x="82" y="-170"/>
			<point x="79" y="-175" type="curve"/>
			<point x="68" y="-192"/>
			<point x="48" y="-205"/>
			<point x="33" y="-205" type="curve" smooth="yes"/>
			<point x="19" y="-205"/>
			<point x="15" y="-198"/>
			<point x="9" y="-188" type="curve"/>
			<point x="0" y="-175"/>
			<point x="-19" y="-156"/>
			<point x="-41" y="-156" type="curve" smooth="yes"/>
			<point x="-69" y="-156"/>
			<point x="-78" y="-175"/>
			<point x="-78" y="-192" type="curve" smooth="yes"/>
			<point x="-78" y="-214"/>
			<point x="-54" y="-238"/>
			<point x="14" y="-238" type="curve" smooth="yes"/>
			<point x="55" y="-238"/>
			<point x="99" y="-218"/>
			<point x="130" y="-175" type="curve"/>
			<point x="132" y="-172"/>
			<point x="135" y="-168"/>
			<point x="137" y="-164" type="curve"/>
			<point x="162" y="-122"/>
			<point x="183" y="-43"/>
			<point x="219" y="130" type="curve" smooth="yes"/>
			<point x="235" y="208"/>
			<point x="251" y="289"/>
			<point x="266" y="373" type="curve" smooth="yes"/>
			<point x="269" y="390" type="line"/>
			<point x="362" y="390" type="line" smooth="yes"/>
			<point x="371" y="390"/>
			<point x="386" y="394"/>
			<point name=".hr01" x="388" y="402" type="curve"/>
			<point x="388" y="402"/>
			<point x="393" y="423"/>
			<point x="393" y="424" type="curve"/>
			<point x="393" y="427"/>
			<point x="391" y="429"/>
			<point x="386" y="429" type="curve" smooth="yes"/>
			<point x="276" y="429" type="line"/>
			<point x="287" y="486" type="line" smooth="yes"/>
			<point x="294" y="524"/>
			<point x="305" y="558"/>
			<point x="317" y="585" type="curve"/>
			<point x="339" y="640"/>
			<point x="374" y="660"/>
			<point x="393" y="664" type="curve"/>
			<point x="396" y="665"/>
			<point x="398" y="665"/>
			<point x="400" y="665" type="curve" smooth="yes"/>
			<point x="423" y="665"/>
			<point x="434" y="660"/>
			<point x="439" y="639" type="curve"/>
			<point x="443" y="617"/>
			<point x="451" y="590"/>
			<point x="485" y="590" type="curve" smooth="yes"/>
			<point x="516" y="590"/>
			<point x="523" y="614"/>
			<point x="523" y="624" type="curve" smooth="yes"/>
			<point x="523" y="664"/>
			<point x="479" y="698"/>
			<point x="408" y="698" type="curve" smooth="yes"/>
			<point x="403" y="698"/>
			<point x="397" y="698"/>
			<point x="390" y="696" type="curve"/>
			<point x="358" y="691"/>
			<point x="311" y="674"/>
			<point x="277" y="634" type="curve"/>
			<point x="277" y="634"/>
			<point x="277" y="634"/>
			<point x="277" y="634" type="curve"/>
			<point x="242" y="593"/>
			<point x="216" y="516"/>
			<point x="198" y="429" type="curve"/>
			<point x="132" y="426" type="line" smooth="yes"/>
			<point x="113" y="425"/>
			<point x="106" y="417"/>
			<point x="104" y="409" type="curve"/>
			<point x="103" y="406"/>
			<point x="100" y="394"/>
			<point x="100" y="392" type="curve" smooth="yes"/>
			<point name=".hr02" x="100" y="390"/>
			<point x="103" y="390"/>
			<point x="106" y="390" type="curve" smooth="yes"/>
		</contour>
	</outline>
</glyph>
<glyph name="g" format="2">
	<unicode hex="0067"/>
	<advance width="477"/>
	<outline>
		<contour>
			<point x="415" y="291" type="curve" smooth="yes"/>
			<point x="415" y="318"/>
			<point x="409" y="354"/>
			<point x="395" y="374" type="curve"/>
			<point x="410" y="388"/>
			<point x="435" y="399"/>
			<point x="442" y="399" type="curve" smooth="yes"/>
			<point x="451" y="399"/>
			<point x="454" y="394"/>
			<point x="457" y="389" type="curve" smooth="yes"/>
			<point x="462" y="381"/>
			<point x="469" y="372"/>
			<point x="485" y="372" type="curve" smooth="yes"/>
			<point x="503" y="372"/>
			<point x="516" y="386"/>
			<point x="516" y="405" type="curve" smooth="yes"/>
			<point x="516" y="423"/>
			<point x="500" y="439"/>
			<point x="477" y="439" type="curve" smooth="yes"/>
			<point x="451" y="439"/>
			<point x="413" y="429"/>
			<point x="378" y="397" type="curve"/>
			<point x="356" y="423"/>
			<point x="324" y="439"/>
			<point x="280" y="439" type="curve" smooth="yes"/>
			<point x="168" y="439"/>
			<point x="124" y="363"/>
			<point x="124" y="283" type="curve"/>
			<point x="124" y="283"/>
			<point x="124" y="283"/>
			<point x="124" y="283" type="curve"/>
			<point x="124" y="239"/>
			<point x="143" y="197"/>
			<point x="170" y="165" type="curve"/>
			<point x="145" y="139"/>
			<point name=".hr01" x="116" y="91"/>
			<point x="116" y="56" type="curve"/>
			<point x="116" y="56"/>
			<point x="116" y="56"/>
			<point x="116" y="56" type="curve"/>
			<point x="116" y="46"/>
			<point x="116" y="23"/>
			<point x="142" y="8" type="curve"/>
			<point x="89" y="-21"/>
			<point x="7" y="-76"/>
			<point x="7" y="-136" type="curve" smooth="yes"/>
			<point x="7" y="-217"/>
			<point x="118" y="-238"/>
			<point x="199" y="-238" type="curve" smooth="yes"/>
			<point x="336" y="-238"/>
			<point x="427" y="-199"/>
			<point x="427" y="-100" type="curve" smooth="yes"/>
			<point x="427" y="-35"/>
			<point x="379" y="-2"/>
			<point x="325" y="14" type="curve"/>
			<point x="319" y="16"/>
			<point x="313" y="18"/>
			<point x="307" y="19" type="curve"/>
			<point x="240" y="37"/>
			<point x="182" y="43"/>
			<point x="173" y="78" type="curve"/>
			<point x="172" y="81"/>
			<point x="172" y="84"/>
			<point x="172" y="88" type="curve" smooth="yes"/>
			<point x="172" y="108"/>
			<point x="186" y="132"/>
			<point x="195" y="149" type="curve"/>
			<point x="211" y="139"/>
			<point x="235" y="132"/>
			<point x="263" y="132" type="curve" smooth="yes"/>
			<point x="350" y="132"/>
			<point name=".hr02" x="415" y="192"/>
		</contour>
		<contour>
			<point x="161" y="-3" type="curve"/>
			<point x="179" y="-7"/>
			<point x="249" y="-29"/>
			<point x="282" y="-44" type="curve" smooth="yes"/>
			<point x="289" y="-47"/>
			<point x="296" y="-50"/>
			<point x="302" y="-54" type="curve"/>
			<point x="344" y="-76"/>
			<point x="362" y="-96"/>
			<point name=".hr03" x="362" y="-127" type="curve" smooth="yes"/>
			<point x="362" y="-165"/>
			<point x="328" y="-205"/>
			<point x="240" y="-205" type="curve" smooth="yes"/>
			<point x="128" y="-205"/>
			<point x="74" y="-168"/>
			<point x="74" y="-113" type="curve" smooth="yes"/>
			<point x="74" y="-65"/>
			<point x="136" y="-21"/>
		</contour>
		<contour>
			<point x="341" y="291" type="curve" smooth="yes"/>
			<point x="341" y="284"/>
			<point name=".hr04" x="341" y="276"/>
			<point x="340" y="269" type="curve"/>
			<point x="337" y="214"/>
			<point x="321" y="162"/>
			<point x="268" y="162" type="curve" smooth="yes"/>
			<point x="215" y="162"/>
			<point x="201" y="217"/>
			<point x="199" y="263" type="curve"/>
			<point x="198" y="270"/>
			<point x="198" y="276"/>
			<point x="198" y="282" type="curve" smooth="yes"/>
			<point x="198" y="290"/>
			<point x="198" y="298"/>
			<point x="199" y="305" type="curve"/>
			<point x="201" y="366"/>
			<point x="217" y="409"/>
			<point x="276" y="409" type="curve" smooth="yes"/>
			<point x="319" y="409"/>
			<point x="341" y="359"/>
		</contour>
	</outline>
	<anchor name="t.uni0302" x="322" y="500"/>
</glyph>
<glyph name="h" format="2">
	<unicode hex="0068"/>
	<advance width="519"/>
	<outline>
		<contour>
			<point x="166" y="24" type="curve" smooth="yes"/>
			<point x="291" y="583" type="line" smooth="yes"/>
			<point x="303" y="638"/>
			<point x="308" y="659"/>
			<point x="316" y="688" type="curve"/>
			<point x="316" y="695"/>
			<point x="313" y="698"/>
			<point x="304" y="698" type="curve"/>
			<point x="262" y="684"/>
			<point x="208" y="676"/>
			<point x="164" y="672" type="curve"/>
			<point x="160" y="665"/>
			<point x="157" y="653"/>
			<point x="159" y="643" type="curve"/>
			<point x="201" y="639"/>
			<point x="218" y="629"/>
			<point x="218" y="609" type="curve" smooth="yes"/>
			<point x="218" y="602"/>
			<point x="216" y="585"/>
			<point x="211" y="563" type="curve" smooth="yes"/>
			<point x="90" y="22" type="line" smooth="yes"/>
			<point x="87" y="9"/>
			<point x="99" y="0"/>
			<point x="108" y="0" type="curve" smooth="yes"/>
			<point x="136" y="0" type="line" smooth="yes"/>
			<point x="151" y="0"/>
			<point x="163" y="9"/>
		</contour>
		<contour>
			<point x="202" y="222" type="line"/>
			<point x="230" y="260"/>
			<point x="324" y="379"/>
			<point x="385" y="379" type="curve" smooth="yes"/>
			<point x="399" y="379"/>
			<point x="413" y="373"/>
			<point x="413" y="340" type="curve" smooth="yes"/>
			<point x="413" y="328"/>
			<point x="411" y="309"/>
			<point x="403" y="275" type="curve" smooth="yes"/>
			<point x="365" y="115" type="line" smooth="yes"/>
			<point x="357" y="83"/>
			<point x="348" y="42"/>
			<point x="348" y="23" type="curve" smooth="yes"/>
			<point x="348" y="4"/>
			<point x="359" y="-10"/>
			<point x="389" y="-10" type="curve" smooth="yes"/>
			<point x="437" y="-10"/>
			<point x="482" y="24"/>
			<point x="528" y="83" type="curve"/>
			<point x="525" y="92"/>
			<point x="519" y="100"/>
			<point x="505" y="100" type="curve"/>
			<point x="479" y="70"/>
			<point x="450" y="50"/>
			<point x="439" y="50" type="curve" smooth="yes"/>
			<point x="433" y="50"/>
			<point x="430" y="55"/>
			<point x="430" y="64" type="curve" smooth="yes"/>
			<point x="430" y="76"/>
			<point x="435" y="98"/>
			<point x="441" y="124" type="curve" smooth="yes"/>
			<point x="479" y="283" type="line" smooth="yes"/>
			<point x="487" y="318"/>
			<point x="492" y="341"/>
			<point x="492" y="364" type="curve" smooth="yes"/>
			<point x="492" y="419"/>
			<point x="463" y="439"/>
			<point x="422" y="439" type="curve" smooth="yes"/>
			<point x="372" y="439"/>
			<point x="309" y="408"/>
			<point x="213" y="292" type="curve"/>
		</contour>
	</outline>
</glyph>
<glyph name="k" format="2">
	<unicode hex="006B"/>
	<advance width="486"/>
	<outline>
		<contour>
			<point x="163" y="72" type="curve" smooth="yes"/>
			<point x="199" y="234" type="line"/>
			<point x="207" y="237"/>
			<point x="214" y="237"/>
			<point x="221" y="237" type="curve" smooth="yes"/>
			<point x="229" y="237"/>
			<point x="236" y="230"/>
			<point x="241" y="221" type="curve" smooth="yes"/>
			<point x="259" y="189"/>
			<point x="270" y="138"/>
			<point x="290" y="93" type="curve" smooth="yes"/>
			<point x="320" y="27"/>
			<point x="344" y="-5"/>
			<point x="379" y="-9" type="curve"/>
			<point x="382" y="-10"/>
			<point x="386" y="-10"/>
			<point x="389" y="-10" type="curve" smooth="yes"/>
			<point x="423" y="-10"/>
			<point x="458" y="21"/>
			<point x="490" y="77" type="curve"/>
			<point x="483" y="85"/>
			<point x="479" y="90"/>
			<point x="468" y="90" type="curve"/>
			<point x="448" y="61"/>
			<point x="427" y="42"/>
			<point x="416" y="42" type="curve" smooth="yes"/>
			<point x="401" y="42"/>
			<point x="393" y="54"/>
			<point x="386" y="68" type="curve" smooth="yes"/>
			<point x="384" y="72"/>
			<point x="382" y="76"/>
			<point x="380" y="80" type="curve" smooth="yes"/>
			<point x="357" y="125"/>
			<point x="344" y="159"/>
			<point x="333" y="186" type="curve"/>
			<point x="330" y="191"/>
			<point x="328" y="197"/>
			<point x="325" y="202" type="curve"/>
			<point x="309" y="233"/>
			<point x="303" y="247"/>
			<point x="270" y="256" type="curve"/>
			<point x="270" y="260" type="line"/>
			<point x="322" y="306" type="line" smooth="yes"/>
			<point x="333" y="316"/>
			<point x="343" y="324"/>
			<point x="352" y="332" type="curve"/>
			<point x="383" y="357"/>
			<point x="402" y="368"/>
			<point x="418" y="368" type="curve" smooth="yes"/>
			<point x="428" y="368"/>
			<point x="434" y="366"/>
			<point x="439" y="363" type="curve"/>
			<point x="447" y="359"/>
			<point name=".hr01" x="454" y="354"/>
			<point x="474" y="354" type="curve" smooth="yes"/>
			<point x="486" y="354"/>
			<point x="510" y="367"/>
			<point x="518" y="390" type="curve"/>
			<point x="519" y="394"/>
			<point x="520" y="399"/>
			<point x="520" y="404" type="curve" smooth="yes"/>
			<point x="520" y="432"/>
			<point x="498" y="439"/>
			<point x="471" y="439" type="curve" smooth="yes"/>
			<point x="439" y="439"/>
			<point x="378" y="401"/>
			<point x="306" y="337" type="curve"/>
			<point x="274" y="310" type="line"/>
			<point x="271" y="308"/>
			<point x="269" y="305"/>
			<point x="266" y="303" type="curve"/>
			<point x="249" y="288"/>
			<point x="228" y="272"/>
			<point x="207" y="272" type="curve"/>
			<point x="279" y="583" type="line" smooth="yes"/>
			<point x="289" y="626"/>
			<point x="297" y="659"/>
			<point x="301" y="675" type="curve"/>
			<point x="303" y="684"/>
			<point x="304" y="688"/>
			<point x="304" y="688" type="curve"/>
			<point x="304" y="695"/>
			<point x="301" y="698"/>
			<point x="292" y="698" type="curve"/>
			<point x="290" y="697"/>
			<point x="287" y="696"/>
			<point x="284" y="695" type="curve"/>
			<point x="252" y="686"/>
			<point x="189" y="675"/>
			<point x="152" y="672" type="curve"/>
			<point x="151" y="664"/>
			<point x="150" y="656"/>
			<point x="149" y="648" type="curve"/>
			<point x="149" y="647"/>
			<point x="149" y="645"/>
			<point x="150" y="644" type="curve"/>
			<point x="151" y="644"/>
			<point x="152" y="643"/>
			<point x="154" y="643" type="curve"/>
			<point x="164" y="642"/>
			<point x="175" y="642"/>
			<point x="185" y="641" type="curve"/>
			<point x="198" y="641"/>
			<point x="206" y="635"/>
			<point x="206" y="613" type="curve" smooth="yes"/>
			<point x="206" y="602"/>
			<point x="204" y="585"/>
			<point x="199" y="563" type="curve" smooth="yes"/>
			<point x="89" y="72" type="line" smooth="yes"/>
			<point x="84" y="52"/>
			<point x="76" y="27"/>
			<point x="76" y="17" type="curve" smooth="yes"/>
			<point x="76" y="1"/>
			<point x="85" y="-10"/>
			<point x="117" y="-10" type="curve"/>
			<point x="117" y="-10"/>
			<point x="117" y="-10"/>
			<point x="117" y="-10" type="curve"/>
			<point x="155" y="-10"/>
			<point x="155" y="35"/>
		</contour>
	</outline>
	<anchor name="t.uni0302" x="422" y="700"/>
</glyph>
<glyph name="l" format="2">
	<unicode hex="006C"/>
	<advance width="266"/>
	<outline>
		<contour>
			<point x="206" y="563" type="curve" smooth="yes"/>
			<point x="107" y="119" type="line" smooth="yes"/>
			<point x="101" y="92"/>
			<point x="93" y="50"/>
			<point x="93" y="34" type="curve" smooth="yes"/>
			<point x="93" y="15"/>
			<point x="98" y="-10"/>
			<point x="135" y="-10" type="curve" smooth="yes"/>
			<point x="180" y="-10"/>
			<point x="235" y="16"/>
			<point x="280" y="91" type="curve"/>
			<point x="276" y="101"/>
			<point x="271" y="108"/>
			<point x="258" y="108" type="curve"/>
			<point x="228" y="72"/>
			<point x="196" y="50"/>
			<point x="184" y="50" type="curve" smooth="yes"/>
			<point x="176" y="50"/>
			<point x="172" y="56"/>
			<point x="172" y="64" type="curve" smooth="yes"/>
			<point x="172" y="72"/>
			<point x="175" y="87"/>
			<point x="184" y="127" type="curve" smooth="yes"/>
			<point x="286" y="583" type="line" smooth="yes"/>
			<point x="298" y="638"/>
			<point x="303" y="659"/>
			<point name=".hr01" x="311" y="688" type="curve"/>
			<point x="311" y="695"/>
			<point x="308" y="698"/>
			<point x="299" y="698" type="curve"/>
			<point x="257" y="684"/>
			<point x="203" y="676"/>
			<point x="159" y="672" type="curve"/>
			<point x="155" y="665"/>
			<point x="152" y="653"/>
			<point x="154" y="643" type="curve"/>
			<point x="196" y="639"/>
			<point x="213" y="629"/>
			<point x="213" y="613" type="curve" smooth="yes"/>
			<point x="213" y="602"/>
			<point x="211" y="585"/>
		</contour>
	</outline>
</glyph>
<glyph name="m" format="2">
	<unicode hex="006D"/>
	<advance width="783"/>
	<outline>
		<contour>
			<point x="183" y="321" type="curve" smooth="yes"/>
			<point x="126" y="72" type="line" smooth="yes"/>
			<point x="116" y="29"/>
			<point x="114" y="20"/>
			<point x="114" y="12" type="curve" smooth="yes"/>
			<point x="114" y="-1"/>
			<point x="122" y="-10"/>
			<point x="153" y="-10" type="curve" smooth="yes"/>
			<point x="176" y="-10"/>
			<point x="181" y="-5"/>
			<point x="200" y="72" type="curve" smooth="yes"/>
			<point x="240" y="233" type="line"/>
			<point x="318" y="346"/>
			<point x="374" y="379"/>
			<point x="408" y="379" type="curve" smooth="yes"/>
			<point x="432" y="379"/>
			<point x="432" y="362"/>
			<point x="432" y="342" type="curve" smooth="yes"/>
			<point x="432" y="330"/>
			<point x="431" y="306"/>
			<point x="424" y="275" type="curve" smooth="yes"/>
			<point x="376" y="72" type="line" smooth="yes"/>
			<point x="366" y="29"/>
			<point x="364" y="20"/>
			<point x="364" y="14" type="curve" smooth="yes"/>
			<point x="364" y="1"/>
			<point x="372" y="-10"/>
			<point x="395" y="-10" type="curve" smooth="yes"/>
			<point x="429" y="-10"/>
			<point x="432" y="-5"/>
			<point x="450" y="72" type="curve" smooth="yes"/>
			<point x="487" y="229" type="line"/>
			<point x="518" y="276"/>
			<point x="587" y="379"/>
			<point x="647" y="379" type="curve" smooth="yes"/>
			<point x="663" y="379"/>
			<point x="673" y="372"/>
			<point x="673" y="341" type="curve" smooth="yes"/>
			<point x="673" y="331"/>
			<point x="672" y="302"/>
			<point x="664" y="271" type="curve" smooth="yes"/>
			<point x="625" y="114" type="line" smooth="yes"/>
			<point x="611" y="58"/>
			<point x="607" y="38"/>
			<point x="607" y="27" type="curve" smooth="yes"/>
			<point x="607" y="1"/>
			<point x="625" y="-10"/>
			<point x="648" y="-10" type="curve" smooth="yes"/>
			<point x="704" y="-10"/>
			<point x="757" y="23"/>
			<point x="789" y="101" type="curve"/>
			<point x="787" y="110"/>
			<point x="780" y="115"/>
			<point x="767" y="115" type="curve"/>
			<point x="743" y="77"/>
			<point x="715" y="50"/>
			<point x="700" y="50" type="curve" smooth="yes"/>
			<point x="693" y="50"/>
			<point x="690" y="56"/>
			<point x="690" y="66" type="curve" smooth="yes"/>
			<point x="690" y="71"/>
			<point x="691" y="83"/>
			<point x="696" y="101" type="curve" smooth="yes"/>
			<point x="742" y="279" type="line" smooth="yes"/>
			<point x="748" y="302"/>
			<point x="752" y="333"/>
			<point x="752" y="354" type="curve" smooth="yes"/>
			<point x="752" y="415"/>
			<point x="719" y="439"/>
			<point x="681" y="439" type="curve" smooth="yes"/>
			<point x="629" y="439"/>
			<point x="569" y="396"/>
			<point x="504" y="305" type="curve"/>
			<point x="507" y="321"/>
			<point x="508" y="339"/>
			<point x="508" y="352" type="curve" smooth="yes"/>
			<point x="508" y="422"/>
			<point x="478" y="439"/>
			<point x="442" y="439" type="curve" smooth="yes"/>
			<point x="369" y="439"/>
			<point x="302" y="370"/>
			<point x="255" y="310" type="curve"/>
			<point x="253" y="311" type="line"/>
			<point x="261" y="334"/>
			<point x="278" y="393"/>
			<point x="278" y="415" type="curve" smooth="yes"/>
			<point x="278" y="429"/>
			<point name=".hr01" x="270" y="436"/>
			<point x="257" y="436" type="curve" smooth="yes"/>
			<point x="225" y="436"/>
			<point x="180" y="430"/>
			<point x="133" y="423" type="curve"/>
			<point x="126" y="415"/>
			<point x="128" y="404"/>
			<point x="134" y="395" type="curve"/>
			<point x="174" y="392" type="line" smooth="yes"/>
			<point x="186" y="391"/>
			<point x="192" y="382"/>
			<point x="192" y="371" type="curve" smooth="yes"/>
			<point x="192" y="363"/>
			<point x="189" y="349"/>
		</contour>
	</outline>
</glyph>
<glyph name="o" format="2">
	<unicode hex="006F"/>
	<advance width="447"/>
	<outline>
		<contour>
			<point x="78" y="162" type="curve" smooth="yes"/>
			<point x="78" y="109"/>
			<point x="91" y="-10"/>
			<point x="218" y="-10" type="curve" smooth="yes"/>
			<point x="367" y="-10"/>
			<point x="465" y="137"/>
			<point x="465" y="277" type="curve" smooth="yes"/>
			<point x="465" y="349"/>
			<point x="447" y="439"/>
			<point x="324" y="439" type="curve" smooth="yes"/>
			<point x="174" y="439"/>
			<point x="78" y="305"/>
		</contour>
		<contour>
			<point x="161" y="170" type="curve" smooth="yes"/>
			<point x="161" y="260"/>
			<point x="200" y="406"/>
			<point x="306" y="406" type="curve" smooth="yes"/>
			<point x="373" y="406"/>
			<point x="382" y="319"/>
			<point x="382" y="270" type="curve" smooth="yes"/>
			<point x="382" y="177"/>
			<point x="353" y="27"/>
			<point x="233" y="27" type="curve" smooth="yes"/>
			<point x="204" y="27"/>
			<point x="161" y="65"/>
		</contour>
	</outline>
	<anchor name="t.uni0302" x="333" y="500"/>
	<anchor name="b.uni0328" x="289" y="27"/>
	<guideline x="0" y="500" angle="0"/>
	<guideline x="228" y="3" angle="78"/>
</glyph>
<glyph name="s" format="2">
	<unicode hex="0073"/>
	<advance width="353"/>
	<outline>
		<contour>
			<point x="257" y="439" type="curve" smooth="yes"/>
			<point x="183" y="439"/>
			<point x="123" y="382"/>
			<point x="123" y="312" type="curve" smooth="yes"/>
			<point x="123" y="272"/>
			<point x="144" y="235"/>
			<point x="184" y="206" type="curve" smooth="yes"/>
			<point x="210" y="187" type="line" smooth="yes"/>
			<point x="250" y="157"/>
			<point x="270" y="127"/>
			<point x="270" y="92" type="curve" smooth="yes"/>
			<point x="270" y="49"/>
			<point x="239" y="23"/>
			<point x="186" y="23" type="curve" smooth="yes"/>
			<point x="157" y="23"/>
			<point x="146" y="31"/>
			<point x="143" y="53" type="curve" smooth="yes"/>
			<point x="139" y="82"/>
			<point x="119" y="103"/>
			<point x="95" y="103" type="curve" smooth="yes"/>
			<point x="74" y="103"/>
			<point x="59" y="88"/>
			<point x="59" y="66" type="curve" smooth="yes"/>
			<point x="59" y="23"/>
			<point x="119" y="-10"/>
			<point x="192" y="-10" type="curve" smooth="yes"/>
			<point x="283" y="-10"/>
			<point x="346" y="42"/>
			<point x="346" y="115" type="curve" smooth="yes"/>
			<point x="346" y="165"/>
			<point x="318" y="208"/>
			<point x="258" y="250" type="curve" smooth="yes"/>
			<point x="227" y="272" type="line" smooth="yes"/>
			<point x="199" y="292"/>
			<point x="187" y="309"/>
			<point x="187" y="336" type="curve" smooth="yes"/>
			<point x="187" y="377"/>
			<point x="214" y="406"/>
			<point x="253" y="406" type="curve" smooth="yes"/>
			<point x="277" y="406"/>
			<point x="292" y="395"/>
			<point x="295" y="373" type="curve" smooth="yes"/>
			<point x="299" y="347"/>
			<point x="320" y="325"/>
			<point x="344" y="325" type="curve" smooth="yes"/>
			<point x="363" y="325"/>
			<point x="377" y="338"/>
			<point x="377" y="358" type="curve" smooth="yes"/>
			<point x="377" y="399"/>
			<point x="318" y="439"/>
		</contour>
	</outline>
	<anchor name="t.uni0302" x="273" y="500"/>
</glyph>
<glyph name="u" format="2">
	<unicode hex="0075"/>
	<advance width="521"/>
	<outline>
		<contour>
			<point x="415" y="268" type="line"/>
			<point x="371" y="175"/>
			<point x="285" y="50"/>
			<point x="229" y="50" type="curve" smooth="yes"/>
			<point x="211" y="50"/>
			<point x="199" y="60"/>
			<point x="199" y="91" type="curve" smooth="yes"/>
			<point x="199" y="103"/>
			<point x="201" y="124"/>
			<point x="208" y="151" type="curve" smooth="yes"/>
			<point x="262" y="357" type="line" smooth="yes"/>
			<point x="271" y="393"/>
			<point x="273" y="403"/>
			<point x="273" y="410" type="curve" smooth="yes"/>
			<point x="273" y="425"/>
			<point x="266" y="439"/>
			<point x="236" y="439" type="curve" smooth="yes"/>
			<point x="188" y="439"/>
			<point x="131" y="405"/>
			<point x="85" y="346" type="curve"/>
			<point x="88" y="337"/>
			<point x="94" y="329"/>
			<point x="108" y="329" type="curve"/>
			<point x="134" y="359"/>
			<point x="167" y="379"/>
			<point x="178" y="379" type="curve" smooth="yes"/>
			<point x="184" y="379"/>
			<point x="187" y="374"/>
			<point x="187" y="367" type="curve" smooth="yes"/>
			<point x="187" y="358"/>
			<point x="181" y="331"/>
			<point x="174" y="305" type="curve" smooth="yes"/>
			<point x="133" y="150" type="line"/>
			<point x="127" y="124"/>
			<point x="120" y="98"/>
			<point x="120" y="71" type="curve" smooth="yes"/>
			<point x="120" y="13"/>
			<point x="152" y="-10"/>
			<point x="195" y="-10" type="curve" smooth="yes"/>
			<point x="284" y="-10"/>
			<point x="353" y="90"/>
			<point x="398" y="174" type="curve"/>
		</contour>
		<contour>
			<point x="389" y="154" type="line"/>
			<point x="375" y="115"/>
			<point x="361" y="71"/>
			<point x="361" y="29" type="curve" smooth="yes"/>
			<point x="361" y="4"/>
			<point x="368" y="-10"/>
			<point x="398" y="-10" type="curve" smooth="yes"/>
			<point x="446" y="-10"/>
			<point x="491" y="24"/>
			<point x="537" y="83" type="curve"/>
			<point x="534" y="92"/>
			<point x="528" y="100"/>
			<point x="514" y="100" type="curve"/>
			<point x="488" y="70"/>
			<point x="459" y="50"/>
			<point x="448" y="50" type="curve" smooth="yes"/>
			<point x="442" y="50"/>
			<point x="439" y="55"/>
			<point x="439" y="64" type="curve" smooth="yes"/>
			<point x="439" y="76"/>
			<point x="444" y="98"/>
			<point x="450" y="124" type="curve" smooth="yes"/>
			<point x="506" y="349" type="line" smooth="yes"/>
			<point x="511" y="369"/>
			<point x="519" y="402"/>
			<point x="519" y="415" type="curve" smooth="yes"/>
			<point x="519" y="429"/>
			<point x="509" y="439"/>
			<point x="486" y="439" type="curve" smooth="yes"/>
			<point x="453" y="439"/>
			<point x="439" y="389"/>
			<point x="431" y="357" type="curve" smooth="yes"/>
			<point x="379" y="159" type="line"/>
		</contour>
	</outline>
	<anchor name="t.uni0302" x="386" y="500"/>
	<guideline x="431" y="357" angle="255.231"/>
	<guideline x="450" y="124" angle="76.2005"/>
	<guideline x="208" y="151" angle="75.2218"/>
</glyph>
<glyph name="v" format="2">
	<unicode hex="0076"/>
	<advance width="472"/>
	<outline>
		<contour>
			<point x="305" y="76" type="line"/>
			<point x="273" y="294" type="line"/>
			<point x="272" y="299"/>
			<point x="272" y="304"/>
			<point x="271" y="309" type="curve"/>
			<point x="260" y="385"/>
			<point x="249" y="424"/>
			<point x="226" y="435" type="curve"/>
			<point x="221" y="438"/>
			<point x="215" y="439"/>
			<point x="208" y="439" type="curve" smooth="yes"/>
			<point x="175" y="439"/>
			<point x="117" y="380"/>
			<point x="82" y="327" type="curve"/>
			<point x="84" y="317"/>
			<point x="92" y="310"/>
			<point x="103" y="309" type="curve"/>
			<point x="131" y="336"/>
			<point x="154" y="357"/>
			<point x="173" y="357" type="curve" smooth="yes"/>
			<point x="183" y="357"/>
			<point x="188" y="340"/>
			<point x="196" y="296" type="curve" smooth="yes"/>
			<point x="238" y="52" type="line" smooth="yes"/>
			<point x="246" y="8"/>
			<point x="256" y="-12"/>
			<point x="270" y="-12" type="curve" smooth="yes"/>
			<point x="281" y="-12"/>
			<point x="294" y="4"/>
			<point x="313" y="25" type="curve" smooth="yes"/>
			<point x="344" y="59"/>
			<point x="382" y="107"/>
			<point x="397" y="128" type="curve" smooth="yes"/>
			<point x="418" y="158"/>
			<point x="464" y="219"/>
			<point x="492" y="285" type="curve" smooth="yes"/>
			<point x="507" y="320"/>
			<point x="519" y="356"/>
			<point x="519" y="392" type="curve" smooth="yes"/>
			<point x="519" y="420"/>
			<point x="506" y="439"/>
			<point x="467" y="439" type="curve" smooth="yes"/>
			<point x="438" y="439"/>
			<point name=".hr01" x="421" y="426"/>
			<point x="421" y="402" type="curve" smooth="yes"/>
			<point x="421" y="396"/>
			<point x="423" y="386"/>
			<point x="426" y="382" type="curve"/>
			<point x="441" y="359"/>
			<point name=".hr02" x="447" y="338"/>
			<point x="447" y="322" type="curve" smooth="yes"/>
			<point x="447" y="278"/>
			<point x="410" y="200"/>
			<point x="372" y="149" type="curve" smooth="yes"/>
			<point x="359" y="132"/>
			<point x="323" y="85"/>
			<point x="309" y="74" type="curve"/>
		</contour>
	</outline>
</glyph>
<glyph name="w" format="2">
	<unicode hex="0077"/>
	<advance width="688"/>
	<outline>
		<contour>
			<point x="440" y="258" type="line"/>
			<point x="453" y="199"/>
			<point x="467" y="125"/>
			<point x="477" y="62" type="curve"/>
			<point x="477" y="56"/>
			<point x="478" y="51"/>
			<point x="479" y="46" type="curve"/>
			<point x="486" y="-2"/>
			<point x="493" y="-12"/>
			<point x="502" y="-12" type="curve" smooth="yes"/>
			<point x="514" y="-12"/>
			<point x="528" y="0"/>
			<point x="548" y="25" type="curve" smooth="yes"/>
			<point x="577" y="61"/>
			<point x="609" y="106"/>
			<point x="623" y="127" type="curve"/>
			<point x="645" y="157"/>
			<point x="680" y="219"/>
			<point x="708" y="285" type="curve" smooth="yes"/>
			<point x="723" y="320"/>
			<point x="735" y="356"/>
			<point x="735" y="392" type="curve" smooth="yes"/>
			<point x="735" y="420"/>
			<point x="722" y="439"/>
			<point x="683" y="439" type="curve"/>
			<point x="683" y="439"/>
			<point x="683" y="439"/>
			<point x="683" y="439" type="curve"/>
			<point x="654" y="439"/>
			<point name=".hr01" x="637" y="426"/>
			<point x="637" y="402" type="curve" smooth="yes"/>
			<point x="637" y="396"/>
			<point x="639" y="386"/>
			<point x="642" y="382" type="curve"/>
			<point x="657" y="359"/>
			<point name=".hr02" x="663" y="338"/>
			<point x="663" y="322" type="curve" smooth="yes"/>
			<point x="663" y="318"/>
			<point x="663" y="314"/>
			<point x="662" y="309" type="curve"/>
			<point x="658" y="263"/>
			<point x="634" y="195"/>
			<point x="599" y="149" type="curve"/>
			<point x="584" y="128"/>
			<point x="568" y="108"/>
			<point x="554" y="94" type="curve"/>
			<point x="547" y="96" type="line"/>
			<point x="538" y="148"/>
			<point x="525" y="215"/>
			<point x="512" y="269" type="curve" smooth="yes"/>
			<point x="503" y="307"/>
			<point x="494" y="341"/>
			<point x="487" y="358" type="curve"/>
			<point x="471" y="358"/>
			<point x="454" y="354"/>
			<point x="438" y="346" type="curve"/>
			<point x="396" y="250"/>
			<point x="331" y="131"/>
			<point x="308" y="95" type="curve"/>
			<point x="305" y="96" type="line"/>
			<point x="271" y="309" type="line" smooth="yes"/>
			<point x="258" y="393"/>
			<point x="247" y="431"/>
			<point x="218" y="438" type="curve"/>
			<point x="215" y="439"/>
			<point x="212" y="439"/>
			<point x="208" y="439" type="curve" smooth="yes"/>
			<point x="175" y="439"/>
			<point x="117" y="380"/>
			<point name=".hr03" x="82" y="327" type="curve"/>
			<point x="84" y="317"/>
			<point x="92" y="310"/>
			<point x="103" y="309" type="curve"/>
			<point x="131" y="336"/>
			<point x="154" y="357"/>
			<point x="173" y="357" type="curve" smooth="yes"/>
			<point x="183" y="357"/>
			<point x="188" y="340"/>
			<point x="196" y="296" type="curve" smooth="yes"/>
			<point x="238" y="52" type="line" smooth="yes"/>
			<point x="247" y="2"/>
			<point x="256" y="-12"/>
			<point x="265" y="-12" type="curve" smooth="yes"/>
			<point x="267" y="-12"/>
			<point x="270" y="-11"/>
			<point x="273" y="-9" type="curve"/>
			<point x="282" y="-4"/>
			<point x="295" y="8"/>
			<point x="307" y="27" type="curve" smooth="yes"/>
			<point x="344" y="86"/>
			<point x="399" y="182"/>
			<point x="434" y="257" type="curve"/>
		</contour>
	</outline>
</glyph>
<glyph name="braceleft" format="2">
	<unicode hex="007B"/>
	<advance width="273"/>
	<outline>
		<contour>
			<point x="279" y="567" type="line" smooth="yes"/>
			<point x="287" y="608"/>
			<point x="297" y="638"/>
			<point x="311" y="656" type="curve"/>
			<point x="327" y="678"/>
			<point x="346" y="691"/>
			<point x="367" y="697" type="curve"/>
			<point x="368" y="702"/>
			<point x="369" y="706"/>
			<point x="370" y="711" type="curve"/>
			<point x="317" y="710"/>
			<point x="276" y="698"/>
			<point x="253" y="675" type="curve" smooth="yes"/>
			<point x="230" y="652"/>
			<point x="214" y="613"/>
			<point x="205" y="559" type="curve"/>
			<point x="174" y="389" type="line" smooth="yes"/>
			<point x="173" y="383"/>
			<point x="172" y="376"/>
			<point x="171" y="370" type="curve" smooth="yes"/>
			<point x="162" y="320"/>
			<point x="142" y="265"/>
			<point x="83" y="249" type="curve"/>
			<point x="83" y="247"/>
			<point x="82" y="246"/>
			<point x="82" y="244" type="curve"/>
			<point x="120" y="234"/>
			<point name=".hr01" x="132" y="206"/>
			<point x="132" y="168" type="curve" smooth="yes"/>
			<point x="132" y="153"/>
			<point x="130" y="138"/>
			<point x="127" y="121" type="curve" smooth="yes"/>
			<point x="96" y="-54" type="line"/>
			<point x="92" y="-81"/>
			<point name=".hr02" x="89" y="-103"/>
			<point x="89" y="-123" type="curve" smooth="yes"/>
			<point x="89" y="-148"/>
			<point x="93" y="-167"/>
			<point x="101" y="-181" type="curve" smooth="yes"/>
			<point x="114" y="-204"/>
			<point x="152" y="-216"/>
			<point x="206" y="-217" type="curve"/>
			<point x="207" y="-212"/>
			<point x="207" y="-208"/>
			<point x="208" y="-203" type="curve"/>
			<point x="199" y="-200"/>
			<point x="181" y="-196"/>
			<point x="167" y="-162" type="curve"/>
			<point x="164" y="-152"/>
			<point x="162" y="-138"/>
			<point x="162" y="-122" type="curve" smooth="yes"/>
			<point x="162" y="-107"/>
			<point x="164" y="-89"/>
			<point x="167" y="-69" type="curve" smooth="yes"/>
			<point x="196" y="95" type="line" smooth="yes"/>
			<point x="201" y="123"/>
			<point name=".hr03" x="204" y="146"/>
			<point x="204" y="165" type="curve" smooth="yes"/>
			<point x="204" y="205"/>
			<point x="191" y="230"/>
			<point x="155" y="247" type="curve"/>
			<point x="155" y="247" type="line"/>
			<point x="208" y="268"/>
			<point x="231" y="295"/>
			<point x="247" y="386" type="curve" smooth="yes"/>
			<point x="248" y="392"/>
			<point x="249" y="398"/>
			<point x="250" y="404" type="curve" smooth="yes"/>
		</contour>
	</outline>
</glyph>
<glyph name="bar" format="2">
	<unicode hex="007C"/>
	<advance width="205"/>
	<outline>
		<contour>
			<point x="84" y="-233" type="line"/>
			<point x="240" y="652" type="line"/>
			<point x="196" y="652" type="line"/>
			<point x="40" y="-233" type="line"/>
		</contour>
	</outline>
</glyph>
<glyph name="braceright" format="2">
	<unicode hex="007D"/>
	<advance width="273"/>
	<outline>
		<contour>
			<point x="82" y="-73" type="line"/>
			<point x="74" y="-114"/>
			<point x="63" y="-144"/>
			<point x="50" y="-162" type="curve" smooth="yes"/>
			<point x="34" y="-184"/>
			<point x="15" y="-197"/>
			<point x="-6" y="-203" type="curve"/>
			<point x="-7" y="-208"/>
			<point x="-8" y="-212"/>
			<point x="-9" y="-217" type="curve"/>
			<point x="43" y="-216"/>
			<point x="84" y="-204"/>
			<point x="108" y="-181" type="curve"/>
			<point x="130" y="-158"/>
			<point x="146" y="-119"/>
			<point x="156" y="-65" type="curve" smooth="yes"/>
			<point x="186" y="106" type="line" smooth="yes"/>
			<point x="187" y="112"/>
			<point x="188" y="119"/>
			<point x="189" y="125" type="curve" smooth="yes"/>
			<point x="198" y="174"/>
			<point x="219" y="229"/>
			<point x="278" y="245" type="curve"/>
			<point x="278" y="247"/>
			<point x="278" y="248"/>
			<point x="278" y="250" type="curve"/>
			<point x="241" y="260"/>
			<point x="229" y="288"/>
			<point x="229" y="326" type="curve" smooth="yes"/>
			<point x="229" y="340"/>
			<point x="230" y="356"/>
			<point x="233" y="374" type="curve" smooth="yes"/>
			<point x="264" y="548" type="line" smooth="yes"/>
			<point x="269" y="575"/>
			<point name=".hr01" x="271" y="597"/>
			<point x="271" y="617" type="curve" smooth="yes"/>
			<point x="271" y="642"/>
			<point x="267" y="661"/>
			<point x="260" y="675" type="curve"/>
			<point x="247" y="698"/>
			<point x="208" y="710"/>
			<point x="155" y="711" type="curve"/>
			<point x="154" y="706"/>
			<point x="153" y="702"/>
			<point x="152" y="697" type="curve"/>
			<point x="162" y="694"/>
			<point x="180" y="690"/>
			<point x="193" y="656" type="curve" smooth="yes"/>
			<point x="197" y="646"/>
			<point x="199" y="633"/>
			<point x="199" y="617" type="curve" smooth="yes"/>
			<point x="199" y="602"/>
			<point x="197" y="584"/>
			<point x="193" y="563" type="curve" smooth="yes"/>
			<point x="165" y="399" type="line" smooth="yes"/>
			<point x="160" y="372"/>
			<point name=".hr02" x="157" y="349"/>
			<point x="157" y="329" type="curve" smooth="yes"/>
			<point x="157" y="289"/>
			<point x="169" y="264"/>
			<point x="206" y="248" type="curve"/>
			<point x="206" y="248" type="line"/>
			<point x="153" y="227"/>
			<point x="129" y="199"/>
			<point x="113" y="108" type="curve" smooth="yes"/>
			<point x="112" y="102"/>
			<point x="111" y="96"/>
			<point x="110" y="90" type="curve" smooth="yes"/>
		</contour>
	</outline>
</glyph>
<glyph name="asciitilde" format="2">
	<unicode hex="007E"/>
	<advance width="449"/>
	<outline>
		<contour>
			<point x="63" y="209" type="curve"/>
			<point x="65" y="209"/>
			<point x="73" y="207"/>
			<point x="75" y="206" type="curve"/>
			<point x="106" y="250"/>
			<point x="162" y="278"/>
			<point x="197" y="278" type="curve" smooth="yes"/>
			<point x="249" y="278"/>
			<point x="282" y="213"/>
			<point x="335" y="213" type="curve" smooth="yes"/>
			<point x="359" y="213"/>
			<point x="426" y="226"/>
			<point x="476" y="333" type="curve"/>
			<point x="473" y="334"/>
			<point x="463" y="338"/>
			<point x="460" y="339" type="curve"/>
			<point x="429" y="289"/>
			<point x="377" y="272"/>
			<point x="349" y="272" type="curve" smooth="yes"/>
			<point x="304" y="272"/>
			<point x="259" y="337"/>
			<point x="213" y="337" type="curve" smooth="yes"/>
			<point x="153" y="337"/>
			<point x="87" y="274"/>
		</contour>
	</outline>
</glyph>
<glyph name="exclamdown" format="2">
	<unicode hex="00A1"/>
	<advance width="227"/>
	<outline>
		<contour>
			<point x="75" y="-231" type="curve" smooth="yes"/>
			<point x="98" y="-231"/>
			<point x="133" y="-212"/>
			<point x="143" y="-158" type="curve"/>
			<point x="148" y="-125"/>
			<point x="149" y="-102"/>
			<point x="149" y="-77" type="curve" smooth="yes"/>
			<point x="149" y="-70"/>
			<point x="149" y="-62"/>
			<point x="149" y="-55" type="curve" smooth="yes"/>
			<point x="149" y="-47"/>
			<point x="149" y="-40"/>
			<point x="149" y="-32" type="curve" smooth="yes"/>
			<point x="149" y="-14"/>
			<point x="149" y="8"/>
			<point x="151" y="35" type="curve" smooth="yes"/>
			<point x="155" y="91"/>
			<point x="162" y="153"/>
			<point x="166" y="191" type="curve"/>
			<point x="168" y="206"/>
			<point x="169" y="218"/>
			<point x="169" y="224" type="curve" smooth="yes"/>
			<point x="169" y="226" type="line" smooth="yes"/>
			<point x="169" y="231"/>
			<point x="168" y="236"/>
			<point x="158" y="236" type="curve" smooth="yes"/>
			<point x="155" y="236"/>
			<point x="152" y="235"/>
			<point x="150" y="233" type="curve"/>
			<point x="145" y="230"/>
			<point x="142" y="224"/>
			<point x="140" y="216" type="curve" smooth="yes"/>
			<point x="139" y="212"/>
			<point x="137" y="205"/>
			<point x="134" y="193" type="curve"/>
			<point x="128" y="165"/>
			<point x="115" y="112"/>
			<point x="92" y="35" type="curve" smooth="yes"/>
			<point x="82" y="1"/>
			<point x="72" y="-27"/>
			<point x="64" y="-51" type="curve"/>
			<point x="50" y="-88"/>
			<point x="39" y="-119"/>
			<point x="32" y="-158" type="curve"/>
			<point x="31" y="-165"/>
			<point x="30" y="-171"/>
			<point x="30" y="-178" type="curve" smooth="yes"/>
			<point x="30" y="-214"/>
			<point x="52" y="-231"/>
		</contour>
		<contour>
			<point x="239" y="394" type="curve"/>
			<point x="240" y="396"/>
			<point name=".hr01" x="240" y="399"/>
			<point x="240" y="402" type="curve" smooth="yes"/>
			<point x="240" y="428"/>
			<point x="222" y="447"/>
			<point x="195" y="447" type="curve" smooth="yes"/>
			<point x="192" y="447"/>
			<point x="189" y="447"/>
			<point x="186" y="446" type="curve"/>
			<point x="161" y="442"/>
			<point x="138" y="420"/>
			<point x="133" y="394" type="curve"/>
			<point x="132" y="390"/>
			<point x="132" y="387"/>
			<point x="132" y="384" type="curve" smooth="yes"/>
			<point x="132" y="359"/>
			<point x="151" y="340"/>
			<point x="177" y="340" type="curve" smooth="yes"/>
			<point x="180" y="340"/>
			<point x="183" y="340"/>
			<point x="186" y="341" type="curve"/>
			<point x="211" y="345"/>
			<point x="235" y="367"/>
		</contour>
	</outline>
</glyph>
<glyph name="cent" format="2">
	<unicode hex="00A2"/>
	<advance width="438"/>
	<outline>
		<contour>
			<point x="321" y="584" type="line"/>
			<point x="306" y="509" type="line"/>
			<point x="267" y="504"/>
			<point x="212" y="479"/>
			<point x="175" y="440" type="curve" smooth="yes"/>
			<point x="136" y="398"/>
			<point x="107" y="340"/>
			<point x="97" y="272" type="curve"/>
			<point x="94" y="255"/>
			<point x="93" y="238"/>
			<point x="93" y="220" type="curve" smooth="yes"/>
			<point x="93" y="187"/>
			<point x="100" y="142"/>
			<point x="123" y="109" type="curve" smooth="yes"/>
			<point x="144" y="80"/>
			<point x="178" y="61"/>
			<point x="219" y="61" type="curve"/>
			<point x="205" y="-12" type="line"/>
			<point x="239" y="-12" type="line"/>
			<point x="254" y="65" type="line"/>
			<point x="312" y="78"/>
			<point x="364" y="124"/>
			<point x="404" y="180" type="curve"/>
			<point x="401" y="190"/>
			<point x="391" y="197"/>
			<point x="382" y="197" type="curve"/>
			<point x="355" y="166"/>
			<point x="327" y="140"/>
			<point x="294" y="128" type="curve"/>
			<point x="285" y="125"/>
			<point x="275" y="122"/>
			<point x="265" y="121" type="curve"/>
			<point x="334" y="478" type="line"/>
			<point x="348" y="475"/>
			<point x="364" y="466"/>
			<point x="364" y="441" type="curve" smooth="yes"/>
			<point x="364" y="435"/>
			<point x="362" y="427"/>
			<point x="359" y="422" type="curve"/>
			<point x="356" y="418"/>
			<point x="354" y="407"/>
			<point x="354" y="401" type="curve" smooth="yes"/>
			<point x="354" y="385"/>
			<point x="364" y="369"/>
			<point x="381" y="369" type="curve" smooth="yes"/>
			<point x="408" y="369"/>
			<point x="433" y="389"/>
			<point x="433" y="414" type="curve" smooth="yes"/>
			<point x="433" y="451"/>
			<point x="430" y="503"/>
			<point x="341" y="509" type="curve"/>
			<point x="355" y="584" type="line"/>
		</contour>
		<contour>
			<point x="231" y="122" type="line"/>
			<point x="220" y="125"/>
			<point x="209" y="131"/>
			<point x="200" y="143" type="curve" smooth="yes"/>
			<point x="185" y="162"/>
			<point x="175" y="182"/>
			<point x="175" y="242" type="curve" smooth="yes"/>
			<point x="175" y="259"/>
			<point x="176" y="275"/>
			<point x="178" y="290" type="curve"/>
			<point x="189" y="397"/>
			<point x="241" y="464"/>
			<point x="300" y="477" type="curve"/>
		</contour>
	</outline>
</glyph>
<glyph name="currency" format="2">
	<unicode hex="00A4"/>
	<advance width="438"/>
	<outline>
		<contour>
			<point x="240" y="124" type="curve" smooth="yes"/>
			<point x="281" y="124"/>
			<point x="319" y="136"/>
			<point x="356" y="161" type="curve"/>
			<point x="393" y="109" type="line"/>
			<point x="436" y="147" type="line"/>
			<point x="421" y="162"/>
			<point x="407" y="176"/>
			<point x="392" y="191" type="curve"/>
			<point x="422" y="223"/>
			<point x="440" y="259"/>
			<point x="447" y="299" type="curve" smooth="yes"/>
			<point x="449" y="310"/>
			<point x="450" y="321"/>
			<point x="450" y="332" type="curve" smooth="yes"/>
			<point x="450" y="360"/>
			<point x="443" y="385"/>
			<point x="429" y="407" type="curve"/>
			<point x="492" y="451" type="line"/>
			<point x="460" y="492" type="line"/>
			<point x="441" y="474"/>
			<point x="423" y="455"/>
			<point x="404" y="437" type="curve"/>
			<point x="379" y="458"/>
			<point x="349" y="471"/>
			<point x="315" y="474" type="curve"/>
			<point x="311" y="474"/>
			<point x="306" y="474"/>
			<point x="302" y="474" type="curve" smooth="yes"/>
			<point x="263" y="474"/>
			<point x="225" y="462"/>
			<point x="188" y="439" type="curve"/>
			<point x="152" y="489" type="line"/>
			<point x="108" y="450" type="line"/>
			<point x="123" y="436"/>
			<point x="137" y="423"/>
			<point x="152" y="409" type="curve"/>
			<point x="121" y="378"/>
			<point x="101" y="341"/>
			<point x="93" y="299" type="curve" smooth="yes"/>
			<point x="91" y="288"/>
			<point x="90" y="277"/>
			<point x="90" y="268" type="curve" smooth="yes"/>
			<point x="90" y="239"/>
			<point x="98" y="213"/>
			<point x="113" y="189" type="curve"/>
			<point x="52" y="146" type="line"/>
			<point x="86" y="106" type="line"/>
			<point x="103" y="124"/>
			<point x="121" y="142"/>
			<point x="138" y="160" type="curve"/>
			<point x="166" y="136"/>
			<point x="200" y="124"/>
		</contour>
		<contour>
			<point x="154" y="300" type="curve" smooth="yes"/>
			<point x="167" y="371"/>
			<point x="227" y="432"/>
			<point x="296" y="432" type="curve" smooth="yes"/>
			<point x="351" y="432"/>
			<point x="389" y="387"/>
			<point x="389" y="326" type="curve" smooth="yes"/>
			<point x="389" y="317"/>
			<point x="388" y="308"/>
			<point x="387" y="299" type="curve"/>
			<point x="374" y="228"/>
			<point x="317" y="166"/>
			<point x="248" y="166" type="curve" smooth="yes"/>
			<point x="186" y="166"/>
			<point x="151" y="212"/>
			<point x="151" y="271" type="curve" smooth="yes"/>
			<point x="151" y="281"/>
			<point x="152" y="290"/>
		</contour>
	</outline>
</glyph>
<glyph name="brokenbar" format="2">
	<unicode hex="00A6"/>
	<advance width="205"/>
	<outline>
		<contour>
			<point x="158" y="161" type="line"/>
			<point x="109" y="161" type="line"/>
			<point x="45" y="-201" type="line"/>
			<point x="94" y="-201" type="line"/>
		</contour>
		<contour>
			<point x="249" y="674" type="line"/>
			<point x="200" y="674" type="line"/>
			<point x="136" y="312" type="line"/>
			<point x="185" y="312" type="line"/>
		</contour>
	</outline>
</glyph>
<glyph name="dieresis" format="2">
	<unicode hex="00A8"/>
	<advance width="375"/>
	<outline>
		<contour>
			<point x="209" y="618" type="curve" smooth="yes"/>
			<point x="184" y="618"/>
			<point x="155" y="596"/>
			<point x="155" y="565" type="curve" smooth="yes"/>
			<point x="155" y="543"/>
			<point x="171" y="527"/>
			<point x="193" y="527" type="curve" smooth="yes"/>
			<point x="217" y="527"/>
			<point x="247" y="549"/>
			<point x="247" y="581" type="curve" smooth="yes"/>
			<point x="247" y="602"/>
			<point x="231" y="618"/>
		</contour>
		<contour>
			<point x="370" y="619" type="curve" smooth="yes"/>
			<point x="345" y="619"/>
			<point x="316" y="597"/>
			<point x="316" y="565" type="curve" smooth="yes"/>
			<point x="316" y="544"/>
			<point x="332" y="528"/>
			<point x="354" y="528" type="curve" smooth="yes"/>
			<point x="379" y="528"/>
			<point x="408" y="550"/>
			<point x="408" y="581" type="curve" smooth="yes"/>
			<point x="408" y="602"/>
			<point x="392" y="619"/>
		</contour>
	</outline>
</glyph>
<glyph name="guillemotleft" format="2">
	<unicode hex="00AB"/>
	<advance width="464"/>
	<outline>
		<contour>
			<point x="254" y="207" type="line"/>
			<point x="260" y="202"/>
			<point x="271" y="191"/>
			<point x="271" y="191" type="curve"/>
			<point x="322" y="142"/>
			<point x="351" y="99"/>
			<point x="398" y="23" type="curve"/>
			<point x="409" y="31"/>
			<point x="420" y="39"/>
			<point x="431" y="47" type="curve"/>
			<point x="396" y="126"/>
			<point x="369" y="174"/>
			<point x="336" y="215" type="curve"/>
			<point x="387" y="256"/>
			<point x="433" y="304"/>
			<point x="502" y="383" type="curve"/>
			<point x="495" y="391"/>
			<point x="487" y="399"/>
			<point x="480" y="407" type="curve"/>
			<point x="401" y="331"/>
			<point x="352" y="288"/>
			<point x="281" y="239" type="curve"/>
			<point x="281" y="239"/>
			<point x="265" y="228"/>
			<point x="257" y="223" type="curve"/>
		</contour>
		<contour>
			<point x="90" y="207" type="line"/>
			<point x="96" y="202"/>
			<point x="107" y="191"/>
			<point x="107" y="191" type="curve"/>
			<point x="158" y="142"/>
			<point x="187" y="99"/>
			<point x="234" y="23" type="curve"/>
			<point x="245" y="31"/>
			<point x="257" y="39"/>
			<point x="268" y="47" type="curve"/>
			<point x="233" y="126"/>
			<point x="206" y="174"/>
			<point x="173" y="215" type="curve"/>
			<point x="224" y="256"/>
			<point x="270" y="304"/>
			<point x="339" y="383" type="curve"/>
			<point x="331" y="391"/>
			<point x="324" y="399"/>
			<point x="316" y="407" type="curve"/>
			<point x="237" y="331"/>
			<point x="188" y="288"/>
			<point x="117" y="239" type="curve"/>
			<point x="117" y="239"/>
			<point x="101" y="228"/>
			<point x="93" y="223" type="curve"/>
		</contour>
	</outline>
</glyph>
<glyph name="registered" format="2">
	<unicode hex="00AE"/>
	<advance width="633"/>
	<outline>
		<contour>
			<point x="317" y="23" type="curve" smooth="yes"/>
			<point x="473" y="23"/>
			<point x="599" y="150"/>
			<point x="599" y="306" type="curve" smooth="yes"/>
			<point x="599" y="462"/>
			<point x="473" y="588"/>
			<point x="317" y="588" type="curve" smooth="yes"/>
			<point x="161" y="588"/>
			<point x="34" y="462"/>
			<point x="34" y="306" type="curve" smooth="yes"/>
			<point x="34" y="151"/>
			<point x="160" y="23"/>
		</contour>
		<contour>
			<point x="317" y="557" type="curve" smooth="yes"/>
			<point x="456" y="557"/>
			<point x="568" y="445"/>
			<point x="568" y="306" type="curve" smooth="yes"/>
			<point x="568" y="167"/>
			<point x="455" y="55"/>
			<point x="317" y="55" type="curve" smooth="yes"/>
			<point x="177" y="55"/>
			<point x="65" y="168"/>
			<point x="65" y="306" type="curve" smooth="yes"/>
			<point x="65" y="445"/>
			<point x="177" y="557"/>
		</contour>
		<contour>
			<point x="417" y="372" type="curve" smooth="yes"/>
			<point x="417" y="402"/>
			<point x="398" y="447"/>
			<point x="322" y="447" type="curve" smooth="yes"/>
			<point x="249" y="447"/>
			<point x="228" y="445"/>
			<point x="207" y="442" type="curve"/>
			<point x="207" y="431" type="line" smooth="yes"/>
			<point x="207" y="428"/>
			<point x="210" y="426"/>
			<point x="217" y="425" type="curve"/>
			<point x="233" y="426" type="line"/>
			<point x="236" y="426"/>
			<point x="237" y="421"/>
			<point x="237" y="415" type="curve" smooth="yes"/>
			<point x="237" y="192" type="line" smooth="yes"/>
			<point x="237" y="185"/>
			<point x="235" y="184"/>
			<point x="229" y="184" type="curve" smooth="yes"/>
			<point x="217" y="184" type="line" smooth="yes"/>
			<point x="210" y="184"/>
			<point x="207" y="183"/>
			<point x="207" y="179" type="curve" smooth="yes"/>
			<point name=".hr01" x="207" y="167" type="line"/>
			<point x="262" y="169" type="line"/>
			<point x="276" y="169"/>
			<point name=".hr02" x="318" y="167"/>
			<point x="318" y="167" type="curve"/>
			<point x="318" y="178" type="line" smooth="yes"/>
			<point x="318" y="183"/>
			<point x="315" y="184"/>
			<point name=".hr03" x="307" y="184" type="curve" smooth="yes"/>
			<point name=".hr04" x="295" y="184" type="line" smooth="yes"/>
			<point x="288" y="184"/>
			<point x="288" y="187"/>
			<point x="288" y="192" type="curve" smooth="yes"/>
			<point x="288" y="287" type="line"/>
			<point x="293" y="287"/>
			<point x="311" y="286"/>
			<point x="315" y="283" type="curve"/>
			<point x="363" y="204" type="line"/>
			<point x="375" y="178"/>
			<point x="396" y="166"/>
			<point x="425" y="166" type="curve" smooth="yes"/>
			<point name=".hr05" x="430" y="166"/>
			<point x="438" y="167"/>
			<point x="448" y="170" type="curve"/>
			<point x="448" y="183" type="line"/>
			<point x="433" y="183"/>
			<point x="421" y="192"/>
			<point x="408" y="214" type="curve" smooth="yes"/>
			<point x="360" y="296" type="line"/>
			<point x="360" y="296"/>
			<point x="417" y="320"/>
		</contour>
		<contour>
			<point x="367" y="372" type="curve" smooth="yes"/>
			<point x="367" y="310"/>
			<point x="319" y="308"/>
			<point x="288" y="308" type="curve"/>
			<point x="288" y="427" type="line"/>
			<point x="293" y="428"/>
			<point x="305" y="430"/>
			<point x="316" y="430" type="curve" smooth="yes"/>
			<point x="350" y="430"/>
			<point x="367" y="406"/>
		</contour>
	</outline>
</glyph>
<glyph name="plusminus" format="2">
	<unicode hex="00B1"/>
	<advance width="527"/>
	<outline>
		<contour>
			<point x="349" y="341" type="line"/>
			<point x="379" y="515" type="line"/>
			<point x="330" y="515" type="line"/>
			<point x="299" y="341" type="line"/>
			<point x="126" y="341" type="line"/>
			<point x="117" y="292" type="line"/>
			<point x="291" y="292" type="line"/>
			<point x="260" y="119" type="line"/>
			<point x="310" y="119" type="line"/>
			<point x="340" y="292" type="line"/>
			<point x="513" y="292" type="line"/>
			<point x="521" y="341" type="line"/>
		</contour>
		<contour>
			<point x="473" y="67" type="line"/>
			<point x="78" y="67" type="line"/>
			<point x="69" y="18" type="line"/>
			<point x="464" y="18" type="line"/>
		</contour>
	</outline>
</glyph>
<glyph name="periodcentered" format="2">
	<unicode hex="00B7"/>
	<advance width="250"/>
	<outline>
		<contour>
			<point x="178" y="199" type="curve" smooth="yes"/>
			<point x="206" y="199"/>
			<point x="232" y="225"/>
			<point x="232" y="253" type="curve" smooth="yes"/>
			<point x="232" y="281"/>
			<point x="206" y="307"/>
			<point x="178" y="307" type="curve" smooth="yes"/>
			<point x="150" y="307"/>
			<point x="124" y="281"/>
			<point x="124" y="253" type="curve" smooth="yes"/>
			<point x="124" y="225"/>
			<point x="150" y="199"/>
		</contour>
	</outline>
</glyph>
<glyph name="cedilla" format="2">
	<unicode hex="00B8"/>
	<advance width="541"/>
	<outline>
		<contour>
			<point x="229" y="-86" type="line"/>
			<point x="246" y="-82"/>
			<point x="255" y="-80"/>
			<point x="275" y="-80" type="curve" smooth="yes"/>
			<point x="295" y="-80"/>
			<point x="310" y="-90"/>
			<point x="310" y="-106" type="curve" smooth="yes"/>
			<point x="310" y="-138"/>
			<point x="273" y="-156"/>
			<point x="239" y="-156" type="curve" smooth="yes"/>
			<point x="216" y="-156"/>
			<point x="209" y="-155"/>
			<point x="183" y="-146" type="curve"/>
			<point x="178" y="-152"/>
			<point x="174" y="-158"/>
			<point x="169" y="-164" type="curve"/>
			<point x="189" y="-173"/>
			<point x="204" y="-179"/>
			<point x="228" y="-181" type="curve"/>
			<point x="231" y="-181"/>
			<point x="236" y="-181"/>
			<point x="240" y="-181" type="curve" smooth="yes"/>
			<point x="303" y="-181"/>
			<point x="358" y="-150"/>
			<point x="364" y="-104" type="curve"/>
			<point x="365" y="-101"/>
			<point x="365" y="-98"/>
			<point x="365" y="-95" type="curve" smooth="yes"/>
			<point x="365" y="-63"/>
			<point x="338" y="-48"/>
			<point x="306" y="-48" type="curve" smooth="yes"/>
			<point x="297" y="-48"/>
			<point x="288" y="-49"/>
			<point x="280" y="-51" type="curve"/>
			<point x="317" y="7" type="line"/>
			<point x="283" y="7" type="line"/>
			<point x="224" y="-80" type="line"/>
		</contour>
	</outline>
</glyph>
<glyph name="uni00B9" format="2">
	<unicode hex="00B9"/>
	<advance width="307"/>
	<outline>
		<contour>
			<point x="248" y="621" type="curve" smooth="yes"/>
			<point x="260" y="621"/>
			<point x="260" y="611"/>
			<point x="254" y="579" type="curve" smooth="yes"/>
			<point x="227" y="437" type="line"/>
			<point x="225" y="427" type="line" smooth="yes"/>
			<point x="220" y="405"/>
			<point x="203" y="390"/>
			<point x="187" y="390" type="curve" smooth="yes"/>
			<point x="175" y="390"/>
			<point x="163" y="390"/>
			<point x="151" y="390" type="curve" smooth="yes"/>
			<point x="147" y="390"/>
			<point x="144" y="387"/>
			<point x="143" y="385" type="curve"/>
			<point x="142" y="378"/>
			<point x="140" y="371"/>
			<point x="139" y="364" type="curve"/>
			<point x="139" y="364"/>
			<point x="199" y="365"/>
			<point x="237" y="365" type="curve" smooth="yes"/>
			<point x="267" y="365"/>
			<point x="310" y="364"/>
			<point x="321" y="364" type="curve" smooth="yes"/>
			<point x="323" y="364" type="line"/>
			<point x="324" y="371"/>
			<point x="326" y="378"/>
			<point x="327" y="385" type="curve"/>
			<point x="328" y="387"/>
			<point x="327" y="388"/>
			<point x="326" y="389" type="curve" smooth="yes"/>
			<point x="325" y="390"/>
			<point x="324" y="390"/>
			<point x="322" y="390" type="curve" smooth="yes"/>
			<point x="313" y="390"/>
			<point x="303" y="390"/>
			<point x="294" y="390" type="curve" smooth="yes"/>
			<point x="280" y="390"/>
			<point x="271" y="405"/>
			<point x="276" y="427" type="curve"/>
			<point x="277" y="430"/>
			<point x="277" y="434"/>
			<point x="278" y="437" type="curve"/>
			<point x="327" y="688" type="line"/>
			<point x="322" y="688"/>
			<point x="316" y="688"/>
			<point x="311" y="688" type="curve"/>
			<point x="307" y="686"/>
			<point x="304" y="684"/>
			<point x="300" y="682" type="curve"/>
			<point x="258" y="659"/>
			<point x="230" y="648"/>
			<point x="184" y="632" type="curve"/>
			<point x="185" y="623"/>
			<point x="187" y="614"/>
			<point x="188" y="605" type="curve"/>
			<point x="204" y="612"/>
			<point x="235" y="621"/>
		</contour>
	</outline>
</glyph>
<glyph name="Aacute" format="2">
	<unicode hex="00C1"/>
	<advance width="667"/>
	<outline>
		<contour>
			<point x="154" y="56" type="curve" smooth="yes"/>
			<point x="154" y="63"/>
			<point x="156" y="71"/>
			<point x="161" y="79" type="curve"/>
			<point x="237" y="210" type="line"/>
			<point x="245" y="224" type="line" smooth="yes"/>
			<point x="252" y="237"/>
			<point x="259" y="241"/>
			<point x="282" y="241" type="curve" smooth="yes"/>
			<point x="482" y="241" type="line"/>
			<point x="507" y="72" type="line"/>
			<point x="508" y="69"/>
			<point x="508" y="66"/>
			<point x="508" y="63" type="curve" smooth="yes"/>
			<point x="508" y="41"/>
			<point x="492" y="32"/>
			<point x="459" y="29" type="curve"/>
			<point x="459" y="29"/>
			<point x="459" y="29"/>
			<point x="459" y="29" type="curve"/>
			<point x="450" y="28"/>
			<point x="440" y="28"/>
			<point x="431" y="27" type="curve"/>
			<point x="427" y="27"/>
			<point x="424" y="24"/>
			<point x="423" y="19" type="curve"/>
			<point x="421" y="0" type="line"/>
			<point x="421" y="0"/>
			<point x="421" y="-1"/>
			<point x="422" y="-1" type="curve"/>
			<point x="422" y="-2" type="line"/>
			<point x="454" y="-1"/>
			<point x="499" y="0"/>
			<point x="534" y="0" type="curve" smooth="yes"/>
			<point x="539" y="0"/>
			<point x="544" y="0"/>
			<point x="549" y="0" type="curve" smooth="yes"/>
			<point x="588" y="0"/>
			<point x="627" y="-1"/>
			<point x="662" y="-2" type="curve"/>
			<point x="663" y="-1"/>
			<point x="663" y="-1"/>
			<point x="664" y="0" type="curve"/>
			<point x="666" y="19" type="line"/>
			<point x="667" y="22"/>
			<point x="666" y="24"/>
			<point x="664" y="25" type="curve"/>
			<point x="663" y="26"/>
			<point x="661" y="27"/>
			<point x="658" y="27" type="curve"/>
			<point x="648" y="28" type="line" smooth="yes"/>
			<point x="610" y="32"/>
			<point x="594" y="47"/>
			<point x="588" y="86" type="curve" smooth="yes"/>
			<point x="496" y="628" type="line" smooth="yes"/>
			<point x="493" y="647"/>
			<point x="490" y="658"/>
			<point x="476" y="658" type="curve" smooth="yes"/>
			<point x="462" y="658"/>
			<point x="453" y="649"/>
			<point x="437" y="622" type="curve"/>
			<point x="437" y="622"/>
			<point x="437" y="622"/>
			<point x="437" y="622" type="curve"/>
			<point x="122" y="102" type="line" smooth="yes"/>
			<point x="85" y="40"/>
			<point x="57" y="30"/>
			<point x="15" y="27" type="curve"/>
			<point x="13" y="27"/>
			<point x="11" y="26"/>
			<point x="9" y="25" type="curve"/>
			<point x="8" y="24"/>
			<point x="7" y="22"/>
			<point x="6" y="19" type="curve"/>
			<point x="3" y="0" type="line"/>
			<point x="3" y="0"/>
			<point x="3" y="-1"/>
			<point x="4" y="-1" type="curve"/>
			<point x="4" y="-2" type="line"/>
			<point x="40" y="-1"/>
			<point x="56" y="0"/>
			<point x="93" y="0" type="curve" smooth="yes"/>
			<point x="132" y="0"/>
			<point x="183" y="-1"/>
			<point x="218" y="-2" type="curve"/>
			<point x="221" y="0" type="line"/>
			<point x="222" y="6"/>
			<point x="222" y="13"/>
			<point x="223" y="19" type="curve"/>
			<point x="224" y="24"/>
			<point x="221" y="27"/>
			<point x="217" y="27" type="curve"/>
			<point x="208" y="28"/>
			<point x="199" y="28"/>
			<point x="190" y="29" type="curve"/>
			<point x="165" y="31"/>
			<point x="154" y="41"/>
		</contour>
		<contour>
			<point x="307" y="283" type="line" smooth="yes"/>
			<point x="291" y="283"/>
			<point x="284" y="285"/>
			<point x="284" y="290" type="curve" smooth="yes"/>
			<point x="284" y="292"/>
			<point x="285" y="294"/>
			<point x="286" y="296" type="curve"/>
			<point x="431" y="550" type="line"/>
			<point x="433" y="550" type="line"/>
			<point x="474" y="283" type="line"/>
		</contour>
		<contour>
			<point x="546" y="821" type="curve"/>
			<point x="499" y="793"/>
			<point x="452" y="765"/>
			<point x="405" y="737" type="curve"/>
			<point x="402" y="735"/>
			<point x="398" y="733"/>
			<point x="396" y="731" type="curve"/>
			<point x="388" y="724"/>
			<point x="384" y="719"/>
			<point x="384" y="712" type="curve" smooth="yes"/>
			<point x="384" y="704"/>
			<point x="388" y="701"/>
			<point x="396" y="701" type="curve" smooth="yes"/>
			<point x="398" y="701"/>
			<point x="400" y="701"/>
			<point x="402" y="702" type="curve"/>
			<point x="412" y="703"/>
			<point x="425" y="707"/>
			<point x="442" y="713" type="curve" smooth="yes"/>
			<point x="593" y="769" type="line"/>
			<point x="611" y="776" type="line"/>
			<point x="589" y="791"/>
			<point x="568" y="806"/>
		</contour>
	</outline>
</glyph>
<glyph name="Acircumflex" format="2">
	<unicode hex="00C2"/>
	<advance width="667"/>
	<outline>
		<contour>
			<point x="154" y="56" type="curve" smooth="yes"/>
			<point x="154" y="63"/>
			<point x="156" y="71"/>
			<point x="161" y="79" type="curve"/>
			<point x="237" y="210" type="line"/>
			<point x="245" y="224" type="line" smooth="yes"/>
			<point x="252" y="237"/>
			<point x="259" y="241"/>
			<point x="282" y="241" type="curve" smooth="yes"/>
			<point x="482" y="241" type="line"/>
			<point x="507" y="72" type="line"/>
			<point x="508" y="69"/>
			<point x="508" y="66"/>
			<point x="508" y="63" type="curve" smooth="yes"/>
			<point x="508" y="41"/>
			<point x="492" y="32"/>
			<point x="459" y="29" type="curve"/>
			<point x="459" y="29"/>
			<point x="459" y="29"/>
			<point x="459" y="29" type="curve"/>
			<point x="450" y="28"/>
			<point x="440" y="28"/>
			<point x="431" y="27" type="curve"/>
			<point x="427" y="27"/>
			<point x="424" y="24"/>
			<point x="423" y="19" type="curve"/>
			<point x="421" y="0" type="line"/>
			<point x="421" y="0"/>
			<point x="421" y="-1"/>
			<point x="422" y="-1" type="curve"/>
			<point x="422" y="-2" type="line"/>
			<point x="454" y="-1"/>
			<point x="499" y="0"/>
			<point x="534" y="0" type="curve" smooth="yes"/>
			<point x="539" y="0"/>
			<point x="544" y="0"/>
			<point x="549" y="0" type="curve" smooth="yes"/>
			<point x="588" y="0"/>
			<point x="627" y="-1"/>
			<point x="662" y="-2" type="curve"/>
			<point x="663" y="-1"/>
			<point x="663" y="-1"/>
			<point x="664" y="0" type="curve"/>
			<point x="666" y="19" type="line"/>
			<point x="667" y="22"/>
			<point x="666" y="24"/>
			<point x="664" y="25" type="curve"/>
			<point x="663" y="26"/>
			<point x="661" y="27"/>
			<point x="658" y="27" type="curve"/>
			<point x="648" y="28" type="line" smooth="yes"/>
			<point x="610" y="32"/>
			<point x="594" y="47"/>
			<point x="588" y="86" type="curve" smooth="yes"/>
			<point x="496" y="628" type="line" smooth="yes"/>
			<point x="493" y="647"/>
			<point x="490" y="658"/>
			<point x="476" y="658" type="curve" smooth="yes"/>
			<point x="462" y="658"/>
			<point x="453" y="649"/>
			<point x="437" y="622" type="curve"/>
			<point x="437" y="622"/>
			<point x="437" y="622"/>
			<point x="437" y="622" type="curve"/>
			<point x="122" y="102" type="line" smooth="yes"/>
			<point x="85" y="40"/>
			<point x="57" y="30"/>
			<point x="15" y="27" type="curve"/>
			<point x="13" y="27"/>
			<point x="11" y="26"/>
			<point x="9" y="25" type="curve"/>
			<point x="8" y="24"/>
			<point x="7" y="22"/>
			<point x="6" y="19" type="curve"/>
			<point x="3" y="0" type="line"/>
			<point x="3" y="0"/>
			<point x="3" y="-1"/>
			<point x="4" y="-1" type="curve"/>
			<point x="4" y="-2" type="line"/>
			<point x="40" y="-1"/>
			<point x="56" y="0"/>
			<point x="93" y="0" type="curve" smooth="yes"/>
			<point x="132" y="0"/>
			<point x="183" y="-1"/>
			<point x="218" y="-2" type="curve"/>
			<point x="221" y="0" type="line"/>
			<point x="222" y="6"/>
			<point x="222" y="13"/>
			<point x="223" y="19" type="curve"/>
			<point x="224" y="24"/>
			<point x="221" y="27"/>
			<point x="217" y="27" type="curve"/>
			<point x="208" y="28"/>
			<point x="199" y="28"/>
			<point x="190" y="29" type="curve"/>
			<point x="165" y="31"/>
			<point x="154" y="41"/>
		</contour>
		<contour>
			<point x="307" y="283" type="line" smooth="yes"/>
			<point x="291" y="283"/>
			<point x="284" y="285"/>
			<point x="284" y="290" type="curve" smooth="yes"/>
			<point x="284" y="292"/>
			<point x="285" y="294"/>
			<point x="286" y="296" type="curve"/>
			<point x="431" y="550" type="line"/>
			<point x="433" y="550" type="line"/>
			<point x="474" y="283" type="line"/>
		</contour>
		<contour>
			<point x="615" y="722" type="curve"/>
			<point x="584" y="749"/>
			<point x="557" y="780"/>
			<point x="536" y="816" type="curve"/>
			<point x="493" y="816" type="line"/>
			<point x="455" y="782"/>
			<point x="415" y="750"/>
			<point x="372" y="722" type="curve"/>
			<point x="375" y="715"/>
			<point x="378" y="708"/>
			<point x="381" y="701" type="curve"/>
			<point x="423" y="718"/>
			<point x="459" y="736"/>
			<point x="502" y="763" type="curve"/>
			<point x="529" y="738"/>
			<point x="559" y="719"/>
			<point x="594" y="701" type="curve"/>
			<point x="601" y="708"/>
			<point x="608" y="715"/>
		</contour>
	</outline>
</glyph>
<glyph name="Atilde" format="2">
	<unicode hex="00C3"/>
	<advance width="667"/>
	<outline>
		<contour>
			<point x="154" y="56" type="curve" smooth="yes"/>
			<point x="154" y="63"/>
			<point x="156" y="71"/>
			<point x="161" y="79" type="curve"/>
			<point x="237" y="210" type="line"/>
			<point x="245" y="224" type="line" smooth="yes"/>
			<point x="252" y="237"/>
			<point x="259" y="241"/>
			<point x="282" y="241" type="curve" smooth="yes"/>
			<point x="482" y="241" type="line"/>
			<point x="507" y="72" type="line"/>
			<point x="508" y="69"/>
			<point x="508" y="66"/>
			<point x="508" y="63" type="curve" smooth="yes"/>
			<point x="508" y="41"/>
			<point x="492" y="32"/>
			<point x="459" y="29" type="curve"/>
			<point x="459" y="29"/>
			<point x="459" y="29"/>
			<point x="459" y="29" type="curve"/>
			<point x="450" y="28"/>
			<point x="440" y="28"/>
			<point x="431" y="27" type="curve"/>
			<point x="427" y="27"/>
			<point x="424" y="24"/>
			<point x="423" y="19" type="curve"/>
			<point x="421" y="0" type="line"/>
			<point x="421" y="0"/>
			<point x="421" y="-1"/>
			<point x="422" y="-1" type="curve"/>
			<point x="422" y="-2" type="line"/>
			<point x="454" y="-1"/>
			<point x="499" y="0"/>
			<point x="534" y="0" type="curve" smooth="yes"/>
			<point x="539" y="0"/>
			<point x="544" y="0"/>
			<point x="549" y="0" type="curve" smooth="yes"/>
			<point x="588" y="0"/>
			<point x="627" y="-1"/>
			<point x="662" y="-2" type="curve"/>
			<point x="663" y="-1"/>
			<point x="663" y="-1"/>
			<point x="664" y="0" type="curve"/>
			<point x="666" y="19" type="line"/>
			<point x="667" y="22"/>
			<point x="666" y="24"/>
			<point x="664" y="25" type="curve"/>
			<point x="663" y="26"/>
			<point x="661" y="27"/>
			<point x="658" y="27" type="curve"/>
			<point x="648" y="28" type="line" smooth="yes"/>
			<point x="610" y="32"/>
			<point x="594" y="47"/>
			<point x="588" y="86" type="curve" smooth="yes"/>
			<point x="496" y="628" type="line" smooth="yes"/>
			<point x="493" y="647"/>
			<point x="490" y="658"/>
			<point x="476" y="658" type="curve" smooth="yes"/>
			<point x="462" y="658"/>
			<point x="453" y="649"/>
			<point x="437" y="622" type="curve"/>
			<point x="437" y="622"/>
			<point x="437" y="622"/>
			<point x="437" y="622" type="curve"/>
			<point x="122" y="102" type="line" smooth="yes"/>
			<point x="85" y="40"/>
			<point x="57" y="30"/>
			<point x="15" y="27" type="curve"/>
			<point x="13" y="27"/>
			<point x="11" y="26"/>
			<point x="9" y="25" type="curve"/>
			<point x="8" y="24"/>
			<point x="7" y="22"/>
			<point x="6" y="19" type="curve"/>
			<point x="3" y="0" type="line"/>
			<point x="3" y="0"/>
			<point x="3" y="-1"/>
			<point x="4" y="-1" type="curve"/>
			<point x="4" y="-2" type="line"/>
			<point x="40" y="-1"/>
			<point x="56" y="0"/>
			<point x="93" y="0" type="curve" smooth="yes"/>
			<point x="132" y="0"/>
			<point x="183" y="-1"/>
			<point x="218" y="-2" type="curve"/>
			<point x="221" y="0" type="line"/>
			<point x="222" y="6"/>
			<point x="222" y="13"/>
			<point x="223" y="19" type="curve"/>
			<point x="224" y="24"/>
			<point x="221" y="27"/>
			<point x="217" y="27" type="curve"/>
			<point x="208" y="28"/>
			<point x="199" y="28"/>
			<point x="190" y="29" type="curve"/>
			<point x="165" y="31"/>
			<point x="154" y="41"/>
		</contour>
		<contour>
			<point x="307" y="283" type="line" smooth="yes"/>
			<point x="291" y="283"/>
			<point x="284" y="285"/>
			<point x="284" y="290" type="curve" smooth="yes"/>
			<point x="284" y="292"/>
			<point x="285" y="294"/>
			<point x="286" y="296" type="curve"/>
			<point x="431" y="550" type="line"/>
			<point x="433" y="550" type="line"/>
			<point x="474" y="283" type="line"/>
		</contour>
		<contour>
			<point x="546" y="746" type="curve" smooth="yes"/>
			<point x="527" y="746"/>
			<point x="512" y="756"/>
			<point x="498" y="768" type="curve"/>
			<point x="496" y="769"/>
			<point x="495" y="771"/>
			<point x="493" y="772" type="curve"/>
			<point x="477" y="785"/>
			<point x="459" y="796"/>
			<point x="432" y="796" type="curve" smooth="yes"/>
			<point x="389" y="796"/>
			<point x="360" y="766"/>
			<point x="334" y="707" type="curve"/>
			<point x="342" y="705"/>
			<point x="349" y="704"/>
			<point x="357" y="702" type="curve"/>
			<point x="374" y="735"/>
			<point x="390" y="750"/>
			<point x="416" y="750" type="curve" smooth="yes"/>
			<point x="433" y="750"/>
			<point x="449" y="739"/>
			<point x="465" y="728" type="curve"/>
			<point x="467" y="726"/>
			<point x="469" y="725"/>
			<point x="471" y="723" type="curve"/>
			<point x="487" y="711"/>
			<point x="504" y="702"/>
			<point x="524" y="702" type="curve" smooth="yes"/>
			<point x="568" y="702"/>
			<point x="601" y="729"/>
			<point x="625" y="783" type="curve"/>
			<point x="626" y="786"/>
			<point x="628" y="789"/>
			<point x="629" y="792" type="curve"/>
			<point x="621" y="794"/>
			<point x="614" y="796"/>
			<point x="606" y="798" type="curve"/>
			<point x="584" y="756"/>
			<point x="568" y="746"/>
		</contour>
	</outline>
</glyph>
<glyph name="Edieresis" format="2">
	<unicode hex="00CB"/>
	<advance width="526"/>
	<outline>
		<contour>
			<point x="367" y="361" type="curve" smooth="yes"/>
			<point x="245" y="361" type="line"/>
			<point x="282" y="555" type="line"/>
			<point x="285" y="571" type="line" smooth="yes"/>
			<point x="290" y="595"/>
			<point x="304" y="605"/>
			<point x="327" y="605" type="curve" smooth="yes"/>
			<point x="333" y="605"/>
			<point x="338" y="605"/>
			<point x="344" y="605" type="curve" smooth="yes"/>
			<point x="427" y="605" type="line" smooth="yes"/>
			<point x="499" y="605"/>
			<point x="509" y="565"/>
			<point x="517" y="496" type="curve"/>
			<point x="526" y="498"/>
			<point x="536" y="499"/>
			<point x="545" y="501" type="curve"/>
			<point x="549" y="542"/>
			<point x="553" y="638"/>
			<point x="553" y="646" type="curve" smooth="yes"/>
			<point x="553" y="648"/>
			<point x="552" y="649"/>
			<point x="549" y="649" type="curve"/>
			<point x="532" y="646"/>
			<point x="526" y="645"/>
			<point x="503" y="645" type="curve" smooth="yes"/>
			<point x="260" y="645" type="line" smooth="yes"/>
			<point x="223" y="645"/>
			<point x="184" y="646"/>
			<point x="139" y="647" type="curve"/>
			<point x="138" y="646"/>
			<point x="138" y="646"/>
			<point x="137" y="645" type="curve"/>
			<point x="136" y="638"/>
			<point x="134" y="632"/>
			<point x="133" y="625" type="curve"/>
			<point x="133" y="624"/>
			<point x="132" y="622"/>
			<point x="133" y="620" type="curve"/>
			<point x="134" y="619"/>
			<point name=".hr01" x="136" y="618"/>
			<point x="139" y="618" type="curve"/>
			<point x="148" y="617"/>
			<point x="158" y="617"/>
			<point x="167" y="616" type="curve"/>
			<point x="197" y="614"/>
			<point x="210" y="606"/>
			<point x="210" y="585" type="curve" smooth="yes"/>
			<point x="210" y="581"/>
			<point x="209" y="576"/>
			<point x="208" y="571" type="curve" smooth="yes"/>
			<point x="205" y="554"/>
			<point x="202" y="538"/>
			<point x="198" y="521" type="curve"/>
			<point x="121" y="122" type="line"/>
			<point x="117" y="105"/>
			<point x="114" y="89"/>
			<point x="111" y="72" type="curve"/>
			<point x="105" y="44"/>
			<point x="91" y="32"/>
			<point x="53" y="29" type="curve" smooth="yes"/>
			<point x="43" y="28"/>
			<point x="34" y="28"/>
			<point x="24" y="27" type="curve"/>
			<point x="21" y="27"/>
			<point x="19" y="26"/>
			<point x="18" y="25" type="curve" smooth="yes"/>
			<point x="16" y="23"/>
			<point x="16" y="22"/>
			<point x="15" y="20" type="curve"/>
			<point x="14" y="13"/>
			<point x="12" y="7"/>
			<point x="11" y="0" type="curve"/>
			<point x="13" y="-2" type="line"/>
			<point x="58" y="-1"/>
			<point x="98" y="0"/>
			<point x="135" y="0" type="curve" smooth="yes"/>
			<point x="151" y="0" type="line"/>
			<point x="341" y="0" type="line" smooth="yes"/>
			<point x="387" y="0"/>
			<point x="463" y="-2"/>
			<point x="463" y="-2" type="curve"/>
			<point x="484" y="50"/>
			<point x="509" y="113"/>
			<point x="531" y="165" type="curve"/>
			<point x="521" y="167"/>
			<point x="512" y="168"/>
			<point x="502" y="170" type="curve"/>
			<point x="469" y="98"/>
			<point name=".hr02" x="420" y="39"/>
			<point x="347" y="39" type="curve" smooth="yes"/>
			<point x="342" y="39"/>
			<point x="336" y="39"/>
			<point x="331" y="39" type="curve" smooth="yes"/>
			<point x="233" y="39" type="line"/>
			<point x="217" y="39" type="line" smooth="yes"/>
			<point x="199" y="39"/>
			<point x="187" y="43"/>
			<point x="187" y="62" type="curve" smooth="yes"/>
			<point x="187" y="65"/>
			<point x="187" y="68"/>
			<point x="188" y="72" type="curve"/>
			<point x="237" y="323" type="line"/>
			<point x="329" y="323" type="line" smooth="yes"/>
			<point x="339" y="323"/>
			<point x="349" y="323"/>
			<point x="359" y="323" type="curve" smooth="yes"/>
			<point x="389" y="323"/>
			<point x="401" y="316"/>
			<point x="401" y="293" type="curve" smooth="yes"/>
			<point x="401" y="291"/>
			<point x="400" y="288"/>
			<point x="400" y="285" type="curve"/>
			<point x="398" y="260" type="line"/>
			<point x="398" y="259"/>
			<point x="398" y="257"/>
			<point x="398" y="255" type="curve"/>
			<point x="399" y="253"/>
			<point x="401" y="252"/>
			<point x="403" y="252" type="curve" smooth="yes"/>
			<point x="410" y="252"/>
			<point x="417" y="252"/>
			<point x="424" y="252" type="curve"/>
			<point x="425" y="253"/>
			<point x="426" y="253"/>
			<point x="427" y="254" type="curve"/>
			<point x="429" y="255" type="line"/>
			<point x="433" y="295"/>
			<point x="438" y="322"/>
			<point x="442" y="342" type="curve"/>
			<point x="445" y="362"/>
			<point x="452" y="392"/>
			<point x="463" y="432" type="curve"/>
			<point x="460" y="436" type="line"/>
			<point x="453" y="436"/>
			<point x="446" y="436"/>
			<point x="439" y="436" type="curve" smooth="yes"/>
			<point x="435" y="436"/>
			<point x="431" y="432"/>
			<point x="430" y="428" type="curve" smooth="yes"/>
			<point x="428" y="420"/>
			<point x="425" y="411"/>
			<point x="423" y="403" type="curve"/>
			<point x="414" y="375"/>
			<point x="400" y="361"/>
		</contour>
		<contour>
			<point x="464" y="743" type="curve"/>
			<point x="463" y="740"/>
			<point x="463" y="737"/>
			<point x="463" y="735" type="curve" smooth="yes"/>
			<point x="463" y="713"/>
			<point x="479" y="697"/>
			<point x="501" y="697" type="curve" smooth="yes"/>
			<point x="504" y="697"/>
			<point x="506" y="697"/>
			<point x="508" y="698" type="curve"/>
			<point x="531" y="701"/>
			<point x="550" y="721"/>
			<point x="554" y="743" type="curve"/>
			<point x="555" y="745"/>
			<point x="555" y="749"/>
			<point x="555" y="752" type="curve" smooth="yes"/>
			<point x="555" y="772"/>
			<point x="540" y="788"/>
			<point name=".hr03" x="518" y="788" type="curve" smooth="yes"/>
			<point x="516" y="788"/>
			<point x="513" y="788"/>
			<point x="511" y="787" type="curve"/>
			<point name=".hr04" x="488" y="784"/>
			<point x="469" y="765"/>
		</contour>
		<contour>
			<point x="274" y="742" type="curve"/>
			<point x="274" y="739"/>
			<point x="273" y="736"/>
			<point x="273" y="734" type="curve" smooth="yes"/>
			<point x="273" y="713"/>
			<point x="289" y="697"/>
			<point x="311" y="697" type="curve" smooth="yes"/>
			<point x="314" y="697"/>
			<point x="316" y="697"/>
			<point x="318" y="698" type="curve"/>
			<point x="341" y="701"/>
			<point x="361" y="720"/>
			<point x="365" y="742" type="curve"/>
			<point x="365" y="745"/>
			<point x="366" y="748"/>
			<point x="366" y="751" type="curve" smooth="yes"/>
			<point x="366" y="772"/>
			<point x="351" y="787"/>
			<point x="329" y="787" type="curve" smooth="yes"/>
			<point x="327" y="787"/>
			<point x="324" y="787"/>
			<point x="322" y="786" type="curve"/>
			<point x="299" y="783"/>
			<point x="279" y="765"/>
		</contour>
	</outline>
</glyph>
<glyph name="Icircumflex" format="2">
	<unicode hex="00CE"/>
	<advance width="280"/>
	<outline>
		<contour>
			<point x="213" y="569" type="curve" smooth="yes"/>
			<point x="123" y="111" type="line"/>
			<point x="121" y="99"/>
			<point x="118" y="88"/>
			<point x="116" y="76" type="curve"/>
			<point x="110" y="48"/>
			<point x="95" y="34"/>
			<point x="54" y="30" type="curve" smooth="yes"/>
			<point x="44" y="29"/>
			<point x="33" y="28"/>
			<point x="23" y="27" type="curve"/>
			<point x="19" y="23"/>
			<point x="17" y="7"/>
			<point x="21" y="-2" type="curve"/>
			<point x="66" y="-1"/>
			<point x="102" y="0"/>
			<point x="141" y="0" type="curve" smooth="yes"/>
			<point x="156" y="0" type="line" smooth="yes"/>
			<point x="190" y="0"/>
			<point x="230" y="-1"/>
			<point x="268" y="-2" type="curve"/>
			<point x="271" y="2"/>
			<point x="274" y="22"/>
			<point x="271" y="27" type="curve"/>
			<point x="260" y="28"/>
			<point x="248" y="29"/>
			<point x="237" y="30" type="curve" smooth="yes"/>
			<point x="198" y="33"/>
			<point x="187" y="46"/>
			<point x="193" y="76" type="curve"/>
			<point x="196" y="94"/>
			<point x="200" y="111"/>
			<point x="203" y="129" type="curve"/>
			<point x="283" y="534" type="line"/>
			<point x="285" y="546"/>
			<point x="288" y="557"/>
			<point x="290" y="569" type="curve"/>
			<point x="296" y="597"/>
			<point x="311" y="611"/>
			<point x="352" y="615" type="curve" smooth="yes"/>
			<point x="362" y="616"/>
			<point x="373" y="617"/>
			<point x="383" y="618" type="curve"/>
			<point x="387" y="622"/>
			<point x="389" y="638"/>
			<point x="385" y="647" type="curve"/>
			<point x="340" y="646"/>
			<point x="304" y="645"/>
			<point x="265" y="645" type="curve"/>
			<point x="265" y="645" type="line"/>
			<point x="227" y="645"/>
			<point x="182" y="646"/>
			<point x="138" y="647" type="curve"/>
			<point x="135" y="643"/>
			<point x="132" y="623"/>
			<point x="135" y="618" type="curve"/>
			<point x="146" y="617"/>
			<point x="158" y="616"/>
			<point x="169" y="615" type="curve" smooth="yes"/>
			<point x="208" y="612"/>
			<point x="219" y="599"/>
		</contour>
		<contour>
			<point x="398" y="717" type="curve"/>
			<point x="367" y="744"/>
			<point x="340" y="775"/>
			<point x="319" y="811" type="curve"/>
			<point x="276" y="811" type="line"/>
			<point x="238" y="777"/>
			<point x="198" y="745"/>
			<point x="155" y="717" type="curve"/>
			<point x="158" y="710"/>
			<point x="161" y="703"/>
			<point x="164" y="696" type="curve"/>
			<point x="206" y="713"/>
			<point x="242" y="731"/>
			<point x="285" y="758" type="curve"/>
			<point x="312" y="733"/>
			<point x="342" y="714"/>
			<point x="377" y="696" type="curve"/>
			<point x="384" y="703"/>
			<point x="391" y="710"/>
		</contour>
	</outline>
</glyph>
<glyph name="Ograve" format="2">
	<unicode hex="00D2"/>
	<advance width="668"/>
	<outline>
		<contour>
			<point x="331" y="-10" type="curve" smooth="yes"/>
			<point x="515" y="-10"/>
			<point x="660" y="129"/>
			<point x="699" y="329" type="curve" smooth="yes"/>
			<point x="704" y="355"/>
			<point x="706" y="380"/>
			<point x="706" y="403" type="curve" smooth="yes"/>
			<point x="706" y="559"/>
			<point x="601" y="658"/>
			<point x="455" y="658" type="curve" smooth="yes"/>
			<point x="363" y="658"/>
			<point x="277" y="614"/>
			<point x="211" y="543" type="curve" smooth="yes"/>
			<point x="154" y="482"/>
			<point x="113" y="400"/>
			<point x="95" y="310" type="curve" smooth="yes"/>
			<point x="90" y="283"/>
			<point x="87" y="258"/>
			<point x="87" y="234" type="curve" smooth="yes"/>
			<point x="87" y="82"/>
			<point x="188" y="-10"/>
		</contour>
		<contour>
			<point x="436" y="624" type="curve" smooth="yes"/>
			<point x="544" y="624"/>
			<point x="617" y="552"/>
			<point x="617" y="410" type="curve" smooth="yes"/>
			<point x="617" y="380"/>
			<point x="614" y="347"/>
			<point x="607" y="310" type="curve" smooth="yes"/>
			<point x="572" y="131"/>
			<point x="467" y="24"/>
			<point x="357" y="24" type="curve" smooth="yes"/>
			<point x="260" y="24"/>
			<point x="178" y="103"/>
			<point x="178" y="244" type="curve" smooth="yes"/>
			<point x="178" y="270"/>
			<point x="181" y="297"/>
			<point x="187" y="327" type="curve" smooth="yes"/>
			<point x="204" y="415"/>
			<point x="235" y="481"/>
			<point x="271" y="528" type="curve" smooth="yes"/>
			<point x="323" y="594"/>
			<point x="385" y="624"/>
		</contour>
		<contour>
			<point x="391" y="816" type="curve"/>
			<point x="362" y="801"/>
			<point x="333" y="786"/>
			<point x="304" y="771" type="curve"/>
			<point x="312" y="767" type="line"/>
			<point x="445" y="708" type="line" smooth="yes"/>
			<point x="458" y="702"/>
			<point x="469" y="698"/>
			<point x="479" y="697" type="curve"/>
			<point x="481" y="696"/>
			<point x="483" y="696"/>
			<point x="485" y="696" type="curve" smooth="yes"/>
			<point x="500" y="696"/>
			<point x="504" y="709"/>
			<point x="504" y="715" type="curve" smooth="yes"/>
			<point x="504" y="718"/>
			<point x="502" y="722"/>
			<point x="499" y="726" type="curve"/>
			<point x="497" y="728"/>
			<point x="495" y="730"/>
			<point x="493" y="732" type="curve"/>
			<point x="459" y="760"/>
			<point x="425" y="788"/>
		</contour>
	</outline>
</glyph>
<glyph name="Oacute" format="2">
	<unicode hex="00D3"/>
	<advance width="668"/>
	<outline>
		<contour>
			<point x="331" y="-10" type="curve" smooth="yes"/>
			<point x="515" y="-10"/>
			<point x="660" y="129"/>
			<point x="699" y="329" type="curve" smooth="yes"/>
			<point x="704" y="355"/>
			<point x="706" y="380"/>
			<point x="706" y="403" type="curve" smooth="yes"/>
			<point x="706" y="559"/>
			<point x="601" y="658"/>
			<point x="455" y="658" type="curve" smooth="yes"/>
			<point x="363" y="658"/>
			<point x="277" y="614"/>
			<point x="211" y="543" type="curve" smooth="yes"/>
			<point x="154" y="482"/>
			<point x="113" y="400"/>
			<point x="95" y="310" type="curve" smooth="yes"/>
			<point x="90" y="283"/>
			<point x="87" y="258"/>
			<point x="87" y="234" type="curve" smooth="yes"/>
			<point x="87" y="82"/>
			<point x="188" y="-10"/>
		</contour>
		<contour>
			<point x="436" y="624" type="curve" smooth="yes"/>
			<point x="544" y="624"/>
			<point x="617" y="552"/>
			<point x="617" y="410" type="curve" smooth="yes"/>
			<point x="617" y="380"/>
			<point x="614" y="347"/>
			<point x="607" y="310" type="curve" smooth="yes"/>
			<point x="572" y="131"/>
			<point x="467" y="24"/>
			<point x="357" y="24" type="curve" smooth="yes"/>
			<point x="260" y="24"/>
			<point x="178" y="103"/>
			<point x="178" y="244" type="curve" smooth="yes"/>
			<point x="178" y="270"/>
			<point x="181" y="297"/>
			<point x="187" y="327" type="curve" smooth="yes"/>
			<point x="204" y="415"/>
			<point x="235" y="481"/>
			<point x="271" y="528" type="curve" smooth="yes"/>
			<point x="323" y="594"/>
			<point x="385" y="624"/>
		</contour>
		<contour>
			<point x="531" y="816" type="curve"/>
			<point x="484" y="788"/>
			<point x="437" y="760"/>
			<point x="390" y="732" type="curve"/>
			<point x="387" y="730"/>
			<point x="383" y="728"/>
			<point x="381" y="726" type="curve"/>
			<point x="373" y="719"/>
			<point x="369" y="714"/>
			<point x="369" y="707" type="curve" smooth="yes"/>
			<point x="369" y="699"/>
			<point x="373" y="696"/>
			<point x="381" y="696" type="curve" smooth="yes"/>
			<point x="383" y="696"/>
			<point x="385" y="696"/>
			<point x="387" y="697" type="curve"/>
			<point x="397" y="698"/>
			<point x="410" y="702"/>
			<point x="427" y="708" type="curve" smooth="yes"/>
			<point x="578" y="764" type="line"/>
			<point x="596" y="771" type="line"/>
			<point x="574" y="786"/>
			<point x="553" y="801"/>
		</contour>
	</outline>
</glyph>
<glyph name="Ocircumflex" format="2">
	<unicode hex="00D4"/>
	<advance width="668"/>
	<outline>
		<contour>
			<point x="331" y="-10" type="curve" smooth="yes"/>
			<point x="515" y="-10"/>
			<point x="660" y="129"/>
			<point x="699" y="329" type="curve" smooth="yes"/>
			<point x="704" y="355"/>
			<point x="706" y="380"/>
			<point x="706" y="403" type="curve" smooth="yes"/>
			<point x="706" y="559"/>
			<point x="601" y="658"/>
			<point x="455" y="658" type="curve" smooth="yes"/>
			<point x="363" y="658"/>
			<point x="277" y="614"/>
			<point x="211" y="543" type="curve" smooth="yes"/>
			<point x="154" y="482"/>
			<point x="113" y="400"/>
			<point x="95" y="310" type="curve" smooth="yes"/>
			<point x="90" y="283"/>
			<point x="87" y="258"/>
			<point x="87" y="234" type="curve" smooth="yes"/>
			<point x="87" y="82"/>
			<point x="188" y="-10"/>
		</contour>
		<contour>
			<point x="436" y="624" type="curve" smooth="yes"/>
			<point x="544" y="624"/>
			<point x="617" y="552"/>
			<point x="617" y="410" type="curve" smooth="yes"/>
			<point x="617" y="380"/>
			<point x="614" y="347"/>
			<point x="607" y="310" type="curve" smooth="yes"/>
			<point x="572" y="131"/>
			<point x="467" y="24"/>
			<point x="357" y="24" type="curve" smooth="yes"/>
			<point x="260" y="24"/>
			<point x="178" y="103"/>
			<point x="178" y="244" type="curve" smooth="yes"/>
			<point x="178" y="270"/>
			<point x="181" y="297"/>
			<point x="187" y="327" type="curve" smooth="yes"/>
			<point x="204" y="415"/>
			<point x="235" y="481"/>
			<point x="271" y="528" type="curve" smooth="yes"/>
			<point x="323" y="594"/>
			<point x="385" y="624"/>
		</contour>
		<contour>
			<point x="580" y="717" type="curve"/>
			<point x="549" y="744"/>
			<point x="522" y="775"/>
			<point x="501" y="811" type="curve"/>
			<point x="458" y="811" type="line"/>
			<point x="420" y="777"/>
			<point x="380" y="745"/>
			<point x="337" y="717" type="curve"/>
			<point x="340" y="710"/>
			<point x="343" y="703"/>
			<point x="346" y="696" type="curve"/>
			<point x="388" y="713"/>
			<point x="424" y="731"/>
			<point x="467" y="758" type="curve"/>
			<point x="494" y="733"/>
			<point x="524" y="714"/>
			<point x="559" y="696" type="curve"/>
			<point x="566" y="703"/>
			<point x="573" y="710"/>
		</contour>
	</outline>
</glyph>
<glyph name="Otilde" format="2">
	<unicode hex="00D5"/>
	<advance width="668"/>
	<outline>
		<contour>
			<point x="331" y="-10" type="curve" smooth="yes"/>
			<point x="515" y="-10"/>
			<point x="660" y="129"/>
			<point x="699" y="329" type="curve" smooth="yes"/>
			<point x="704" y="355"/>
			<point x="706" y="380"/>
			<point x="706" y="403" type="curve" smooth="yes"/>
			<point x="706" y="559"/>
			<point x="601" y="658"/>
			<point x="455" y="658" type="curve" smooth="yes"/>
			<point x="363" y="658"/>
			<point x="277" y="614"/>
			<point x="211" y="543" type="curve" smooth="yes"/>
			<point x="154" y="482"/>
			<point x="113" y="400"/>
			<point x="95" y="310" type="curve" smooth="yes"/>
			<point x="90" y="283"/>
			<point x="87" y="258"/>
			<point x="87" y="234" type="curve" smooth="yes"/>
			<point x="87" y="82"/>
			<point x="188" y="-10"/>
		</contour>
		<contour>
			<point x="436" y="624" type="curve" smooth="yes"/>
			<point x="544" y="624"/>
			<point x="617" y="552"/>
			<point x="617" y="410" type="curve" smooth="yes"/>
			<point x="617" y="380"/>
			<point x="614" y="347"/>
			<point x="607" y="310" type="curve" smooth="yes"/>
			<point x="572" y="131"/>
			<point x="467" y="24"/>
			<point x="357" y="24" type="curve" smooth="yes"/>
			<point x="260" y="24"/>
			<point x="178" y="103"/>
			<point x="178" y="244" type="curve" smooth="yes"/>
			<point x="178" y="270"/>
			<point x="181" y="297"/>
			<point x="187" y="327" type="curve" smooth="yes"/>
			<point x="204" y="415"/>
			<point x="235" y="481"/>
			<point x="271" y="528" type="curve" smooth="yes"/>
			<point x="323" y="594"/>
			<point x="385" y="624"/>
		</contour>
		<contour>
			<point x="532" y="741" type="curve" smooth="yes"/>
			<point x="513" y="741"/>
			<point x="498" y="751"/>
			<point x="484" y="763" type="curve"/>
			<point x="482" y="764"/>
			<point x="481" y="766"/>
			<point x="479" y="767" type="curve"/>
			<point x="463" y="780"/>
			<point x="445" y="791"/>
			<point x="418" y="791" type="curve" smooth="yes"/>
			<point x="375" y="791"/>
			<point x="346" y="761"/>
			<point x="320" y="702" type="curve"/>
			<point x="328" y="700"/>
			<point x="335" y="699"/>
			<point x="343" y="697" type="curve"/>
			<point x="360" y="730"/>
			<point x="376" y="745"/>
			<point x="402" y="745" type="curve" smooth="yes"/>
			<point x="419" y="745"/>
			<point x="435" y="734"/>
			<point x="451" y="723" type="curve"/>
			<point x="453" y="721"/>
			<point x="455" y="720"/>
			<point x="457" y="718" type="curve"/>
			<point x="473" y="706"/>
			<point x="490" y="697"/>
			<point x="510" y="697" type="curve" smooth="yes"/>
			<point x="554" y="697"/>
			<point x="587" y="724"/>
			<point x="611" y="778" type="curve"/>
			<point x="612" y="781"/>
			<point x="614" y="784"/>
			<point x="615" y="787" type="curve"/>
			<point x="607" y="789"/>
			<point x="600" y="791"/>
			<point x="592" y="793" type="curve"/>
			<point x="570" y="751"/>
			<point x="554" y="741"/>
		</contour>
	</outline>
</glyph>
<glyph name="multiply" format="2">
	<unicode hex="00D7"/>
	<advance width="527"/>
	<outline>
		<contour>
			<point x="339" y="230" type="line"/>
			<point x="483" y="353" type="line"/>
			<point x="455" y="388" type="line"/>
			<point x="310" y="265" type="line"/>
			<point x="209" y="388" type="line"/>
			<point x="168" y="353" type="line"/>
			<point x="269" y="230" type="line"/>
			<point x="125" y="108" type="line"/>
			<point x="154" y="73" type="line"/>
			<point x="298" y="195" type="line"/>
			<point x="398" y="73" type="line"/>
			<point x="439" y="108" type="line"/>
		</contour>
	</outline>
</glyph>
<glyph name="Thorn" format="2">
	<unicode hex="00DE"/>
	<advance width="501"/>
	<outline>
		<contour>
			<point x="206" y="575" type="curve" smooth="yes"/>
			<point x="117" y="118" type="line" smooth="yes"/>
			<point x="114" y="102"/>
			<point x="111" y="87"/>
			<point x="108" y="72" type="curve" smooth="yes"/>
			<point x="102" y="44"/>
			<point x="87" y="32"/>
			<point x="47" y="29" type="curve"/>
			<point x="38" y="28"/>
			<point x="30" y="28"/>
			<point x="21" y="27" type="curve"/>
			<point x="19" y="27"/>
			<point x="17" y="26"/>
			<point x="15" y="25" type="curve"/>
			<point x="14" y="24"/>
			<point x="13" y="22"/>
			<point x="12" y="19" type="curve"/>
			<point x="11" y="13"/>
			<point x="9" y="6"/>
			<point x="8" y="0" type="curve"/>
			<point x="9" y="-1"/>
			<point x="9" y="-1"/>
			<point x="10" y="-2" type="curve"/>
			<point x="10" y="-2"/>
			<point x="100" y="0"/>
			<point x="134" y="0" type="curve" smooth="yes"/>
			<point x="172" y="0"/>
			<point x="255" y="-2"/>
			<point x="255" y="-2" type="curve"/>
			<point x="256" y="-1"/>
			<point x="256" y="-1"/>
			<point x="257" y="0" type="curve"/>
			<point x="258" y="6"/>
			<point x="260" y="13"/>
			<point x="261" y="19" type="curve"/>
			<point x="262" y="22"/>
			<point x="261" y="24"/>
			<point x="260" y="25" type="curve"/>
			<point x="258" y="26"/>
			<point x="257" y="27"/>
			<point x="255" y="27" type="curve"/>
			<point x="246" y="28"/>
			<point x="238" y="28"/>
			<point x="229" y="29" type="curve"/>
			<point x="193" y="32"/>
			<point x="180" y="41"/>
			<point x="186" y="72" type="curve" smooth="yes"/>
			<point x="189" y="87"/>
			<point x="192" y="101"/>
			<point x="195" y="116" type="curve" smooth="yes"/>
			<point x="203" y="159" type="line"/>
			<point x="216" y="154"/>
			<point x="241" y="152"/>
			<point x="274" y="152" type="curve" smooth="yes"/>
			<point x="282" y="152"/>
			<point x="289" y="152"/>
			<point x="297" y="153" type="curve"/>
			<point x="452" y="162"/>
			<point x="522" y="271"/>
			<point x="536" y="343" type="curve" smooth="yes"/>
			<point x="550" y="414"/>
			<point x="537" y="521"/>
			<point x="359" y="521" type="curve" smooth="yes"/>
			<point x="341" y="521"/>
			<point x="307" y="521"/>
			<point x="273" y="519" type="curve"/>
			<point x="276" y="533" type="line"/>
			<point x="278" y="547"/>
			<point x="281" y="561"/>
			<point x="283" y="575" type="curve"/>
			<point x="289" y="603"/>
			<point x="304" y="613"/>
			<point x="343" y="616" type="curve"/>
			<point x="352" y="617"/>
			<point x="361" y="617"/>
			<point x="370" y="618" type="curve"/>
			<point x="372" y="618"/>
			<point x="374" y="619"/>
			<point x="376" y="620" type="curve"/>
			<point x="377" y="622"/>
			<point x="379" y="624"/>
			<point x="379" y="626" type="curve"/>
			<point x="380" y="632"/>
			<point x="381" y="639"/>
			<point x="382" y="645" type="curve"/>
			<point x="382" y="645"/>
			<point x="381" y="646"/>
			<point x="381" y="646" type="curve"/>
			<point x="381" y="646"/>
			<point x="290" y="645"/>
			<point x="257" y="645" type="curve"/>
			<point x="257" y="645" type="line"/>
			<point x="219" y="645"/>
			<point x="136" y="646"/>
			<point x="136" y="646" type="curve"/>
			<point x="134" y="645" type="line"/>
			<point x="133" y="639"/>
			<point x="131" y="632"/>
			<point x="130" y="626" type="curve"/>
			<point x="130" y="624"/>
			<point x="130" y="622"/>
			<point x="131" y="620" type="curve"/>
			<point x="132" y="619"/>
			<point x="134" y="618"/>
			<point x="136" y="618" type="curve"/>
			<point x="144" y="617"/>
			<point x="153" y="617"/>
			<point x="161" y="616" type="curve"/>
			<point x="198" y="613"/>
			<point x="212" y="605"/>
		</contour>
		<contour>
			<point x="208" y="188" type="curve"/>
			<point x="265" y="479" type="line"/>
			<point x="286" y="485"/>
			<point x="334" y="490"/>
			<point x="352" y="490" type="curve" smooth="yes"/>
			<point x="358" y="490"/>
			<point x="365" y="490"/>
			<point x="371" y="489" type="curve"/>
			<point x="423" y="483"/>
			<point x="472" y="450"/>
			<point x="451" y="343" type="curve" smooth="yes"/>
			<point x="426" y="214"/>
			<point x="345" y="183"/>
			<point x="275" y="183" type="curve" smooth="yes"/>
			<point x="239" y="183"/>
			<point x="216" y="185"/>
		</contour>
	</outline>
</glyph>
<glyph name="germandbls" format="2">
	<unicode hex="00DF"/>
	<advance width="543"/>
	<outline>
		<contour>
			<point x="348" y="23" type="curve" smooth="yes"/>
			<point x="328" y="23"/>
			<point x="303" y="23"/>
			<point x="303" y="45" type="curve" smooth="yes"/>
			<point x="303" y="62"/>
			<point x="325" y="67"/>
			<point x="325" y="102" type="curve" smooth="yes"/>
			<point x="325" y="114"/>
			<point x="313" y="122"/>
			<point x="297" y="122" type="curve" smooth="yes"/>
			<point x="284" y="122"/>
			<point x="270" y="117"/>
			<point x="262" y="97" type="curve" smooth="yes"/>
			<point x="258" y="87"/>
			<point x="256" y="74"/>
			<point x="256" y="56" type="curve" smooth="yes"/>
			<point x="256" y="21"/>
			<point x="274" y="-10"/>
			<point x="340" y="-10" type="curve" smooth="yes"/>
			<point x="346" y="-10"/>
			<point x="351" y="-10"/>
			<point x="357" y="-9" type="curve"/>
			<point x="469" y="2"/>
			<point x="543" y="126"/>
			<point x="543" y="216" type="curve" smooth="yes"/>
			<point x="543" y="307"/>
			<point x="472" y="364"/>
			<point x="415" y="409" type="curve"/>
			<point x="415" y="411" type="line"/>
			<point x="489" y="459"/>
			<point name=".hr01" x="571" y="524"/>
			<point x="571" y="606" type="curve" smooth="yes"/>
			<point x="571" y="630"/>
			<point x="561" y="655"/>
			<point x="537" y="673" type="curve" smooth="yes"/>
			<point x="517" y="688"/>
			<point x="487" y="698"/>
			<point x="446" y="698" type="curve" smooth="yes"/>
			<point x="441" y="698"/>
			<point x="437" y="698"/>
			<point x="432" y="698" type="curve"/>
			<point x="333" y="693"/>
			<point x="248" y="632"/>
			<point x="206" y="477" type="curve"/>
			<point x="204" y="472"/>
			<point x="203" y="466"/>
			<point x="200" y="462" type="curve"/>
			<point x="192" y="442"/>
			<point x="178" y="429"/>
			<point x="153" y="429" type="curve"/>
			<point x="153" y="429"/>
			<point x="153" y="429"/>
			<point x="153" y="429" type="curve"/>
			<point x="129" y="429"/>
			<point x="123" y="405"/>
			<point x="123" y="397" type="curve" smooth="yes"/>
			<point x="123" y="392"/>
			<point x="126" y="390"/>
			<point x="131" y="390" type="curve" smooth="yes"/>
			<point x="172" y="390" type="line" smooth="yes"/>
			<point x="182" y="390"/>
			<point x="184" y="390"/>
			<point x="184" y="379" type="curve"/>
			<point x="165" y="287"/>
			<point x="152" y="208"/>
			<point x="140" y="141" type="curve" smooth="yes"/>
			<point x="126" y="60"/>
			<point x="103" y="-85"/>
			<point x="76" y="-151" type="curve"/>
			<point x="75" y="-155"/>
			<point x="73" y="-158"/>
			<point x="72" y="-161" type="curve"/>
			<point x="60" y="-186"/>
			<point x="40" y="-205"/>
			<point x="22" y="-205" type="curve" smooth="yes"/>
			<point x="9" y="-205"/>
			<point x="3" y="-195"/>
			<point x="-5" y="-182" type="curve" smooth="yes"/>
			<point x="-13" y="-169"/>
			<point x="-27" y="-158"/>
			<point x="-47" y="-158" type="curve" smooth="yes"/>
			<point x="-72" y="-158"/>
			<point x="-82" y="-175"/>
			<point x="-82" y="-190" type="curve" smooth="yes"/>
			<point x="-82" y="-209"/>
			<point x="-67" y="-238"/>
			<point x="2" y="-238" type="curve" smooth="yes"/>
			<point x="7" y="-238"/>
			<point x="11" y="-238"/>
			<point x="16" y="-237" type="curve"/>
			<point x="49" y="-234"/>
			<point x="79" y="-217"/>
			<point x="104" y="-182" type="curve" smooth="yes"/>
			<point x="112" y="-171"/>
			<point x="119" y="-158"/>
			<point x="126" y="-145" type="curve"/>
			<point x="160" y="-76"/>
			<point x="184" y="22"/>
			<point x="208" y="136" type="curve" smooth="yes"/>
			<point x="223" y="210"/>
			<point x="239" y="291"/>
			<point x="257" y="374" type="curve" smooth="yes"/>
			<point x="260" y="388" type="line"/>
			<point x="272" y="442" type="line"/>
			<point x="276" y="459" type="line" smooth="yes"/>
			<point x="298" y="556"/>
			<point x="328" y="654"/>
			<point x="414" y="665" type="curve"/>
			<point x="419" y="666"/>
			<point x="425" y="666"/>
			<point x="430" y="666" type="curve" smooth="yes"/>
			<point x="466" y="666"/>
			<point x="485" y="649"/>
			<point x="490" y="621" type="curve" smooth="yes"/>
			<point x="491" y="616"/>
			<point x="491" y="611"/>
			<point x="491" y="606" type="curve" smooth="yes"/>
			<point x="491" y="506"/>
			<point x="380" y="426"/>
			<point x="354" y="409" type="curve"/>
			<point x="351" y="396" type="line"/>
			<point x="401" y="350"/>
			<point x="440" y="294"/>
			<point x="449" y="231" type="curve"/>
			<point x="450" y="222"/>
			<point name=".hr02" x="451" y="212"/>
			<point x="451" y="202" type="curve" smooth="yes"/>
			<point x="451" y="121"/>
			<point x="396" y="23"/>
		</contour>
	</outline>
</glyph>
<glyph name="aacute" format="2">
	<unicode hex="00E1"/>
	<advance width="486"/>
	<outline>
		<contour>
			<point x="460" y="431" type="curve"/>
			<point x="442" y="430"/>
			<point x="425" y="429"/>
			<point x="410" y="433" type="curve"/>
			<point x="403" y="434"/>
			<point x="397" y="435"/>
			<point x="392" y="435" type="curve"/>
			<point x="386" y="436"/>
			<point x="381" y="437"/>
			<point x="375" y="437" type="curve"/>
			<point x="363" y="438"/>
			<point name=".hr01" x="350" y="439"/>
			<point x="330" y="439" type="curve" smooth="yes"/>
			<point x="327" y="439"/>
			<point x="325" y="439"/>
			<point x="322" y="439" type="curve"/>
			<point x="262" y="434"/>
			<point x="192" y="384"/>
			<point x="143" y="313" type="curve" smooth="yes"/>
			<point x="104" y="258"/>
			<point x="78" y="192"/>
			<point x="78" y="125" type="curve" smooth="yes"/>
			<point x="78" y="122"/>
			<point x="78" y="119"/>
			<point x="78" y="115" type="curve"/>
			<point x="80" y="60"/>
			<point x="96" y="-10"/>
			<point x="175" y="-10" type="curve" smooth="yes"/>
			<point x="228" y="-10"/>
			<point x="284" y="45"/>
			<point x="344" y="134" type="curve"/>
			<point x="346" y="132" type="line"/>
			<point x="340" y="111" type="line"/>
			<point x="337" y="104"/>
			<point x="335" y="97"/>
			<point x="333" y="90" type="curve"/>
			<point x="328" y="75"/>
			<point x="325" y="61"/>
			<point x="324" y="49" type="curve"/>
			<point x="323" y="44"/>
			<point x="323" y="39"/>
			<point x="323" y="35" type="curve"/>
			<point x="323" y="35"/>
			<point x="323" y="35"/>
			<point x="323" y="35" type="curve"/>
			<point x="323" y="19"/>
			<point x="328" y="-3"/>
			<point x="351" y="-9" type="curve"/>
			<point x="355" y="-9"/>
			<point x="359" y="-10"/>
			<point x="364" y="-10" type="curve" smooth="yes"/>
			<point x="426" y="-10"/>
			<point x="466" y="30"/>
			<point x="492" y="87" type="curve"/>
			<point x="487" y="96"/>
			<point x="482" y="103"/>
			<point x="469" y="103" type="curve"/>
			<point x="442" y="66"/>
			<point x="423" y="50"/>
			<point x="413" y="50" type="curve" smooth="yes"/>
			<point x="410" y="50"/>
			<point x="401" y="52"/>
			<point x="401" y="64" type="curve" smooth="yes"/>
			<point x="401" y="73"/>
			<point x="407" y="101"/>
			<point x="411" y="120" type="curve" smooth="yes"/>
			<point x="454" y="313" type="line" smooth="yes"/>
			<point x="463" y="352"/>
			<point x="471" y="392"/>
			<point name=".hr02" x="480" y="431" type="curve"/>
			<point x="473" y="431"/>
			<point x="467" y="431"/>
		</contour>
		<contour>
			<point x="360" y="219" type="curve"/>
			<point x="314" y="135"/>
			<point x="244" y="56"/>
			<point x="209" y="46" type="curve"/>
			<point x="206" y="45"/>
			<point x="204" y="45"/>
			<point x="202" y="45" type="curve" smooth="yes"/>
			<point x="178" y="45"/>
			<point x="166" y="65"/>
			<point x="161" y="97" type="curve" smooth="yes"/>
			<point x="159" y="110"/>
			<point x="158" y="125"/>
			<point x="158" y="141" type="curve" smooth="yes"/>
			<point x="158" y="197"/>
			<point x="181" y="267"/>
			<point x="216" y="322" type="curve" smooth="yes"/>
			<point x="247" y="371"/>
			<point x="289" y="408"/>
			<point name=".hr03" x="333" y="408" type="curve" smooth="yes"/>
			<point x="338" y="408"/>
			<point x="344" y="408"/>
			<point x="349" y="407" type="curve" smooth="yes"/>
			<point x="365" y="404"/>
			<point x="381" y="398"/>
			<point x="395" y="389" type="curve"/>
			<point x="395" y="389"/>
			<point x="385" y="283"/>
		</contour>
		<contour>
			<point x="368" y="666" type="curve"/>
			<point x="268" y="547" type="line"/>
			<point x="266" y="544"/>
			<point x="263" y="541"/>
			<point x="261" y="539" type="curve"/>
			<point x="256" y="532"/>
			<point x="253" y="527"/>
			<point x="251" y="519" type="curve"/>
			<point x="250" y="512"/>
			<point x="256" y="506"/>
			<point x="263" y="506" type="curve" smooth="yes"/>
			<point x="270" y="506"/>
			<point x="278" y="510"/>
			<point x="296" y="525" type="curve"/>
			<point x="434" y="634" type="line"/>
			<point x="433" y="645" type="line"/>
			<point x="414" y="667"/>
			<point x="389" y="668"/>
			<point x="383" y="668" type="curve" smooth="yes"/>
			<point x="378" y="668"/>
			<point x="371" y="667"/>
		</contour>
	</outline>
</glyph>
<glyph name="atilde" format="2">
	<unicode hex="00E3"/>
	<advance width="486"/>
	<outline>
		<contour>
			<point x="460" y="431" type="curve"/>
			<point x="442" y="430"/>
			<point x="425" y="429"/>
			<point x="410" y="433" type="curve"/>
			<point x="403" y="434"/>
			<point x="397" y="435"/>
			<point x="392" y="435" type="curve"/>
			<point x="386" y="436"/>
			<point x="381" y="437"/>
			<point x="375" y="437" type="curve"/>
			<point x="363" y="438"/>
			<point name=".hr01" x="350" y="439"/>
			<point x="330" y="439" type="curve" smooth="yes"/>
			<point x="327" y="439"/>
			<point x="325" y="439"/>
			<point x="322" y="439" type="curve"/>
			<point x="262" y="434"/>
			<point x="192" y="384"/>
			<point x="143" y="313" type="curve" smooth="yes"/>
			<point x="104" y="258"/>
			<point x="78" y="192"/>
			<point x="78" y="125" type="curve" smooth="yes"/>
			<point x="78" y="122"/>
			<point x="78" y="119"/>
			<point x="78" y="115" type="curve"/>
			<point x="80" y="60"/>
			<point x="96" y="-10"/>
			<point x="175" y="-10" type="curve" smooth="yes"/>
			<point x="228" y="-10"/>
			<point x="284" y="45"/>
			<point x="344" y="134" type="curve"/>
			<point x="346" y="132" type="line"/>
			<point x="340" y="111" type="line"/>
			<point x="337" y="104"/>
			<point x="335" y="97"/>
			<point x="333" y="90" type="curve"/>
			<point x="328" y="75"/>
			<point x="325" y="61"/>
			<point x="324" y="49" type="curve"/>
			<point x="323" y="44"/>
			<point x="323" y="39"/>
			<point x="323" y="35" type="curve"/>
			<point x="323" y="35"/>
			<point x="323" y="35"/>
			<point x="323" y="35" type="curve"/>
			<point x="323" y="19"/>
			<point x="328" y="-3"/>
			<point x="351" y="-9" type="curve"/>
			<point x="355" y="-9"/>
			<point x="359" y="-10"/>
			<point x="364" y="-10" type="curve" smooth="yes"/>
			<point x="426" y="-10"/>
			<point x="466" y="30"/>
			<point x="492" y="87" type="curve"/>
			<point x="487" y="96"/>
			<point x="482" y="103"/>
			<point x="469" y="103" type="curve"/>
			<point x="442" y="66"/>
			<point x="423" y="50"/>
			<point x="413" y="50" type="curve" smooth="yes"/>
			<point x="410" y="50"/>
			<point x="401" y="52"/>
			<point x="401" y="64" type="curve" smooth="yes"/>
			<point x="401" y="73"/>
			<point x="407" y="101"/>
			<point x="411" y="120" type="curve" smooth="yes"/>
			<point x="454" y="313" type="line" smooth="yes"/>
			<point x="463" y="352"/>
			<point x="471" y="392"/>
			<point name=".hr02" x="480" y="431" type="curve"/>
			<point x="473" y="431"/>
			<point x="467" y="431"/>
		</contour>
		<contour>
			<point x="360" y="219" type="curve"/>
			<point x="314" y="135"/>
			<point x="244" y="56"/>
			<point x="209" y="46" type="curve"/>
			<point x="206" y="45"/>
			<point x="204" y="45"/>
			<point x="202" y="45" type="curve" smooth="yes"/>
			<point x="178" y="45"/>
			<point x="166" y="65"/>
			<point x="161" y="97" type="curve" smooth="yes"/>
			<point x="159" y="110"/>
			<point x="158" y="125"/>
			<point x="158" y="141" type="curve" smooth="yes"/>
			<point x="158" y="197"/>
			<point x="181" y="267"/>
			<point x="216" y="322" type="curve" smooth="yes"/>
			<point x="247" y="371"/>
			<point x="289" y="408"/>
			<point name=".hr03" x="333" y="408" type="curve" smooth="yes"/>
			<point x="338" y="408"/>
			<point x="344" y="408"/>
			<point x="349" y="407" type="curve" smooth="yes"/>
			<point x="365" y="404"/>
			<point x="381" y="398"/>
			<point x="395" y="389" type="curve"/>
			<point x="395" y="389"/>
			<point x="385" y="283"/>
		</contour>
		<contour>
			<point x="396" y="565" type="curve" smooth="yes"/>
			<point x="377" y="565"/>
			<point x="362" y="575"/>
			<point x="348" y="587" type="curve"/>
			<point x="346" y="588"/>
			<point x="345" y="590"/>
			<point x="343" y="591" type="curve"/>
			<point x="327" y="604"/>
			<point x="309" y="615"/>
			<point x="282" y="615" type="curve" smooth="yes"/>
			<point x="239" y="615"/>
			<point x="210" y="585"/>
			<point x="184" y="526" type="curve"/>
			<point x="192" y="524"/>
			<point x="199" y="523"/>
			<point x="207" y="521" type="curve"/>
			<point x="224" y="554"/>
			<point x="240" y="569"/>
			<point x="266" y="569" type="curve" smooth="yes"/>
			<point x="283" y="569"/>
			<point x="299" y="558"/>
			<point x="315" y="547" type="curve"/>
			<point x="317" y="545"/>
			<point x="319" y="544"/>
			<point x="321" y="542" type="curve"/>
			<point x="337" y="530"/>
			<point x="354" y="521"/>
			<point x="374" y="521" type="curve" smooth="yes"/>
			<point x="418" y="521"/>
			<point x="451" y="548"/>
			<point x="475" y="602" type="curve"/>
			<point x="476" y="605"/>
			<point x="478" y="608"/>
			<point x="479" y="611" type="curve"/>
			<point x="471" y="613"/>
			<point x="464" y="615"/>
			<point x="456" y="617" type="curve"/>
			<point x="434" y="575"/>
			<point x="418" y="565"/>
		</contour>
	</outline>
</glyph>
<glyph name="eacute" format="2">
	<unicode hex="00E9"/>
	<advance width="401"/>
	<outline>
		<contour>
			<point x="167" y="199" type="curve"/>
			<point x="424" y="249"/>
			<point x="424" y="325"/>
			<point x="424" y="363" type="curve"/>
			<point x="424" y="364"/>
			<point x="424" y="364"/>
			<point x="424" y="365" type="curve"/>
			<point x="424" y="390"/>
			<point x="401" y="439"/>
			<point x="329" y="439" type="curve" smooth="yes"/>
			<point x="155" y="439"/>
			<point x="83" y="269"/>
			<point x="83" y="142" type="curve" smooth="yes"/>
			<point x="83" y="57"/>
			<point x="123" y="-10"/>
			<point x="206" y="-10" type="curve" smooth="yes"/>
			<point x="273" y="-10"/>
			<point x="334" y="25"/>
			<point x="393" y="101" type="curve"/>
			<point x="388" y="112"/>
			<point x="382" y="117"/>
			<point x="370" y="117" type="curve"/>
			<point x="313" y="59"/>
			<point x="290" y="50"/>
			<point x="242" y="50" type="curve" smooth="yes"/>
			<point x="197" y="50"/>
			<point x="166" y="74"/>
			<point x="166" y="165" type="curve" smooth="yes"/>
			<point x="166" y="170"/>
			<point x="166" y="191"/>
		</contour>
		<contour>
			<point x="373" y="666" type="curve"/>
			<point x="273" y="547" type="line"/>
			<point x="263" y="534"/>
			<point x="258" y="530"/>
			<point x="256" y="519" type="curve"/>
			<point x="255" y="512"/>
			<point x="261" y="506"/>
			<point x="268" y="506" type="curve" smooth="yes"/>
			<point x="275" y="506"/>
			<point x="283" y="510"/>
			<point x="301" y="525" type="curve"/>
			<point x="439" y="634" type="line"/>
			<point x="438" y="645" type="line"/>
			<point x="419" y="667"/>
			<point x="394" y="668"/>
			<point x="388" y="668" type="curve" smooth="yes"/>
			<point x="383" y="668"/>
			<point x="376" y="667"/>
		</contour>
		<contour>
			<point x="355" y="370" type="curve" smooth="yes"/>
			<point x="355" y="280"/>
			<point x="250" y="247"/>
			<point x="174" y="237" type="curve"/>
			<point x="209" y="379"/>
			<point x="264" y="408"/>
			<point x="306" y="408" type="curve" smooth="yes"/>
			<point x="342" y="408"/>
			<point x="355" y="399"/>
		</contour>
	</outline>
</glyph>
<glyph name="ecircumflex" format="2">
	<unicode hex="00EA"/>
	<advance width="401"/>
	<outline>
		<contour>
			<point x="167" y="199" type="curve"/>
			<point x="424" y="249"/>
			<point x="424" y="325"/>
			<point x="424" y="363" type="curve"/>
			<point x="424" y="364"/>
			<point x="424" y="364"/>
			<point x="424" y="365" type="curve"/>
			<point x="424" y="390"/>
			<point x="401" y="439"/>
			<point x="329" y="439" type="curve" smooth="yes"/>
			<point x="155" y="439"/>
			<point x="83" y="269"/>
			<point x="83" y="142" type="curve" smooth="yes"/>
			<point x="83" y="57"/>
			<point x="123" y="-10"/>
			<point x="206" y="-10" type="curve" smooth="yes"/>
			<point x="273" y="-10"/>
			<point x="334" y="25"/>
			<point x="393" y="101" type="curve"/>
			<point x="388" y="112"/>
			<point x="382" y="117"/>
			<point x="370" y="117" type="curve"/>
			<point x="313" y="59"/>
			<point x="290" y="50"/>
			<point x="242" y="50" type="curve" smooth="yes"/>
			<point x="197" y="50"/>
			<point x="166" y="74"/>
			<point x="166" y="165" type="curve" smooth="yes"/>
			<point x="166" y="170"/>
			<point x="166" y="191"/>
		</contour>
		<contour>
			<point x="350" y="653" type="curve"/>
			<point x="300" y="653" type="line"/>
			<point x="261" y="607"/>
			<point x="215" y="564"/>
			<point x="171" y="524" type="curve"/>
			<point x="188" y="510" type="line"/>
			<point x="231" y="537"/>
			<point x="268" y="562"/>
			<point x="313" y="600" type="curve"/>
			<point x="340" y="564"/>
			<point x="368" y="539"/>
			<point x="401" y="510" type="curve"/>
			<point x="425" y="524" type="line"/>
			<point x="397" y="564"/>
			<point x="369" y="606"/>
		</contour>
		<contour>
			<point x="355" y="370" type="curve" smooth="yes"/>
			<point x="355" y="280"/>
			<point x="250" y="247"/>
			<point x="174" y="237" type="curve"/>
			<point x="209" y="379"/>
			<point x="264" y="408"/>
			<point x="306" y="408" type="curve" smooth="yes"/>
			<point x="342" y="408"/>
			<point x="355" y="399"/>
		</contour>
	</outline>
</glyph>
<glyph name="icircumflex" format="2">
	<unicode hex="00EE"/>
	<advance width="276"/>
	<outline>
		<contour>
			<point x="245" y="320" type="line" smooth="yes"/>
			<point x="254" y="359"/>
			<point x="266" y="398"/>
			<point x="266" y="415" type="curve" smooth="yes"/>
			<point x="266" y="429"/>
			<point x="258" y="436"/>
			<point x="245" y="436" type="curve" smooth="yes"/>
			<point x="213" y="436"/>
			<point x="168" y="429"/>
			<point x="121" y="423" type="curve"/>
			<point x="114" y="415"/>
			<point x="116" y="404"/>
			<point x="122" y="395" type="curve"/>
			<point x="162" y="392" type="line" smooth="yes"/>
			<point x="174" y="391"/>
			<point x="180" y="382"/>
			<point x="180" y="372" type="curve" smooth="yes"/>
			<point x="180" y="363"/>
			<point x="178" y="349"/>
			<point x="171" y="321" type="curve" smooth="yes"/>
			<point x="124" y="115" type="line" smooth="yes"/>
			<point x="117" y="83"/>
			<point x="107" y="42"/>
			<point x="107" y="23" type="curve" smooth="yes"/>
			<point x="107" y="4"/>
			<point x="118" y="-10"/>
			<point x="148" y="-10" type="curve" smooth="yes"/>
			<point x="196" y="-10"/>
			<point x="241" y="24"/>
			<point x="287" y="83" type="curve"/>
			<point x="284" y="92"/>
			<point x="278" y="100"/>
			<point x="264" y="100" type="curve"/>
			<point x="238" y="70"/>
			<point x="209" y="50"/>
			<point x="199" y="50" type="curve" smooth="yes"/>
			<point x="192" y="50"/>
			<point x="189" y="55"/>
			<point x="189" y="67" type="curve" smooth="yes"/>
			<point x="189" y="76"/>
			<point x="194" y="98"/>
			<point x="200" y="124" type="curve" smooth="yes"/>
		</contour>
		<contour>
			<point x="281" y="653" type="curve"/>
			<point x="231" y="653" type="line"/>
			<point x="192" y="607"/>
			<point x="146" y="564"/>
			<point x="102" y="524" type="curve"/>
			<point x="119" y="510" type="line"/>
			<point x="162" y="537"/>
			<point x="199" y="562"/>
			<point x="244" y="600" type="curve"/>
			<point x="271" y="564"/>
			<point x="299" y="539"/>
			<point x="332" y="510" type="curve"/>
			<point x="356" y="524" type="line"/>
			<point x="328" y="564"/>
			<point x="300" y="606"/>
		</contour>
	</outline>
</glyph>
<glyph name="ntilde" format="2">
	<unicode hex="00F1"/>
	<advance width="518"/>
	<outline>
		<contour>
			<point x="158" y="321" type="curve" smooth="yes"/>
			<point x="102" y="72" type="line" smooth="yes"/>
			<point x="97" y="52"/>
			<point x="89" y="27"/>
			<point x="89" y="17" type="curve" smooth="yes"/>
			<point x="89" y="1"/>
			<point x="100" y="-10"/>
			<point x="132" y="-10" type="curve" smooth="yes"/>
			<point x="170" y="-10"/>
			<point x="169" y="34"/>
			<point x="178" y="72" type="curve" smooth="yes"/>
			<point x="179" y="76"/>
			<point x="180" y="80"/>
			<point x="181" y="84" type="curve" smooth="yes"/>
			<point x="216" y="238" type="line"/>
			<point x="272" y="310"/>
			<point x="321" y="365"/>
			<point x="357" y="377" type="curve"/>
			<point x="361" y="378"/>
			<point x="366" y="379"/>
			<point x="370" y="379" type="curve" smooth="yes"/>
			<point x="391" y="379"/>
			<point x="405" y="374"/>
			<point x="405" y="343" type="curve" smooth="yes"/>
			<point x="405" y="331"/>
			<point x="399" y="303"/>
			<point x="392" y="275" type="curve" smooth="yes"/>
			<point x="354" y="115" type="line" smooth="yes"/>
			<point x="346" y="83"/>
			<point x="337" y="42"/>
			<point x="337" y="23" type="curve" smooth="yes"/>
			<point x="337" y="4"/>
			<point x="348" y="-10"/>
			<point x="378" y="-10" type="curve" smooth="yes"/>
			<point x="426" y="-10"/>
			<point x="474" y="24"/>
			<point x="520" y="83" type="curve"/>
			<point x="517" y="92"/>
			<point x="511" y="100"/>
			<point x="497" y="100" type="curve"/>
			<point x="471" y="70"/>
			<point x="442" y="50"/>
			<point x="432" y="50" type="curve" smooth="yes"/>
			<point x="425" y="50"/>
			<point x="422" y="55"/>
			<point x="422" y="67" type="curve" smooth="yes"/>
			<point x="422" y="76"/>
			<point x="427" y="98"/>
			<point x="433" y="124" type="curve" smooth="yes"/>
			<point x="471" y="283" type="line" smooth="yes"/>
			<point x="479" y="318"/>
			<point x="484" y="341"/>
			<point x="484" y="359" type="curve" smooth="yes"/>
			<point x="484" y="419"/>
			<point x="457" y="439"/>
			<point x="418" y="439" type="curve" smooth="yes"/>
			<point x="415" y="439"/>
			<point x="413" y="439"/>
			<point x="410" y="439" type="curve"/>
			<point x="361" y="437"/>
			<point x="318" y="412"/>
			<point x="231" y="310" type="curve"/>
			<point x="230" y="311" type="line"/>
			<point x="231" y="314"/>
			<point x="232" y="317"/>
			<point x="233" y="320" type="curve" smooth="yes"/>
			<point x="246" y="357"/>
			<point x="255" y="400"/>
			<point x="255" y="415" type="curve" smooth="yes"/>
			<point x="255" y="429"/>
			<point name=".hr01" x="247" y="436"/>
			<point x="234" y="436" type="curve" smooth="yes"/>
			<point x="202" y="436"/>
			<point x="155" y="430"/>
			<point x="108" y="423" type="curve"/>
			<point x="101" y="415"/>
			<point x="103" y="404"/>
			<point x="109" y="395" type="curve"/>
			<point x="149" y="392" type="line" smooth="yes"/>
			<point x="161" y="391"/>
			<point x="167" y="382"/>
			<point x="167" y="372" type="curve" smooth="yes"/>
			<point x="167" y="364"/>
			<point x="164" y="349"/>
		</contour>
		<contour>
			<point x="437" y="570" type="curve" smooth="yes"/>
			<point x="418" y="570"/>
			<point x="403" y="580"/>
			<point x="389" y="592" type="curve"/>
			<point x="387" y="593"/>
			<point x="386" y="595"/>
			<point x="384" y="596" type="curve"/>
			<point x="368" y="609"/>
			<point x="350" y="620"/>
			<point x="323" y="620" type="curve" smooth="yes"/>
			<point x="280" y="620"/>
			<point x="251" y="590"/>
			<point x="225" y="531" type="curve"/>
			<point x="233" y="529"/>
			<point x="240" y="528"/>
			<point x="248" y="526" type="curve"/>
			<point x="265" y="559"/>
			<point x="281" y="574"/>
			<point x="307" y="574" type="curve" smooth="yes"/>
			<point x="324" y="574"/>
			<point x="340" y="563"/>
			<point x="356" y="552" type="curve"/>
			<point x="358" y="550"/>
			<point x="360" y="549"/>
			<point x="362" y="547" type="curve"/>
			<point x="378" y="535"/>
			<point x="395" y="526"/>
			<point x="415" y="526" type="curve" smooth="yes"/>
			<point x="459" y="526"/>
			<point x="492" y="553"/>
			<point x="516" y="607" type="curve"/>
			<point x="517" y="610"/>
			<point x="519" y="613"/>
			<point x="520" y="616" type="curve"/>
			<point x="512" y="618"/>
			<point x="505" y="620"/>
			<point x="497" y="622" type="curve"/>
			<point x="475" y="580"/>
			<point x="459" y="570"/>
		</contour>
	</outline>
</glyph>
<glyph name="ocircumflex" format="2">
	<unicode hex="00F4"/>
	<advance width="447"/>
	<outline>
		<contour>
			<point x="218" y="-10" type="curve" smooth="yes"/>
			<point x="250" y="-10"/>
			<point x="281" y="-6"/>
			<point x="310" y="9" type="curve"/>
			<point x="317" y="12"/>
			<point x="323" y="16"/>
			<point x="330" y="20" type="curve"/>
			<point x="407" y="69"/>
			<point x="465" y="168"/>
			<point x="465" y="277" type="curve" smooth="yes"/>
			<point x="465" y="349"/>
			<point x="447" y="439"/>
			<point x="324" y="439" type="curve" smooth="yes"/>
			<point x="275" y="439"/>
			<point x="233" y="425"/>
			<point x="199" y="403" type="curve" smooth="yes"/>
			<point x="117" y="350"/>
			<point x="78" y="247"/>
			<point x="78" y="162" type="curve" smooth="yes"/>
			<point x="78" y="109"/>
			<point x="91" y="-10"/>
		</contour>
		<contour>
			<point x="161" y="170" type="curve" smooth="yes"/>
			<point x="161" y="260"/>
			<point x="200" y="406"/>
			<point x="306" y="406" type="curve" smooth="yes"/>
			<point x="336" y="406"/>
			<point x="352" y="390"/>
			<point x="367" y="362" type="curve"/>
			<point x="379" y="337"/>
			<point x="382" y="300"/>
			<point x="382" y="270" type="curve" smooth="yes"/>
			<point x="382" y="230"/>
			<point x="376" y="144"/>
			<point x="339" y="88" type="curve" smooth="yes"/>
			<point x="311" y="45"/>
			<point x="271" y="27"/>
			<point x="233" y="27" type="curve" smooth="yes"/>
			<point x="204" y="27"/>
			<point x="161" y="65"/>
		</contour>
		<contour>
			<point x="362" y="653" type="curve"/>
			<point x="312" y="653" type="line"/>
			<point x="274" y="607"/>
			<point x="227" y="564"/>
			<point x="183" y="524" type="curve"/>
			<point x="200" y="510" type="line"/>
			<point x="243" y="537"/>
			<point x="280" y="562"/>
			<point x="325" y="600" type="curve"/>
			<point x="352" y="564"/>
			<point x="380" y="539"/>
			<point x="413" y="510" type="curve"/>
			<point x="437" y="524" type="line"/>
			<point x="409" y="564"/>
			<point x="381" y="606"/>
		</contour>
	</outline>
</glyph>
<glyph name="odieresis" format="2">
	<unicode hex="00F6"/>
	<advance width="447"/>
	<outline>
		<contour>
			<point x="218" y="-10" type="curve" smooth="yes"/>
			<point x="250" y="-10"/>
			<point x="281" y="-6"/>
			<point x="310" y="9" type="curve"/>
			<point x="317" y="12"/>
			<point x="323" y="16"/>
			<point x="330" y="20" type="curve"/>
			<point x="407" y="69"/>
			<point x="465" y="168"/>
			<point x="465" y="277" type="curve" smooth="yes"/>
			<point x="465" y="349"/>
			<point x="447" y="439"/>
			<point x="324" y="439" type="curve" smooth="yes"/>
			<point x="275" y="439"/>
			<point x="233" y="425"/>
			<point x="199" y="403" type="curve" smooth="yes"/>
			<point x="117" y="350"/>
			<point x="78" y="247"/>
			<point x="78" y="162" type="curve" smooth="yes"/>
			<point x="78" y="109"/>
			<point x="91" y="-10"/>
		</contour>
		<contour>
			<point x="161" y="170" type="curve" smooth="yes"/>
			<point x="161" y="260"/>
			<point x="200" y="406"/>
			<point x="306" y="406" type="curve" smooth="yes"/>
			<point x="336" y="406"/>
			<point x="352" y="390"/>
			<point x="367" y="362" type="curve"/>
			<point x="379" y="337"/>
			<point x="382" y="300"/>
			<point x="382" y="270" type="curve" smooth="yes"/>
			<point x="382" y="230"/>
			<point x="376" y="144"/>
			<point x="339" y="88" type="curve" smooth="yes"/>
			<point x="311" y="45"/>
			<point x="271" y="27"/>
			<point x="233" y="27" type="curve" smooth="yes"/>
			<point x="204" y="27"/>
			<point x="161" y="65"/>
		</contour>
		<contour>
			<point x="190" y="573" type="curve" smooth="yes"/>
			<point x="190" y="548"/>
			<point x="211" y="527"/>
			<point x="236" y="527" type="curve" smooth="yes"/>
			<point x="261" y="527"/>
			<point x="282" y="548"/>
			<point x="282" y="573" type="curve" smooth="yes"/>
			<point x="282" y="598"/>
			<point x="261" y="619"/>
			<point x="236" y="619" type="curve" smooth="yes"/>
			<point x="211" y="619"/>
			<point x="190" y="598"/>
		</contour>
		<contour>
			<point x="350" y="573" type="curve" smooth="yes"/>
			<point x="350" y="548"/>
			<point x="371" y="527"/>
			<point name=".hr01" x="396" y="527" type="curve" smooth="yes"/>
			<point x="421" y="527"/>
			<point x="442" y="548"/>
			<point x="442" y="573" type="curve" smooth="yes"/>
			<point x="442" y="598"/>
			<point x="421" y="619"/>
			<point x="396" y="619" type="curve" smooth="yes"/>
			<point x="371" y="619"/>
			<point x="350" y="598"/>
		</contour>
	</outline>
</glyph>
<glyph name="oslash" format="2">
	<unicode hex="00F8"/>
	<advance width="447"/>
	<outline>
		<contour>
			<point x="470" y="477" type="line"/>
			<point x="417" y="412" type="line"/>
			<point x="400" y="426"/>
			<point x="376" y="435"/>
			<point x="344" y="438" type="curve"/>
			<point x="338" y="439"/>
			<point x="331" y="439"/>
			<point x="324" y="439" type="curve" smooth="yes"/>
			<point x="280" y="439"/>
			<point x="243" y="428"/>
			<point x="211" y="410" type="curve" smooth="yes"/>
			<point x="121" y="360"/>
			<point x="78" y="251"/>
			<point x="78" y="162" type="curve" smooth="yes"/>
			<point x="78" y="131"/>
			<point x="82" y="77"/>
			<point x="112" y="38" type="curve"/>
			<point x="63" y="-21" type="line"/>
			<point x="96" y="-48" type="line"/>
			<point x="143" y="9" type="line"/>
			<point x="162" y="-3"/>
			<point x="186" y="-10"/>
			<point x="218" y="-10" type="curve" smooth="yes"/>
			<point x="250" y="-10"/>
			<point x="281" y="-6"/>
			<point x="310" y="9" type="curve"/>
			<point x="315" y="11"/>
			<point x="319" y="14"/>
			<point x="324" y="16" type="curve"/>
			<point x="404" y="64"/>
			<point x="465" y="165"/>
			<point x="465" y="277" type="curve" smooth="yes"/>
			<point x="465" y="311"/>
			<point x="461" y="349"/>
			<point x="444" y="380" type="curve"/>
			<point x="503" y="453" type="line"/>
		</contour>
		<contour>
			<point x="370" y="355" type="curve"/>
			<point x="167" y="107" type="line"/>
			<point x="164" y="118"/>
			<point x="163" y="131"/>
			<point x="162" y="146" type="curve"/>
			<point x="161" y="154"/>
			<point x="161" y="162"/>
			<point x="161" y="170" type="curve" smooth="yes"/>
			<point x="161" y="260"/>
			<point x="200" y="406"/>
			<point x="306" y="406" type="curve" smooth="yes"/>
			<point x="336" y="406"/>
			<point x="352" y="390"/>
			<point x="367" y="362" type="curve"/>
			<point x="368" y="360"/>
			<point x="369" y="357"/>
		</contour>
		<contour>
			<point x="381" y="303" type="line"/>
			<point x="382" y="291"/>
			<point x="382" y="280"/>
			<point x="382" y="270" type="curve" smooth="yes"/>
			<point x="382" y="230"/>
			<point x="376" y="144"/>
			<point x="339" y="88" type="curve" smooth="yes"/>
			<point x="316" y="52"/>
			<point x="284" y="34"/>
			<point x="252" y="29" type="curve" smooth="yes"/>
			<point x="246" y="28"/>
			<point x="239" y="27"/>
			<point x="233" y="27" type="curve" smooth="yes"/>
			<point x="218" y="27"/>
			<point x="199" y="37"/>
			<point x="185" y="61" type="curve"/>
		</contour>
	</outline>
</glyph>
<glyph name="ydieresis" format="2">
	<unicode hex="00FF"/>
	<advance width="503"/>
	<outline>
		<contour>
			<point x="198" y="351" type="curve"/>
			<point x="202" y="343"/>
			<point x="208" y="327"/>
			<point x="213" y="309" type="curve" smooth="yes"/>
			<point x="244" y="207"/>
			<point x="274" y="-36"/>
			<point x="262" y="-62" type="curve"/>
			<point x="221" y="-129"/>
			<point x="179" y="-173"/>
			<point x="165" y="-173" type="curve" smooth="yes"/>
			<point x="155" y="-173"/>
			<point x="136" y="-160"/>
			<point x="130" y="-155" type="curve" smooth="yes"/>
			<point x="123" y="-149"/>
			<point name=".hr01" x="103" y="-141"/>
			<point x="95" y="-141" type="curve" smooth="yes"/>
			<point x="74" y="-141"/>
			<point x="49" y="-161"/>
			<point x="49" y="-192" type="curve" smooth="yes"/>
			<point x="49" y="-225"/>
			<point x="93" y="-234"/>
			<point x="110" y="-234" type="curve"/>
			<point x="110" y="-234"/>
			<point x="110" y="-234"/>
			<point x="110" y="-234" type="curve"/>
			<point x="163" y="-234"/>
			<point x="243" y="-169"/>
			<point x="307" y="-70" type="curve"/>
			<point x="310" y="-65"/>
			<point x="313" y="-61"/>
			<point x="316" y="-56" type="curve"/>
			<point x="353" y="0" type="line"/>
			<point x="369" y="27"/>
			<point x="460" y="166"/>
			<point x="504" y="248" type="curve"/>
			<point x="511" y="262"/>
			<point x="518" y="275"/>
			<point x="522" y="285" type="curve" smooth="yes"/>
			<point x="537" y="320"/>
			<point x="549" y="356"/>
			<point x="549" y="392" type="curve" smooth="yes"/>
			<point x="549" y="420"/>
			<point x="536" y="439"/>
			<point x="497" y="439" type="curve"/>
			<point x="497" y="439"/>
			<point x="497" y="439"/>
			<point x="497" y="439" type="curve"/>
			<point x="468" y="439"/>
			<point x="451" y="426"/>
			<point x="451" y="402" type="curve" smooth="yes"/>
			<point x="451" y="396"/>
			<point x="453" y="386"/>
			<point x="456" y="382" type="curve"/>
			<point x="467" y="365"/>
			<point x="473" y="349"/>
			<point x="476" y="335" type="curve" smooth="yes"/>
			<point name=".hr02" x="477" y="330"/>
			<point x="477" y="326"/>
			<point x="477" y="322" type="curve" smooth="yes"/>
			<point x="477" y="293"/>
			<point x="459" y="250"/>
			<point x="437" y="208" type="curve"/>
			<point x="425" y="187"/>
			<point x="413" y="167"/>
			<point x="402" y="149" type="curve"/>
			<point x="402" y="149"/>
			<point x="350" y="65"/>
			<point x="325" y="28" type="curve"/>
			<point x="318" y="31" type="line"/>
			<point x="312" y="141"/>
			<point x="306" y="232"/>
			<point x="279" y="347" type="curve"/>
			<point x="278" y="353"/>
			<point x="277" y="359"/>
			<point x="275" y="365" type="curve"/>
			<point x="266" y="400"/>
			<point x="257" y="421"/>
			<point x="244" y="432" type="curve" smooth="yes"/>
			<point x="238" y="437"/>
			<point x="231" y="439"/>
			<point x="223" y="439" type="curve" smooth="yes"/>
			<point x="200" y="439"/>
			<point x="126" y="398"/>
			<point x="91" y="372" type="curve"/>
			<point x="92" y="361"/>
			<point x="96" y="349"/>
			<point x="104" y="341" type="curve"/>
			<point x="116" y="347"/>
			<point x="149" y="363"/>
			<point x="170" y="363" type="curve" smooth="yes"/>
			<point x="183" y="363"/>
			<point x="193" y="360"/>
		</contour>
		<contour>
			<point x="237" y="573" type="curve" smooth="yes"/>
			<point x="237" y="548"/>
			<point x="258" y="527"/>
			<point x="283" y="527" type="curve" smooth="yes"/>
			<point x="308" y="527"/>
			<point x="329" y="548"/>
			<point x="329" y="573" type="curve" smooth="yes"/>
			<point x="329" y="598"/>
			<point x="308" y="619"/>
			<point x="283" y="619" type="curve" smooth="yes"/>
			<point x="258" y="619"/>
			<point x="237" y="598"/>
		</contour>
		<contour>
			<point x="397" y="573" type="curve" smooth="yes"/>
			<point x="397" y="548"/>
			<point name=".hr03" x="418" y="527"/>
			<point x="443" y="527" type="curve" smooth="yes"/>
			<point x="468" y="527"/>
			<point x="489" y="548"/>
			<point x="489" y="573" type="curve" smooth="yes"/>
			<point x="489" y="598"/>
			<point x="468" y="619"/>
			<point x="443" y="619" type="curve" smooth="yes"/>
			<point x="418" y="619"/>
			<point x="397" y="598"/>
		</contour>
	</outline>
</glyph>
<glyph name="abreve" format="2">
	<unicode hex="0103"/>
	<advance width="486"/>
	<outline>
		<contour>
			<point x="460" y="431" type="curve"/>
			<point x="442" y="430"/>
			<point x="425" y="429"/>
			<point x="410" y="433" type="curve"/>
			<point x="403" y="434"/>
			<point x="397" y="435"/>
			<point x="392" y="435" type="curve"/>
			<point x="386" y="436"/>
			<point x="381" y="437"/>
			<point x="375" y="437" type="curve"/>
			<point x="363" y="438"/>
			<point name=".hr01" x="350" y="439"/>
			<point x="330" y="439" type="curve" smooth="yes"/>
			<point x="327" y="439"/>
			<point x="325" y="439"/>
			<point x="322" y="439" type="curve"/>
			<point x="262" y="434"/>
			<point x="192" y="384"/>
			<point x="143" y="313" type="curve" smooth="yes"/>
			<point x="104" y="258"/>
			<point x="78" y="192"/>
			<point x="78" y="125" type="curve" smooth="yes"/>
			<point x="78" y="122"/>
			<point x="78" y="119"/>
			<point x="78" y="115" type="curve"/>
			<point x="80" y="60"/>
			<point x="96" y="-10"/>
			<point x="175" y="-10" type="curve" smooth="yes"/>
			<point x="228" y="-10"/>
			<point x="284" y="45"/>
			<point x="344" y="134" type="curve"/>
			<point x="346" y="132" type="line"/>
			<point x="340" y="111" type="line"/>
			<point x="337" y="104"/>
			<point x="335" y="97"/>
			<point x="333" y="90" type="curve"/>
			<point x="328" y="75"/>
			<point x="325" y="61"/>
			<point x="324" y="49" type="curve"/>
			<point x="323" y="44"/>
			<point x="323" y="39"/>
			<point x="323" y="35" type="curve"/>
			<point x="323" y="35"/>
			<point x="323" y="35"/>
			<point x="323" y="35" type="curve"/>
			<point x="323" y="19"/>
			<point x="328" y="-3"/>
			<point x="351" y="-9" type="curve"/>
			<point x="355" y="-9"/>
			<point x="359" y="-10"/>
			<point x="364" y="-10" type="curve" smooth="yes"/>
			<point x="426" y="-10"/>
			<point x="466" y="30"/>
			<point x="492" y="87" type="curve"/>
			<point x="487" y="96"/>
			<point x="482" y="103"/>
			<point x="469" y="103" type="curve"/>
			<point x="442" y="66"/>
			<point x="423" y="50"/>
			<point x="413" y="50" type="curve" smooth="yes"/>
			<point x="410" y="50"/>
			<point x="401" y="52"/>
			<point x="401" y="64" type="curve" smooth="yes"/>
			<point x="401" y="73"/>
			<point x="407" y="101"/>
			<point x="411" y="120" type="curve" smooth="yes"/>
			<point x="454" y="313" type="line" smooth="yes"/>
			<point x="463" y="352"/>
			<point x="471" y="392"/>
			<point name=".hr02" x="480" y="431" type="curve"/>
			<point x="473" y="431"/>
			<point x="467" y="431"/>
		</contour>
		<contour>
			<point x="360" y="219" type="curve"/>
			<point x="314" y="135"/>
			<point x="244" y="56"/>
			<point x="209" y="46" type="curve"/>
			<point x="206" y="45"/>
			<point x="204" y="45"/>
			<point x="202" y="45" type="curve" smooth="yes"/>
			<point x="178" y="45"/>
			<point x="166" y="65"/>
			<point x="161" y="97" type="curve" smooth="yes"/>
			<point x="159" y="110"/>
			<point x="158" y="125"/>
			<point x="158" y="141" type="curve" smooth="yes"/>
			<point x="158" y="197"/>
			<point x="181" y="267"/>
			<point x="216" y="322" type="curve" smooth="yes"/>
			<point x="247" y="371"/>
			<point x="289" y="408"/>
			<point name=".hr03" x="333" y="408" type="curve" smooth="yes"/>
			<point x="338" y="408"/>
			<point x="344" y="408"/>
			<point x="349" y="407" type="curve" smooth="yes"/>
			<point x="365" y="404"/>
			<point x="381" y="398"/>
			<point x="395" y="389" type="curve"/>
			<point x="395" y="389"/>
			<point x="385" y="283"/>
		</contour>
		<contour>
			<point x="236" y="647" type="curve"/>
			<point x="206" y="635" type="line"/>
			<point x="203" y="550"/>
			<point x="244" y="500"/>
			<point x="314" y="500" type="curve" smooth="yes"/>
			<point x="373" y="500"/>
			<point x="447" y="549"/>
			<point x="476" y="635" type="curve"/>
			<point x="452" y="647" type="line"/>
			<point x="430" y="589"/>
			<point x="377" y="557"/>
			<point x="325" y="557" type="curve" smooth="yes"/>
			<point x="271" y="557"/>
			<point x="236" y="594"/>
		</contour>
	</outline>
</glyph>
<glyph name="Aogonek" format="2">
	<unicode hex="0104"/>
	<advance width="695"/>
	<outline>
		<contour>
			<point x="673" y="-148" type="curve"/>
			<point x="660" y="-141" type="line"/>
			<point x="641" y="-158"/>
			<point x="622" y="-171"/>
			<point x="598" y="-175" type="curve"/>
			<point x="594" y="-176"/>
			<point x="589" y="-176"/>
			<point x="584" y="-176" type="curve" smooth="yes"/>
			<point x="552" y="-176"/>
			<point x="535" y="-156"/>
			<point x="535" y="-129" type="curve" smooth="yes"/>
			<point x="535" y="-76"/>
			<point x="602" y="-1"/>
			<point x="686" y="-1" type="curve"/>
			<point x="687" y="-1" type="line"/>
			<point x="688" y="0"/>
			<point x="689" y="0"/>
			<point x="690" y="1" type="curve"/>
			<point x="691" y="7"/>
			<point x="692" y="14"/>
			<point x="693" y="20" type="curve"/>
			<point x="693" y="24"/>
			<point x="689" y="28"/>
			<point x="685" y="28" type="curve" smooth="yes"/>
			<point x="681" y="28"/>
			<point x="678" y="28"/>
			<point x="674" y="28" type="curve" smooth="yes"/>
			<point x="634" y="28"/>
			<point x="618" y="47"/>
			<point x="610" y="86" type="curve" smooth="yes"/>
			<point x="501" y="628" type="line" smooth="yes"/>
			<point x="496" y="654"/>
			<point x="489" y="662"/>
			<point x="473" y="662" type="curve" smooth="yes"/>
			<point x="464" y="662"/>
			<point x="454" y="653"/>
			<point x="439" y="628" type="curve"/>
			<point x="439" y="628"/>
			<point x="439" y="628"/>
			<point x="439" y="628" type="curve"/>
			<point x="126" y="108" type="line"/>
			<point x="120" y="99"/>
			<point x="115" y="90"/>
			<point x="109" y="81" type="curve"/>
			<point x="89" y="47"/>
			<point x="68" y="28"/>
			<point x="27" y="28" type="curve" smooth="yes"/>
			<point x="15" y="28" type="line" smooth="yes"/>
			<point x="13" y="28"/>
			<point x="11" y="27"/>
			<point x="9" y="26" type="curve"/>
			<point x="8" y="25"/>
			<point x="7" y="23"/>
			<point x="6" y="20" type="curve"/>
			<point x="5" y="14"/>
			<point x="3" y="7"/>
			<point x="2" y="1" type="curve"/>
			<point x="4" y="-1" type="line"/>
			<point x="4" y="-1"/>
			<point x="69" y="1"/>
			<point x="94" y="1" type="curve" smooth="yes"/>
			<point x="119" y="1"/>
			<point x="217" y="-1"/>
			<point x="217" y="-1" type="curve"/>
			<point x="218" y="0"/>
			<point x="218" y="0"/>
			<point x="219" y="1" type="curve"/>
			<point x="220" y="7"/>
			<point x="222" y="14"/>
			<point x="223" y="20" type="curve"/>
			<point x="223" y="25"/>
			<point x="220" y="28"/>
			<point x="216" y="28" type="curve" smooth="yes"/>
			<point x="206" y="28"/>
			<point x="197" y="28"/>
			<point x="187" y="28" type="curve" smooth="yes"/>
			<point x="160" y="28"/>
			<point x="145" y="35"/>
			<point x="145" y="49" type="curve" smooth="yes"/>
			<point x="145" y="53"/>
			<point x="146" y="57"/>
			<point x="148" y="61" type="curve"/>
			<point x="149" y="65"/>
			<point x="151" y="69"/>
			<point x="153" y="72" type="curve"/>
			<point x="245" y="227" type="line"/>
			<point x="252" y="238"/>
			<point x="260" y="244"/>
			<point x="285" y="244" type="curve" smooth="yes"/>
			<point x="495" y="244" type="line"/>
			<point x="528" y="72" type="line"/>
			<point x="529" y="68"/>
			<point x="529" y="65"/>
			<point x="529" y="61" type="curve" smooth="yes"/>
			<point x="529" y="38"/>
			<point x="507" y="28"/>
			<point x="477" y="28" type="curve" smooth="yes"/>
			<point x="472" y="28"/>
			<point x="468" y="28"/>
			<point x="463" y="28" type="curve" smooth="yes"/>
			<point x="458" y="28"/>
			<point x="454" y="28"/>
			<point x="449" y="28" type="curve" smooth="yes"/>
			<point x="447" y="28"/>
			<point x="445" y="27"/>
			<point x="443" y="26" type="curve"/>
			<point x="442" y="25"/>
			<point x="441" y="23"/>
			<point x="440" y="20" type="curve"/>
			<point x="439" y="14"/>
			<point x="438" y="7"/>
			<point x="437" y="1" type="curve"/>
			<point x="437" y="1"/>
			<point x="437" y="0"/>
			<point x="438" y="0" type="curve"/>
			<point x="438" y="-1" type="line"/>
			<point x="438" y="-1"/>
			<point x="536" y="1"/>
			<point x="572" y="1" type="curve" smooth="yes"/>
			<point x="593" y="1" type="line"/>
			<point x="534" y="-27"/>
			<point x="488" y="-75"/>
			<point x="476" y="-122" type="curve"/>
			<point x="473" y="-130"/>
			<point x="472" y="-139"/>
			<point x="472" y="-147" type="curve" smooth="yes"/>
			<point x="472" y="-175"/>
			<point x="485" y="-194"/>
			<point x="506" y="-205" type="curve"/>
			<point x="518" y="-212"/>
			<point x="534" y="-215"/>
			<point x="552" y="-215" type="curve" smooth="yes"/>
			<point x="556" y="-215"/>
			<point x="560" y="-215"/>
			<point x="564" y="-214" type="curve"/>
			<point x="599" y="-210"/>
			<point x="645" y="-190"/>
		</contour>
		<contour>
			<point x="309" y="283" type="line" smooth="yes"/>
			<point x="292" y="283"/>
			<point x="285" y="287"/>
			<point x="285" y="292" type="curve" smooth="yes"/>
			<point x="285" y="295"/>
			<point x="286" y="297"/>
			<point x="288" y="301" type="curve"/>
			<point x="418" y="519" type="line"/>
			<point x="436" y="550" type="line"/>
			<point x="487" y="283" type="line"/>
		</contour>
	</outline>
</glyph>
<glyph name="Cacute" format="2">
	<unicode hex="0106"/>
	<advance width="616"/>
	<outline>
		<contour>
			<point x="338" y="-10" type="curve" smooth="yes"/>
			<point x="431" y="-10"/>
			<point x="526" y="36"/>
			<point x="608" y="125" type="curve"/>
			<point x="605" y="134"/>
			<point x="600" y="140"/>
			<point x="589" y="140" type="curve"/>
			<point x="514" y="70"/>
			<point x="449" y="38"/>
			<point x="371" y="32" type="curve"/>
			<point x="363" y="31"/>
			<point x="354" y="31"/>
			<point x="345" y="31" type="curve" smooth="yes"/>
			<point x="225" y="31"/>
			<point x="175" y="133"/>
			<point x="175" y="250" type="curve" smooth="yes"/>
			<point x="175" y="277"/>
			<point x="178" y="306"/>
			<point x="183" y="334" type="curve" smooth="yes"/>
			<point x="223" y="537"/>
			<point x="375" y="621"/>
			<point x="451" y="621" type="curve" smooth="yes"/>
			<point x="584" y="621"/>
			<point x="624" y="540"/>
			<point x="632" y="454" type="curve"/>
			<point x="642" y="455"/>
			<point x="651" y="457"/>
			<point x="661" y="458" type="curve"/>
			<point x="662" y="510"/>
			<point x="664" y="559"/>
			<point x="670" y="613" type="curve"/>
			<point x="616" y="616"/>
			<point x="587" y="658"/>
			<point x="469" y="658" type="curve" smooth="yes"/>
			<point x="310" y="658"/>
			<point x="134" y="512"/>
			<point x="96" y="315" type="curve" smooth="yes"/>
			<point x="91" y="290"/>
			<point x="89" y="266"/>
			<point x="89" y="241" type="curve" smooth="yes"/>
			<point x="89" y="175"/>
			<point x="108" y="112"/>
			<point x="148" y="66" type="curve" smooth="yes"/>
			<point x="189" y="20"/>
			<point x="251" y="-10"/>
		</contour>
		<contour>
			<point x="549" y="817" type="curve"/>
			<point x="502" y="789"/>
			<point x="455" y="761"/>
			<point x="408" y="733" type="curve"/>
			<point x="405" y="731"/>
			<point x="401" y="729"/>
			<point x="399" y="727" type="curve"/>
			<point x="391" y="720"/>
			<point x="387" y="715"/>
			<point x="387" y="708" type="curve" smooth="yes"/>
			<point x="387" y="700"/>
			<point x="391" y="697"/>
			<point x="399" y="697" type="curve" smooth="yes"/>
			<point x="401" y="697"/>
			<point x="403" y="697"/>
			<point x="405" y="698" type="curve"/>
			<point x="415" y="699"/>
			<point x="428" y="703"/>
			<point x="445" y="709" type="curve" smooth="yes"/>
			<point x="596" y="765" type="line"/>
			<point x="614" y="772" type="line"/>
			<point x="592" y="787"/>
			<point x="571" y="802"/>
		</contour>
	</outline>
</glyph>
<glyph name="Ccircumflex" format="2">
	<unicode hex="0108"/>
	<advance width="616"/>
	<outline>
		<contour>
			<point x="338" y="-10" type="curve" smooth="yes"/>
			<point x="431" y="-10"/>
			<point x="526" y="36"/>
			<point x="608" y="125" type="curve"/>
			<point x="605" y="134"/>
			<point x="600" y="140"/>
			<point x="589" y="140" type="curve"/>
			<point x="514" y="70"/>
			<point x="449" y="38"/>
			<point x="371" y="32" type="curve"/>
			<point x="363" y="31"/>
			<point x="354" y="31"/>
			<point x="345" y="31" type="curve" smooth="yes"/>
			<point x="225" y="31"/>
			<point x="175" y="133"/>
			<point x="175" y="250" type="curve" smooth="yes"/>
			<point x="175" y="277"/>
			<point x="178" y="306"/>
			<point x="183" y="334" type="curve" smooth="yes"/>
			<point x="223" y="537"/>
			<point x="375" y="621"/>
			<point x="451" y="621" type="curve" smooth="yes"/>
			<point x="584" y="621"/>
			<point x="624" y="540"/>
			<point x="632" y="454" type="curve"/>
			<point x="642" y="455"/>
			<point x="651" y="457"/>
			<point x="661" y="458" type="curve"/>
			<point x="662" y="510"/>
			<point x="664" y="559"/>
			<point x="670" y="613" type="curve"/>
			<point x="616" y="616"/>
			<point x="587" y="658"/>
			<point x="469" y="658" type="curve" smooth="yes"/>
			<point x="310" y="658"/>
			<point x="134" y="512"/>
			<point x="96" y="315" type="curve" smooth="yes"/>
			<point x="91" y="290"/>
			<point x="89" y="266"/>
			<point x="89" y="241" type="curve" smooth="yes"/>
			<point x="89" y="175"/>
			<point x="108" y="112"/>
			<point x="148" y="66" type="curve" smooth="yes"/>
			<point x="189" y="20"/>
			<point x="251" y="-10"/>
		</contour>
		<contour>
			<point x="605" y="712" type="curve"/>
			<point x="574" y="739"/>
			<point x="547" y="770"/>
			<point x="526" y="806" type="curve"/>
			<point x="483" y="806" type="line"/>
			<point x="445" y="772"/>
			<point x="405" y="740"/>
			<point x="362" y="712" type="curve"/>
			<point x="365" y="705"/>
			<point x="368" y="698"/>
			<point x="371" y="691" type="curve"/>
			<point x="413" y="708"/>
			<point x="449" y="726"/>
			<point x="492" y="753" type="curve"/>
			<point x="519" y="728"/>
			<point x="549" y="709"/>
			<point x="584" y="691" type="curve"/>
			<point x="591" y="698"/>
			<point x="598" y="705"/>
		</contour>
	</outline>
</glyph>
